<?xml version="1.0" encoding="UTF-8"?>
<!DOCTYPE svg PUBLIC "-//W3C//DTD SVG 1.1//EN" "http://www.w3.org/Graphics/SVG/1.1/DTD/svg11.dtd">
<svg xmlns="http://www.w3.org/2000/svg" version="1.1" width="644px" height="388px" style="shape-rendering:geometricPrecision; text-rendering:geometricPrecision; image-rendering:optimizeQuality; fill-rule:evenodd; clip-rule:evenodd" xmlns:xlink="http://www.w3.org/1999/xlink">
<g><path style="opacity:0.988" fill="#e49b9a" d="M 183.5,19.5 C 182.883,19.3893 182.383,19.056 182,18.5C 181.826,23.3514 181.326,28.0181 180.5,32.5C 180.625,26.7969 180.292,21.1302 179.5,15.5C 182.142,15.4877 183.475,16.821 183.5,19.5 Z"/></g>
<g><path style="opacity:0.58" fill="#ec9d93" d="M 183.5,19.5 C 185.074,21.1016 185.741,23.1016 185.5,25.5C 184.599,24.7095 183.932,23.7095 183.5,22.5C 183.5,21.5 183.5,20.5 183.5,19.5 Z"/></g>
<g><path style="opacity:1" fill="#dc5a51" d="M 183.5,19.5 C 183.5,20.5 183.5,21.5 183.5,22.5C 182.745,28.3659 181.912,34.3659 181,40.5C 180.764,42.1193 179.931,43.1193 178.5,43.5C 178.911,39.7785 179.578,36.1119 180.5,32.5C 181.326,28.0181 181.826,23.3514 182,18.5C 182.383,19.056 182.883,19.3893 183.5,19.5 Z"/></g>
<g><path style="opacity:1" fill="#e57973" d="M 185.5,25.5 C 186.302,26.9516 186.802,28.6183 187,30.5C 188.692,41.7709 187.192,52.4376 182.5,62.5C 181.833,62.8333 181.167,63.1667 180.5,63.5C 182.757,58.8246 184.257,53.8246 185,48.5C 185.5,40.8406 185.666,33.1739 185.5,25.5 Z"/></g>
<g><path style="opacity:1" fill="#e72328" d="M 183.5,22.5 C 183.932,23.7095 184.599,24.7095 185.5,25.5C 185.666,33.1739 185.5,40.8406 185,48.5C 184.257,53.8246 182.757,58.8246 180.5,63.5C 179.566,64.5676 179.232,65.901 179.5,67.5C 177.984,68.8997 176.317,70.233 174.5,71.5C 173.742,70.1886 172.742,69.6886 171.5,70C 172.406,71.6995 172.739,73.5328 172.5,75.5C 171.127,75.3433 169.793,75.51 168.5,76C 169.517,77.0495 169.684,78.2161 169,79.5C 168.586,79.0426 168.086,78.7093 167.5,78.5C 166.5,79.8333 165.5,81.1667 164.5,82.5C 163.232,81.5721 161.899,81.4054 160.5,82C 162.107,83.049 162.773,84.549 162.5,86.5C 160.738,87.2623 159.738,88.5956 159.5,90.5C 157.938,90.7329 156.605,91.3995 155.5,92.5C 155.5,92.1667 155.5,91.8333 155.5,91.5C 157.405,86.8755 159.405,81.5421 161.5,75.5C 161.253,74.2867 160.586,73.62 159.5,73.5C 162.462,70.0359 165.629,66.7025 169,63.5C 170.094,61.9221 170.928,60.2554 171.5,58.5C 173.25,57.3406 174.25,55.674 174.5,53.5C 177.341,51.3598 178.674,48.3598 178.5,44.5C 178.5,44.1667 178.5,43.8333 178.5,43.5C 179.931,43.1193 180.764,42.1193 181,40.5C 181.912,34.3659 182.745,28.3659 183.5,22.5 Z"/></g>
<g><path style="opacity:1" fill="#e17472" d="M 178.5,44.5 C 178.674,48.3598 177.341,51.3598 174.5,53.5C 175.597,50.3135 176.93,47.3135 178.5,44.5 Z"/></g>
<g><path style="opacity:0.267" fill="#f8b3af" d="M 174.5,53.5 C 174.25,55.674 173.25,57.3406 171.5,58.5C 171.75,56.326 172.75,54.6594 174.5,53.5 Z"/></g>
<g><path style="opacity:0.98" fill="#eb9690" d="M 182.5,62.5 C 182.25,64.674 181.25,66.3406 179.5,67.5C 179.232,65.901 179.566,64.5676 180.5,63.5C 181.167,63.1667 181.833,62.8333 182.5,62.5 Z"/></g>
<g><path style="opacity:0.537" fill="#f3a5a4" d="M 171.5,58.5 C 170.928,60.2554 170.094,61.9221 169,63.5C 165.629,66.7025 162.462,70.0359 159.5,73.5C 158.395,74.6005 157.062,75.2671 155.5,75.5C 160.861,69.8071 166.195,64.1404 171.5,58.5 Z"/></g>
<g><path style="opacity:1" fill="#e8655b" d="M 179.5,67.5 C 175.664,75.0103 170.331,81.3436 163.5,86.5C 163.167,86.5 162.833,86.5 162.5,86.5C 162.773,84.549 162.107,83.049 160.5,82C 161.899,81.4054 163.232,81.5721 164.5,82.5C 165.5,81.1667 166.5,79.8333 167.5,78.5C 168.086,78.7093 168.586,79.0426 169,79.5C 169.684,78.2161 169.517,77.0495 168.5,76C 169.793,75.51 171.127,75.3433 172.5,75.5C 172.739,73.5328 172.406,71.6995 171.5,70C 172.742,69.6886 173.742,70.1886 174.5,71.5C 176.317,70.233 177.984,68.8997 179.5,67.5 Z"/></g>
<g><path style="opacity:0.906" fill="#e18886" d="M 155.5,75.5 C 154.415,77.5869 152.749,78.9202 150.5,79.5C 151.585,77.4131 153.251,76.0798 155.5,75.5 Z"/></g>
<g><path style="opacity:0.867" fill="#e9908a" d="M 150.5,79.5 C 149.5,80.8333 148.5,82.1667 147.5,83.5C 146.833,83.5 146.167,83.5 145.5,83.5C 146.585,81.4131 148.251,80.0798 150.5,79.5 Z"/></g>
<g><path style="opacity:0.98" fill="#e09c94" d="M 212.5,87.5 C 211.448,85.744 209.781,85.0773 207.5,85.5C 211.001,84.0297 214.668,82.6964 218.5,81.5C 219.521,82.0016 219.688,82.6683 219,83.5C 217.028,85.2318 214.861,86.5652 212.5,87.5 Z"/></g>
<g><path style="opacity:1" fill="#e47671" d="M 207.5,85.5 C 209.781,85.0773 211.448,85.744 212.5,87.5C 212.158,88.3382 211.492,88.6716 210.5,88.5C 210.38,87.4138 209.713,86.7472 208.5,86.5C 206.547,87.1556 204.547,87.4889 202.5,87.5C 203.93,86.4625 205.597,85.7959 207.5,85.5 Z"/></g>
<g><path style="opacity:0.78" fill="#e99692" d="M 145.5,83.5 C 144.089,85.914 142.089,87.5806 139.5,88.5C 140.911,86.086 142.911,84.4194 145.5,83.5 Z"/></g>
<g><path style="opacity:0.016" fill="#ffc1d1" d="M 162.5,86.5 C 162.833,86.5 163.167,86.5 163.5,86.5C 162.5,88.1667 161.167,89.5 159.5,90.5C 159.738,88.5956 160.738,87.2623 162.5,86.5 Z"/></g>
<g><path style="opacity:0.961" fill="#eb8884" d="M 202.5,87.5 C 200.824,89.8337 198.491,90.8337 195.5,90.5C 197.509,88.9348 199.843,87.9348 202.5,87.5 Z"/></g>
<g><path style="opacity:1" fill="#eb2127" d="M 159.5,73.5 C 160.586,73.62 161.253,74.2867 161.5,75.5C 159.405,81.5421 157.405,86.8755 155.5,91.5C 154.5,91.5 153.5,91.5 152.5,91.5C 152.5,92.8333 152.5,94.1667 152.5,95.5C 150.201,94.8621 148.034,93.8621 146,92.5C 143.697,94.7438 144.03,96.4104 147,97.5C 147.49,98.7932 147.657,100.127 147.5,101.5C 147.5,102.167 147.167,102.5 146.5,102.5C 145.993,101.141 144.993,100.141 143.5,99.5C 146.081,97.8291 145.748,97.3291 142.5,98C 141.864,100.394 141.864,102.894 142.5,105.5C 140.5,105.5 138.5,105.5 136.5,105.5C 136.5,107.833 136.5,110.167 136.5,112.5C 135.833,112.833 135.167,113.167 134.5,113.5C 132.856,113.714 131.356,113.38 130,112.5C 130.487,114.044 130.987,115.71 131.5,117.5C 129.801,117.34 128.134,117.506 126.5,118C 127.38,119.356 127.714,120.856 127.5,122.5C 126.5,122.5 125.5,122.5 124.5,122.5C 124.5,124.167 124.5,125.833 124.5,127.5C 124.672,128.492 124.338,129.158 123.5,129.5C 122.153,130.171 120.986,130.171 120,129.5C 119.215,127.714 118.049,126.214 116.5,125C 118.497,123.847 118.83,122.347 117.5,120.5C 113.267,120.218 112.6,118.718 115.5,116C 116.784,115.316 117.951,115.483 119,116.5C 119.667,114.833 119.667,113.167 119,111.5C 118.282,112.451 117.449,112.617 116.5,112C 122.688,106.419 129.021,101.085 135.5,96C 136.833,95.6667 138.167,95.3333 139.5,95C 138.939,93.4345 139.606,92.1011 141.5,91C 141.167,90.6667 140.833,90.3333 140.5,90C 143.331,88.3343 145.664,86.1676 147.5,83.5C 148.5,82.1667 149.5,80.8333 150.5,79.5C 152.749,78.9202 154.415,77.5869 155.5,75.5C 157.062,75.2671 158.395,74.6005 159.5,73.5 Z"/></g>
<g><path style="opacity:0.996" fill="#eb8684" d="M 207.5,90.5 C 206.564,91.9744 205.23,92.9744 203.5,93.5C 203.5,92.5 203.5,91.5 203.5,90.5C 204.833,90.5 206.167,90.5 207.5,90.5 Z"/></g>
<g><path style="opacity:1" fill="#e23c3b" d="M 210.5,88.5 C 210.027,89.9063 209.027,90.573 207.5,90.5C 206.167,90.5 204.833,90.5 203.5,90.5C 203.5,91.5 203.5,92.5 203.5,93.5C 203.158,94.3382 202.492,94.6716 201.5,94.5C 199.833,94.5 198.167,94.5 196.5,94.5C 196.567,95.9587 196.234,97.2921 195.5,98.5C 194.833,98.5 194.5,98.1667 194.5,97.5C 194.5,95.5 193.5,94.5 191.5,94.5C 192.833,93.1667 194.167,91.8333 195.5,90.5C 198.491,90.8337 200.824,89.8337 202.5,87.5C 204.547,87.4889 206.547,87.1556 208.5,86.5C 209.713,86.7472 210.38,87.4138 210.5,88.5 Z"/></g>
<g><path style="opacity:0.69" fill="#f0a59e" d="M 139.5,88.5 C 137.431,91.5725 134.764,93.9059 131.5,95.5C 133.569,92.4275 136.236,90.0941 139.5,88.5 Z"/></g>
<g><path style="opacity:1" fill="#e9534a" d="M 155.5,91.5 C 155.5,91.8333 155.5,92.1667 155.5,92.5C 154.89,93.391 154.557,94.391 154.5,95.5C 152.192,97.4707 149.858,99.4707 147.5,101.5C 147.657,100.127 147.49,98.7932 147,97.5C 144.03,96.4104 143.697,94.7438 146,92.5C 148.034,93.8621 150.201,94.8621 152.5,95.5C 152.5,94.1667 152.5,92.8333 152.5,91.5C 153.5,91.5 154.5,91.5 155.5,91.5 Z"/></g>
<g><path style="opacity:0.035" fill="#f5c5be" d="M 159.5,90.5 C 158.167,92.5 156.5,94.1667 154.5,95.5C 154.557,94.391 154.89,93.391 155.5,92.5C 156.605,91.3995 157.938,90.7329 159.5,90.5 Z"/></g>
<g><path style="opacity:0.98" fill="#e27a76" d="M 195.5,90.5 C 194.167,91.8333 192.833,93.1667 191.5,94.5C 187.914,95.7926 184.248,96.7926 180.5,97.5C 185.256,94.7691 190.256,92.4358 195.5,90.5 Z"/></g>
<g><path style="opacity:1" fill="#eb7976" d="M 201.5,94.5 C 199.853,96.3264 197.853,97.6597 195.5,98.5C 196.234,97.2921 196.567,95.9587 196.5,94.5C 198.167,94.5 199.833,94.5 201.5,94.5 Z"/></g>
<g><path style="opacity:0.867" fill="#e28b89" d="M 131.5,95.5 C 130.089,97.914 128.089,99.5806 125.5,100.5C 126.911,98.086 128.911,96.4194 131.5,95.5 Z"/></g>
<g><path style="opacity:0.737" fill="#f5a5a5" d="M 180.5,97.5 C 180.027,98.9063 179.027,99.573 177.5,99.5C 177.973,98.0937 178.973,97.427 180.5,97.5 Z"/></g>
<g><path style="opacity:0.612" fill="#f29d98" d="M 177.5,99.5 C 176.514,101.408 174.848,102.408 172.5,102.5C 173.659,100.75 175.326,99.7497 177.5,99.5 Z"/></g>
<g><path style="opacity:0.596" fill="#f0a4a3" d="M 172.5,102.5 C 171.738,104.262 170.404,105.262 168.5,105.5C 169.262,103.738 170.596,102.738 172.5,102.5 Z"/></g>
<g><path style="opacity:1" fill="#e95c53" d="M 146.5,102.5 C 143.5,106.167 140.167,109.5 136.5,112.5C 136.5,110.167 136.5,107.833 136.5,105.5C 138.5,105.5 140.5,105.5 142.5,105.5C 141.864,102.894 141.864,100.394 142.5,98C 145.748,97.3291 146.081,97.8291 143.5,99.5C 144.993,100.141 145.993,101.141 146.5,102.5 Z"/></g>
<g><path style="opacity:1" fill="#e96963" d="M 194.5,97.5 C 194.5,98.1667 194.833,98.5 195.5,98.5C 190.057,103.395 184.39,108.062 178.5,112.5C 178.666,109.832 179.666,107.498 181.5,105.5C 185.108,104.187 188.441,102.52 191.5,100.5C 191.5,99.5 191.5,98.5 191.5,97.5C 192.5,97.5 193.5,97.5 194.5,97.5 Z"/></g>
<g><path style="opacity:0.682" fill="#e9a29f" d="M 168.5,105.5 C 167.738,107.262 166.404,108.262 164.5,108.5C 165.262,106.738 166.596,105.738 168.5,105.5 Z"/></g>
<g><path style="opacity:0.651" fill="#f3b6b0" d="M 125.5,100.5 C 122.167,104.5 118.5,108.167 114.5,111.5C 117.167,106.833 120.833,103.167 125.5,100.5 Z"/></g>
<g><path style="opacity:0.745" fill="#eb9994" d="M 164.5,108.5 C 160.472,112.859 156.472,117.193 152.5,121.5C 155.113,115.887 159.113,111.554 164.5,108.5 Z"/></g>
<g><path style="opacity:0.004" fill="#ffd7d4" d="M 136.5,112.5 C 136.573,114.027 135.906,115.027 134.5,115.5C 134.5,114.833 134.5,114.167 134.5,113.5C 135.167,113.167 135.833,112.833 136.5,112.5 Z"/></g>
<g><path style="opacity:0.639" fill="#efa29d" d="M 113.5,112.5 C 112.92,114.749 111.587,116.415 109.5,117.5C 110.08,115.251 111.413,113.585 113.5,112.5 Z"/></g>
<g><path style="opacity:1" fill="#ea2328" d="M 191.5,94.5 C 193.5,94.5 194.5,95.5 194.5,97.5C 193.5,97.5 192.5,97.5 191.5,97.5C 191.5,98.5 191.5,99.5 191.5,100.5C 188.441,102.52 185.108,104.187 181.5,105.5C 179.666,107.498 178.666,109.832 178.5,112.5C 178.573,114.027 177.906,115.027 176.5,115.5C 175.533,114.194 174.199,113.527 172.5,113.5C 172.55,115.59 171.55,116.923 169.5,117.5C 168.52,120.086 168.187,122.753 168.5,125.5C 168.672,126.492 168.338,127.158 167.5,127.5C 166.778,127.918 166.278,128.584 166,129.5C 165.503,132.146 165.336,134.813 165.5,137.5C 165.292,141.085 166.625,143.751 169.5,145.5C 169.536,149.2 171.203,151.867 174.5,153.5C 174.427,155.027 175.094,156.027 176.5,156.5C 176.427,158.027 177.094,159.027 178.5,159.5C 178.031,162.393 179.031,164.393 181.5,165.5C 181.5,165.833 181.5,166.167 181.5,166.5C 182.833,172.833 182.833,179.167 181.5,185.5C 180.504,185.414 179.671,185.748 179,186.5C 177.711,189.168 176.544,191.835 175.5,194.5C 174.5,196.167 173.167,197.5 171.5,198.5C 169.801,198.34 168.134,198.506 166.5,199C 167.993,200.156 167.826,200.99 166,201.5C 164.721,199.281 165.388,197.281 168,195.5C 168.667,190.833 168.667,186.167 168,181.5C 167.057,178.6 165.39,176.267 163,174.5C 162.517,173.552 162.351,172.552 162.5,171.5C 161.5,171.5 160.5,171.5 159.5,171.5C 159.5,171.167 159.5,170.833 159.5,170.5C 159.404,166.275 157.404,163.608 153.5,162.5C 153.5,162.167 153.5,161.833 153.5,161.5C 152.736,156.58 151.236,151.913 149,147.5C 148.501,142.845 148.334,138.179 148.5,133.5C 149.15,131.565 149.483,129.565 149.5,127.5C 149.5,127.167 149.5,126.833 149.5,126.5C 151.408,125.514 152.408,123.848 152.5,121.5C 156.472,117.193 160.472,112.859 164.5,108.5C 166.404,108.262 167.738,107.262 168.5,105.5C 170.404,105.262 171.738,104.262 172.5,102.5C 174.848,102.408 176.514,101.408 177.5,99.5C 179.027,99.573 180.027,98.9063 180.5,97.5C 184.248,96.7926 187.914,95.7926 191.5,94.5 Z"/></g>
<g><path style="opacity:1" fill="#e96a61" d="M 134.5,113.5 C 134.5,114.167 134.5,114.833 134.5,115.5C 130.76,119.233 127.427,123.233 124.5,127.5C 124.5,125.833 124.5,124.167 124.5,122.5C 125.5,122.5 126.5,122.5 127.5,122.5C 127.714,120.856 127.38,119.356 126.5,118C 128.134,117.506 129.801,117.34 131.5,117.5C 130.987,115.71 130.487,114.044 130,112.5C 131.356,113.38 132.856,113.714 134.5,113.5 Z"/></g>
<g><path style="opacity:1" fill="#e9675f" d="M 176.5,115.5 C 173.423,118.569 170.756,121.903 168.5,125.5C 168.187,122.753 168.52,120.086 169.5,117.5C 171.55,116.923 172.55,115.59 172.5,113.5C 174.199,113.527 175.533,114.194 176.5,115.5 Z"/></g>
<g><path style="opacity:0.247" fill="#fcc4be" d="M 106.5,121.5 C 106.5,122.167 106.5,122.833 106.5,123.5C 105.833,123.833 105.167,124.167 104.5,124.5C 104.427,122.973 105.094,121.973 106.5,121.5 Z"/></g>
<g><path style="opacity:0.988" fill="#e8958e" d="M 152.5,121.5 C 152.408,123.848 151.408,125.514 149.5,126.5C 149.75,124.326 150.75,122.659 152.5,121.5 Z"/></g>
<g><path style="opacity:1" fill="#e92a2d" d="M 145.5,83.5 C 146.167,83.5 146.833,83.5 147.5,83.5C 145.664,86.1676 143.331,88.3343 140.5,90C 140.833,90.3333 141.167,90.6667 141.5,91C 139.606,92.1011 138.939,93.4345 139.5,95C 138.167,95.3333 136.833,95.6667 135.5,96C 129.021,101.085 122.688,106.419 116.5,112C 117.449,112.617 118.282,112.451 119,111.5C 119.667,113.167 119.667,114.833 119,116.5C 117.951,115.483 116.784,115.316 115.5,116C 112.6,118.718 113.267,120.218 117.5,120.5C 118.83,122.347 118.497,123.847 116.5,125C 118.049,126.214 119.215,127.714 120,129.5C 120.986,130.171 122.153,130.171 123.5,129.5C 120.234,135.878 119.234,142.544 120.5,149.5C 120.345,152.716 121.345,155.383 123.5,157.5C 124.441,159.05 125.107,160.716 125.5,162.5C 125.963,165.482 126.296,168.482 126.5,171.5C 124.115,170.708 122.115,169.374 120.5,167.5C 119.058,164.306 116.892,161.639 114,159.5C 114.094,156.499 112.761,154.499 110,153.5C 109.187,151.564 108.687,149.564 108.5,147.5C 107.5,147.5 106.5,147.5 105.5,147.5C 104.523,143.396 103.857,139.23 103.5,135C 103.519,130.83 104.519,126.997 106.5,123.5C 106.5,122.833 106.5,122.167 106.5,121.5C 106.738,119.596 107.738,118.262 109.5,117.5C 111.587,116.415 112.92,114.749 113.5,112.5C 113.5,111.833 113.833,111.5 114.5,111.5C 118.5,108.167 122.167,104.5 125.5,100.5C 128.089,99.5806 130.089,97.914 131.5,95.5C 134.764,93.9059 137.431,91.5725 139.5,88.5C 142.089,87.5806 144.089,85.914 145.5,83.5 Z"/></g>
<g><path style="opacity:0.635" fill="#ed8f8d" d="M 149.5,127.5 C 149.483,129.565 149.15,131.565 148.5,133.5C 148.167,133.5 147.833,133.5 147.5,133.5C 147.259,131.102 147.926,129.102 149.5,127.5 Z"/></g>
<g><path style="opacity:1" fill="#e37371" d="M 106.5,123.5 C 104.519,126.997 103.519,130.83 103.5,135C 103.857,139.23 104.523,143.396 105.5,147.5C 100.646,140.084 100.313,132.417 104.5,124.5C 105.167,124.167 105.833,123.833 106.5,123.5 Z"/></g>
<g><path style="opacity:0.02" fill="#fbd7cc" d="M 167.5,127.5 C 166.793,130.786 166.46,134.119 166.5,137.5C 166.167,137.5 165.833,137.5 165.5,137.5C 165.336,134.813 165.503,132.146 166,129.5C 166.278,128.584 166.778,127.918 167.5,127.5 Z"/></g>
<g><path style="opacity:1" fill="#e77b77" d="M 165.5,137.5 C 165.833,137.5 166.167,137.5 166.5,137.5C 167.5,140.167 168.5,142.833 169.5,145.5C 166.625,143.751 165.292,141.085 165.5,137.5 Z"/></g>
<g><path style="opacity:1" fill="#ea1f27" d="M 328.5,140.5 C 331.5,140.5 334.5,140.5 337.5,140.5C 337.5,173.5 337.5,206.5 337.5,239.5C 337.678,244.039 337.345,248.539 336.5,253C 333.896,259.173 331.562,265.339 329.5,271.5C 327.876,271.64 326.71,270.973 326,269.5C 325.506,271.134 325.34,272.801 325.5,274.5C 324.5,274.5 323.5,274.5 322.5,274.5C 322.649,273.448 322.483,272.448 322,271.5C 321.503,273.81 321.337,276.143 321.5,278.5C 317.736,280.195 313.736,281.528 309.5,282.5C 309.512,279.858 308.179,278.525 305.5,278.5C 305.5,278.167 305.5,277.833 305.5,277.5C 304.438,275.766 304.438,274.099 305.5,272.5C 309.095,270.898 312.429,268.898 315.5,266.5C 316.065,264.58 317.065,262.913 318.5,261.5C 319.151,260.909 319.818,260.243 320.5,259.5C 321.474,261.743 321.808,264.076 321.5,266.5C 322.833,266.5 324.167,266.5 325.5,266.5C 326.241,262.708 327.241,259.041 328.5,255.5C 327.5,255.5 326.5,255.5 325.5,255.5C 325.228,249.921 326.228,244.588 328.5,239.5C 329.819,206.463 329.819,173.463 328.5,140.5 Z"/></g>
<g><path style="opacity:1" fill="#e92223" d="M 325.5,140.5 C 326.5,140.5 327.5,140.5 328.5,140.5C 329.819,173.463 329.819,206.463 328.5,239.5C 326.228,244.588 325.228,249.921 325.5,255.5C 326.5,255.5 327.5,255.5 328.5,255.5C 327.241,259.041 326.241,262.708 325.5,266.5C 324.167,266.5 322.833,266.5 321.5,266.5C 321.808,264.076 321.474,261.743 320.5,259.5C 319.818,260.243 319.151,260.909 318.5,261.5C 319.776,258.664 320.442,255.664 320.5,252.5C 322.176,251.817 322.843,250.483 322.5,248.5C 323.166,245.642 323.833,242.642 324.5,239.5C 325.086,239.291 325.586,238.957 326,238.5C 326.812,205.804 326.645,173.137 325.5,140.5 Z"/></g>
<g><path style="opacity:0.997" fill="#d23333" d="M 338.5,239.5 C 338.167,239.5 337.833,239.5 337.5,239.5C 337.5,206.5 337.5,173.5 337.5,140.5C 334.5,140.5 331.5,140.5 328.5,140.5C 327.5,140.5 326.5,140.5 325.5,140.5C 324.5,140.5 323.5,140.5 322.5,140.5C 322.5,176.5 322.5,212.5 322.5,248.5C 322.843,250.483 322.176,251.817 320.5,252.5C 320.5,251.167 320.5,249.833 320.5,248.5C 321.498,212.337 321.832,176.004 321.5,139.5C 327.167,139.5 332.833,139.5 338.5,139.5C 338.5,172.833 338.5,206.167 338.5,239.5 Z"/></g>
<g><path style="opacity:0.427" fill="#ee8f8c" d="M 338.5,250.5 C 338.5,246.833 338.5,243.167 338.5,239.5C 338.5,206.167 338.5,172.833 338.5,139.5C 332.833,139.5 327.167,139.5 321.5,139.5C 321.832,176.004 321.498,212.337 320.5,248.5C 320.5,212.167 320.5,175.833 320.5,139.5C 326.645,138.51 332.978,138.177 339.5,138.5C 339.832,176.004 339.498,213.337 338.5,250.5 Z"/></g>
<g><path style="opacity:1" fill="#ec1c28" d="M 325.5,140.5 C 326.645,173.137 326.812,205.804 326,238.5C 325.586,238.957 325.086,239.291 324.5,239.5C 323.833,242.642 323.166,245.642 322.5,248.5C 322.5,212.5 322.5,176.5 322.5,140.5C 323.5,140.5 324.5,140.5 325.5,140.5 Z"/></g>
<g><path style="opacity:1" fill="#eb8077" d="M 169.5,145.5 C 171.664,147.822 173.331,150.489 174.5,153.5C 171.203,151.867 169.536,149.2 169.5,145.5 Z"/></g>
<g><path style="opacity:0.71" fill="#f8aea7" d="M 120.5,149.5 C 121.871,151.936 122.871,154.603 123.5,157.5C 121.345,155.383 120.345,152.716 120.5,149.5 Z"/></g>
<g><path style="opacity:1" fill="#e87b75" d="M 105.5,147.5 C 106.5,147.5 107.5,147.5 108.5,147.5C 108.687,149.564 109.187,151.564 110,153.5C 112.761,154.499 114.094,156.499 114,159.5C 116.892,161.639 119.058,164.306 120.5,167.5C 121.11,168.391 121.443,169.391 121.5,170.5C 114.937,163.714 109.604,156.048 105.5,147.5 Z"/></g>
<g><path style="opacity:1" fill="#e47871" d="M 147.5,133.5 C 147.833,133.5 148.167,133.5 148.5,133.5C 148.334,138.179 148.501,142.845 149,147.5C 151.236,151.913 152.736,156.58 153.5,161.5C 147.061,153.084 145.061,143.75 147.5,133.5 Z"/></g>
<g><path style="opacity:0.408" fill="#fbad9f" d="M 174.5,153.5 C 175.906,153.973 176.573,154.973 176.5,156.5C 175.094,156.027 174.427,155.027 174.5,153.5 Z"/></g>
<g><path style="opacity:0.275" fill="#fdc3c2" d="M 176.5,156.5 C 177.906,156.973 178.573,157.973 178.5,159.5C 177.094,159.027 176.427,158.027 176.5,156.5 Z"/></g>
<g><path style="opacity:1" fill="#eb8b88" d="M 178.5,159.5 C 180.008,161.181 181.008,163.181 181.5,165.5C 179.031,164.393 178.031,162.393 178.5,159.5 Z"/></g>
<g><path style="opacity:1" fill="#e8837b" d="M 153.5,162.5 C 157.404,163.608 159.404,166.275 159.5,170.5C 157.147,168.14 155.147,165.473 153.5,162.5 Z"/></g>
<g><path style="opacity:0.993" fill="#e87c74" d="M 561.5,169.5 C 551.521,168.704 541.521,168.371 531.5,168.5C 538.935,166.639 546.602,166.139 554.5,167C 557.104,167.39 559.438,168.224 561.5,169.5 Z"/></g>
<g><path style="opacity:0.498" fill="#eea3a2" d="M 447.5,169.5 C 441.5,169.5 435.5,169.5 429.5,169.5C 429.5,170.833 429.5,172.167 429.5,173.5C 428.661,172.359 427.994,171.026 427.5,169.5C 434.322,168.182 440.989,168.182 447.5,169.5 Z"/></g>
<g><path style="opacity:0.492" fill="#f0aaa7" d="M 483.5,169.5 C 489.645,168.51 495.978,168.177 502.5,168.5C 502.784,170.415 502.451,172.081 501.5,173.5C 501.5,172.167 501.5,170.833 501.5,169.5C 495.5,169.5 489.5,169.5 483.5,169.5 Z"/></g>
<g><path style="opacity:1" fill="#e47570" d="M 397.5,168.5 C 397.5,168.167 397.5,167.833 397.5,167.5C 402.522,168.18 406.856,170.18 410.5,173.5C 405.9,172.413 401.567,170.746 397.5,168.5 Z"/></g>
<g><path style="opacity:0.745" fill="#f09893" d="M 369.5,169.5 C 365.767,171.411 361.767,172.744 357.5,173.5C 361.085,171.194 365.085,169.861 369.5,169.5 Z"/></g>
<g><path style="opacity:0.812" fill="#e48581" d="M 561.5,169.5 C 564.704,170.383 567.371,172.05 569.5,174.5C 566.085,173.805 563.418,172.138 561.5,169.5 Z"/></g>
<g><path style="opacity:0.541" fill="#e89797" d="M 581.5,174.5 C 581.631,175.376 581.298,176.043 580.5,176.5C 579.534,174.604 579.201,172.604 579.5,170.5C 579.56,169.957 579.893,169.624 580.5,169.5C 581.452,171.045 581.785,172.712 581.5,174.5 Z"/></g>
<g><path style="opacity:0.112" fill="#f3cbc9" d="M 587.5,170.5 C 586.85,170.196 586.183,169.863 585.5,169.5C 584.534,171.396 584.201,173.396 584.5,175.5C 583.698,174.048 583.198,172.382 583,170.5C 582.79,172.058 582.29,173.391 581.5,174.5C 581.785,172.712 581.452,171.045 580.5,169.5C 579.893,169.624 579.56,169.957 579.5,170.5C 577.027,170.053 576.86,169.053 579,167.5C 582.254,167.838 585.088,168.838 587.5,170.5 Z"/></g>
<g><path style="opacity:0.902" fill="#ea9499" d="M 447.5,169.5 C 448.738,171.214 449.405,173.214 449.5,175.5C 447.926,173.898 447.259,171.898 447.5,169.5 Z"/></g>
<g><path style="opacity:0.992" fill="#e98d87" d="M 530.5,168.5 C 525.767,170.744 520.767,172.411 515.5,173.5C 520.085,170.86 525.085,169.194 530.5,168.5 Z"/></g>
<g><path style="opacity:0.898" fill="#ce5f5f" d="M 587.5,170.5 C 588.301,172.793 588.968,172.46 589.5,169.5C 591.176,170.183 591.843,171.517 591.5,173.5C 588.918,173.025 586.918,173.692 585.5,175.5C 585.167,176.833 584.833,176.833 584.5,175.5C 584.201,173.396 584.534,171.396 585.5,169.5C 586.183,169.863 586.85,170.196 587.5,170.5 Z"/></g>
<g><path style="opacity:0.122" fill="#ffe3e6" d="M 589.5,169.5 C 588.968,172.46 588.301,172.793 587.5,170.5C 588.167,170.167 588.833,169.833 589.5,169.5 Z"/></g>
<g><path style="opacity:1" fill="#eb1f25" d="M 397.5,168.5 C 401.567,170.746 405.9,172.413 410.5,173.5C 411.39,176.777 412.723,179.777 414.5,182.5C 414.62,185.205 413.62,185.872 411.5,184.5C 409.164,186.118 409.164,187.952 411.5,190C 409.152,191.688 408.985,193.522 411,195.5C 411.167,198.167 411.333,200.833 411.5,203.5C 411.622,206.691 411.122,209.691 410,212.5C 410.038,206.437 408.705,200.77 406,195.5C 405.798,197.256 405.298,198.922 404.5,200.5C 403.453,196.888 402.62,193.221 402,189.5C 401.617,188.944 401.117,188.611 400.5,188.5C 399.549,187.081 399.216,185.415 399.5,183.5C 398.5,183.5 397.5,183.5 396.5,183.5C 395.781,181.112 394.115,179.612 391.5,179C 388.633,178.199 385.966,178.366 383.5,179.5C 379.766,179.323 376.099,179.656 372.5,180.5C 368.152,180.909 363.819,181.076 359.5,181C 357.339,176.552 358.672,174.385 363.5,174.5C 363.5,175.5 363.5,176.5 363.5,177.5C 365.492,177.672 367.158,177.005 368.5,175.5C 373.716,176.143 373.716,175.31 368.5,173C 372.86,171.559 377.193,170.225 381.5,169C 386.823,168.501 392.156,168.334 397.5,168.5 Z"/></g>
<g><path style="opacity:1" fill="#e82227" d="M 447.5,169.5 C 447.259,171.898 447.926,173.898 449.5,175.5C 449.5,176.833 449.5,178.167 449.5,179.5C 447.763,182.008 446.93,185.008 447,188.5C 445.732,188.384 444.398,188.051 443,187.5C 442.333,185.5 441.667,183.5 441,181.5C 440.833,182.5 440.667,183.5 440.5,184.5C 441.705,194.525 443.039,204.525 444.5,214.5C 443.883,214.389 443.383,214.056 443,213.5C 439.233,200.709 435.4,188.042 431.5,175.5C 431.5,174.167 430.833,173.5 429.5,173.5C 429.5,172.167 429.5,170.833 429.5,169.5C 435.5,169.5 441.5,169.5 447.5,169.5 Z"/></g>
<g><path style="opacity:0.667" fill="#d99d9c" d="M 589.5,169.5 C 590.209,168.596 591.209,168.263 592.5,168.5C 592.813,171.247 592.48,173.914 591.5,176.5C 589.585,176.684 587.585,176.35 585.5,175.5C 586.918,173.692 588.918,173.025 591.5,173.5C 591.843,171.517 591.176,170.183 589.5,169.5 Z"/></g>
<g><path style="opacity:0.659" fill="#f4b1b2" d="M 124.5,174.5 C 126.5,174.5 127.5,175.5 127.5,177.5C 126.167,176.833 125.167,175.833 124.5,174.5 Z"/></g>
<g><path style="opacity:0.431" fill="#fab9ba" d="M 357.5,173.5 C 357.077,174.265 356.743,175.098 356.5,176C 357.406,178.791 358.073,181.624 358.5,184.5C 356.828,182.02 355.828,179.187 355.5,176C 355.684,174.624 356.351,173.791 357.5,173.5 Z"/></g>
<g><path style="opacity:1" fill="#ea564e" d="M 397.5,167.5 C 397.5,167.833 397.5,168.167 397.5,168.5C 392.156,168.334 386.823,168.501 381.5,169C 377.193,170.225 372.86,171.559 368.5,173C 373.716,175.31 373.716,176.143 368.5,175.5C 367.158,177.005 365.492,177.672 363.5,177.5C 363.5,176.5 363.5,175.5 363.5,174.5C 358.672,174.385 357.339,176.552 359.5,181C 363.819,181.076 368.152,180.909 372.5,180.5C 372.5,180.833 372.5,181.167 372.5,181.5C 368.238,182.655 363.905,183.989 359.5,185.5C 358.893,185.376 358.56,185.043 358.5,184.5C 358.073,181.624 357.406,178.791 356.5,176C 356.743,175.098 357.077,174.265 357.5,173.5C 361.767,172.744 365.767,171.411 369.5,169.5C 378.566,166.584 387.9,165.917 397.5,167.5 Z"/></g>
<g><path style="opacity:0.992" fill="#e38c89" d="M 429.5,173.5 C 430.833,173.5 431.5,174.167 431.5,175.5C 431.5,177.167 431.5,178.833 431.5,180.5C 430.388,178.401 429.721,176.067 429.5,173.5 Z"/></g>
<g><path style="opacity:1" fill="#e45f58" d="M 483.5,169.5 C 489.5,169.5 495.5,169.5 501.5,169.5C 501.5,170.833 501.5,172.167 501.5,173.5C 501.46,176.988 500.793,180.321 499.5,183.5C 498.833,184.167 498.167,184.833 497.5,185.5C 498.164,180.527 498.497,175.527 498.5,170.5C 494.486,170.334 490.486,170.501 486.5,171C 486,171.5 485.5,172 485,172.5C 484.113,179.144 483.446,185.811 483,192.5C 482.634,194.452 481.801,196.118 480.5,197.5C 479.833,197.5 479.167,197.5 478.5,197.5C 480.432,188.177 482.099,178.844 483.5,169.5 Z"/></g>
<g><path style="opacity:0.962" fill="#e7817b" d="M 181.5,166.5 C 184.828,172.134 185.328,178.134 183,184.5C 182.617,185.056 182.117,185.389 181.5,185.5C 182.833,179.167 182.833,172.833 181.5,166.5 Z"/></g>
<g><path style="opacity:0.984" fill="#e09a95" d="M 515.5,173.5 C 515.5,176.167 515.5,178.833 515.5,181.5C 514.545,179.717 513.878,177.717 513.5,175.5C 513.747,174.287 514.414,173.62 515.5,173.5 Z"/></g>
<g><path style="opacity:1" fill="#e8252a" d="M 530.5,168.5 C 530.833,168.5 531.167,168.5 531.5,168.5C 541.521,168.371 551.521,168.704 561.5,169.5C 563.418,172.138 566.085,173.805 569.5,174.5C 569.427,176.027 570.094,177.027 571.5,177.5C 571.427,179.027 572.094,180.027 573.5,180.5C 573.517,182.565 573.85,184.565 574.5,186.5C 573.883,186.611 573.383,186.944 573,187.5C 572.808,185.423 572.308,183.423 571.5,181.5C 569.568,180.855 568.401,179.521 568,177.5C 566.156,180.533 565.156,183.866 565,187.5C 562.965,185.088 561.965,185.755 562,189.5C 560.658,185.432 560.492,181.432 561.5,177.5C 559.897,177.312 558.563,177.812 557.5,179C 557.558,182.967 558.558,186.8 560.5,190.5C 559.494,187.327 557.494,184.993 554.5,183.5C 554.804,182.85 555.137,182.183 555.5,181.5C 552.572,180.516 549.572,180.183 546.5,180.5C 539.32,178.925 532.32,179.591 525.5,182.5C 524.432,183.434 523.099,183.768 521.5,183.5C 519.114,183.741 517.114,183.075 515.5,181.5C 515.5,178.833 515.5,176.167 515.5,173.5C 520.767,172.411 525.767,170.744 530.5,168.5 Z"/></g>
<g><path style="opacity:0.71" fill="#f6aba1" d="M 569.5,174.5 C 570.906,174.973 571.573,175.973 571.5,177.5C 570.094,177.027 569.427,176.027 569.5,174.5 Z"/></g>
<g><path style="opacity:1" fill="#da4e50" d="M 383.5,179.5 C 385.966,178.366 388.633,178.199 391.5,179C 394.115,179.612 395.781,181.112 396.5,183.5C 394.716,183.107 393.05,182.441 391.5,181.5C 389.22,179.777 386.553,179.111 383.5,179.5 Z"/></g>
<g><path style="opacity:0.824" fill="#efa4a3" d="M 449.5,175.5 C 451.61,179.502 452.943,183.835 453.5,188.5C 452.167,185.5 450.833,182.5 449.5,179.5C 449.5,178.167 449.5,176.833 449.5,175.5 Z"/></g>
<g><path style="opacity:0.427" fill="#f8adab" d="M 133.5,177.5 C 134.906,177.973 135.573,178.973 135.5,180.5C 134.094,180.027 133.427,179.027 133.5,177.5 Z"/></g>
<g><path style="opacity:0.467" fill="#eea19d" d="M 383.5,179.5 C 386.553,179.111 389.22,179.777 391.5,181.5C 385.185,180.363 378.852,180.363 372.5,181.5C 372.5,181.167 372.5,180.833 372.5,180.5C 376.099,179.656 379.766,179.323 383.5,179.5 Z"/></g>
<g><path style="opacity:0.349" fill="#f8b5b0" d="M 413.5,177.5 C 414.906,177.973 415.573,178.973 415.5,180.5C 414.094,180.027 413.427,179.027 413.5,177.5 Z"/></g>
<g><path style="opacity:0.435" fill="#f4a2a2" d="M 571.5,177.5 C 572.906,177.973 573.573,178.973 573.5,180.5C 572.094,180.027 571.427,179.027 571.5,177.5 Z"/></g>
<g><path style="opacity:1" fill="#de4946" d="M 125.5,162.5 C 128.418,167.333 131.084,172.333 133.5,177.5C 133.427,179.027 134.094,180.027 135.5,180.5C 135.631,181.376 135.298,182.043 134.5,182.5C 133.583,181.873 132.583,181.539 131.5,181.5C 129.833,180.5 128.5,179.167 127.5,177.5C 127.5,175.5 126.5,174.5 124.5,174.5C 123.5,173.167 122.5,171.833 121.5,170.5C 121.443,169.391 121.11,168.391 120.5,167.5C 122.115,169.374 124.115,170.708 126.5,171.5C 126.296,168.482 125.963,165.482 125.5,162.5 Z"/></g>
<g><path style="opacity:1" fill="#ec6862" d="M 546.5,180.5 C 549.572,180.183 552.572,180.516 555.5,181.5C 555.137,182.183 554.804,182.85 554.5,183.5C 551.743,182.488 549.076,181.488 546.5,180.5 Z"/></g>
<g><path style="opacity:0.004" fill="#f6bcb4" d="M 546.5,180.5 C 539.443,180.621 532.443,181.288 525.5,182.5C 532.32,179.591 539.32,178.925 546.5,180.5 Z"/></g>
<g><path style="opacity:1" fill="#da736d" d="M 135.5,180.5 C 137.316,182.118 138.649,184.118 139.5,186.5C 139.737,187.791 139.404,188.791 138.5,189.5C 136.196,186.859 133.862,184.192 131.5,181.5C 132.583,181.539 133.583,181.873 134.5,182.5C 135.298,182.043 135.631,181.376 135.5,180.5 Z"/></g>
<g><path style="opacity:0.945" fill="#e78e87" d="M 431.5,180.5 C 432.117,180.611 432.617,180.944 433,181.5C 433.495,183.473 433.662,185.473 433.5,187.5C 432.388,185.401 431.721,183.067 431.5,180.5 Z"/></g>
<g><path style="opacity:0.741" fill="#eab1b1" d="M 515.5,181.5 C 517.114,183.075 519.114,183.741 521.5,183.5C 518.111,186.802 516.111,186.136 515.5,181.5 Z"/></g>
<g><path style="opacity:1" fill="#e87776" d="M 396.5,183.5 C 397.5,183.5 398.5,183.5 399.5,183.5C 399.216,185.415 399.549,187.081 400.5,188.5C 400.5,189.167 400.5,189.833 400.5,190.5C 400.167,190.5 399.833,190.5 399.5,190.5C 398.688,188.055 397.688,185.722 396.5,183.5 Z"/></g>
<g><path style="opacity:0.569" fill="#f1b3b0" d="M 499.5,183.5 C 499.279,186.067 498.612,188.401 497.5,190.5C 497.5,188.833 497.5,187.167 497.5,185.5C 498.167,184.833 498.833,184.167 499.5,183.5 Z"/></g>
<g><path style="opacity:0.869" fill="#dfb5b4" d="M 139.5,186.5 C 141.829,188.841 143.829,191.508 145.5,194.5C 144.998,195.521 144.332,195.688 143.5,195C 141.627,193.296 139.96,191.463 138.5,189.5C 139.404,188.791 139.737,187.791 139.5,186.5 Z"/></g>
<g><path style="opacity:1" fill="#e36c68" d="M 181.5,185.5 C 180.737,189.37 178.737,192.37 175.5,194.5C 176.544,191.835 177.711,189.168 179,186.5C 179.671,185.748 180.504,185.414 181.5,185.5 Z"/></g>
<g><path style="opacity:1" fill="#dc4a48" d="M 431.5,175.5 C 435.4,188.042 439.233,200.709 443,213.5C 443.383,214.056 443.883,214.389 444.5,214.5C 445.998,218.307 446.998,222.307 447.5,226.5C 446.833,226.167 446.167,225.833 445.5,225.5C 445.88,223.302 445.213,221.635 443.5,220.5C 442.297,216.89 441.297,213.223 440.5,209.5C 440.323,205.292 438.99,201.626 436.5,198.5C 435.962,196.883 435.629,195.216 435.5,193.5C 435.741,191.102 435.074,189.102 433.5,187.5C 433.662,185.473 433.495,183.473 433,181.5C 432.617,180.944 432.117,180.611 431.5,180.5C 431.5,178.833 431.5,177.167 431.5,175.5 Z"/></g>
<g><path style="opacity:1" fill="#ea2026" d="M 574.5,186.5 C 574.5,208.167 574.5,229.833 574.5,251.5C 570.833,251.5 567.167,251.5 563.5,251.5C 563.946,248.99 563.28,246.99 561.5,245.5C 560.508,245.328 559.842,245.662 559.5,246.5C 554.744,247.744 550.41,249.744 546.5,252.5C 541.53,253.495 536.53,253.995 531.5,254C 527.877,252.844 524.211,251.844 520.5,251C 519.259,249.302 517.926,247.802 516.5,246.5C 516.136,244.529 515.803,242.529 515.5,240.5C 516.833,239.167 518.167,239.167 519.5,240.5C 518.477,242.895 519.477,243.895 522.5,243.5C 522.671,241.007 521.671,239.174 519.5,238C 519.833,237.667 520.167,237.333 520.5,237C 517.725,234.879 515.058,232.712 512.5,230.5C 513.833,227.833 515.833,225.833 518.5,224.5C 519.478,224.977 520.311,225.643 521,226.5C 521.27,229.224 521.77,231.891 522.5,234.5C 523.325,235.386 524.325,235.719 525.5,235.5C 525.376,238.949 527.043,240.949 530.5,241.5C 533.093,242.853 535.927,243.519 539,243.5C 540.5,243.333 542,243.167 543.5,243C 544.056,242.617 544.389,242.117 544.5,241.5C 546.698,241.88 548.365,241.213 549.5,239.5C 549.833,239.5 550.167,239.5 550.5,239.5C 552.027,239.573 553.027,238.906 553.5,237.5C 555.027,237.573 556.027,236.906 556.5,235.5C 557.5,235.5 558.5,235.5 559.5,235.5C 559.825,227.981 559.492,220.648 558.5,213.5C 557.743,210.209 557.076,206.876 556.5,203.5C 557.167,203.5 557.833,203.5 558.5,203.5C 560.43,199.627 561.097,195.294 560.5,190.5C 558.558,186.8 557.558,182.967 557.5,179C 558.563,177.812 559.897,177.312 561.5,177.5C 560.492,181.432 560.658,185.432 562,189.5C 561.965,185.755 562.965,185.088 565,187.5C 565.156,183.866 566.156,180.533 568,177.5C 568.401,179.521 569.568,180.855 571.5,181.5C 572.308,183.423 572.808,185.423 573,187.5C 573.383,186.944 573.883,186.611 574.5,186.5 Z"/></g>
<g><path style="opacity:0.506" fill="#f2b4af" d="M 433.5,187.5 C 435.074,189.102 435.741,191.102 435.5,193.5C 434.262,191.786 433.595,189.786 433.5,187.5 Z"/></g>
<g><path style="opacity:0.71" fill="#efaca5" d="M 453.5,188.5 C 454.924,190.515 455.59,192.848 455.5,195.5C 454.076,193.485 453.41,191.152 453.5,188.5 Z"/></g>
<g><path style="opacity:1" fill="#d53437" d="M 574.5,186.5 C 575.497,208.327 575.831,230.327 575.5,252.5C 570.52,253.015 565.854,252.348 561.5,250.5C 561.5,249.833 561.5,249.167 561.5,248.5C 561.5,247.5 561.5,246.5 561.5,245.5C 563.28,246.99 563.946,248.99 563.5,251.5C 567.167,251.5 570.833,251.5 574.5,251.5C 574.5,229.833 574.5,208.167 574.5,186.5 Z"/></g>
<g><path style="opacity:0.492" fill="#eb9a9a" d="M 573.5,180.5 C 574.793,181.842 575.626,183.509 576,185.5C 576.83,208.337 576.663,231.004 575.5,253.5C 575.5,253.167 575.5,252.833 575.5,252.5C 575.831,230.327 575.497,208.327 574.5,186.5C 573.85,184.565 573.517,182.565 573.5,180.5 Z"/></g>
<g><path style="opacity:0.769" fill="#f4aead" d="M 167.5,190.5 C 167.88,192.698 167.213,194.365 165.5,195.5C 165.796,193.597 166.463,191.93 167.5,190.5 Z"/></g>
<g><path style="opacity:1" fill="#e15852" d="M 554.5,183.5 C 557.494,184.993 559.494,187.327 560.5,190.5C 561.097,195.294 560.43,199.627 558.5,203.5C 559.782,200.064 559.782,196.731 558.5,193.5C 557.774,190.029 556.44,186.696 554.5,183.5 Z"/></g>
<g><path style="opacity:1" fill="#79aece" d="M 234.5,194.5 C 244.236,191.816 252.903,193.816 260.5,200.5C 255.676,199.753 251.343,197.919 247.5,195C 243.179,194.501 238.846,194.334 234.5,194.5 Z"/></g>
<g><path style="opacity:0.973" fill="#69a2c2" d="M 234.5,194.5 C 234.196,195.15 233.863,195.817 233.5,196.5C 237.5,197.167 241.5,197.833 245.5,198.5C 246.524,199.852 247.524,201.185 248.5,202.5C 241.576,198.748 234.242,197.748 226.5,199.5C 225.289,198.726 225.289,197.893 226.5,197C 228.909,195.293 231.575,194.46 234.5,194.5 Z"/></g>
<g><path style="opacity:0.784" fill="#aacce0" d="M 95.5,200.5 C 96.2625,199.732 97.2625,199.232 98.5,199C 94.8297,198.721 91.163,198.888 87.5,199.5C 93.2528,197.252 99.2528,196.585 105.5,197.5C 102.407,199.309 99.0736,200.309 95.5,200.5 Z"/></g>
<g><path style="opacity:0.431" fill="#f2aaa6" d="M 399.5,190.5 C 399.833,190.5 400.167,190.5 400.5,190.5C 401.483,194.298 401.817,198.298 401.5,202.5C 396.26,203.449 390.927,203.782 385.5,203.5C 390.034,202.784 394.701,202.117 399.5,201.5C 400.46,197.861 400.46,194.195 399.5,190.5 Z"/></g>
<g><path style="opacity:0.992" fill="#ea8985" d="M 496.5,194.5 C 496.26,199.12 495.26,203.453 493.5,207.5C 493.551,202.813 494.551,198.479 496.5,194.5 Z"/></g>
<g><path style="opacity:0.871" fill="#f1a39f" d="M 455.5,195.5 C 458.276,201.499 460.276,207.833 461.5,214.5C 460.5,212.5 459.5,210.5 458.5,208.5C 457.293,204.214 456.293,199.88 455.5,195.5 Z"/></g>
<g><path style="opacity:1" fill="#e6726b" d="M 410.5,173.5 C 412.262,174.262 413.262,175.596 413.5,177.5C 413.427,179.027 414.094,180.027 415.5,180.5C 416.6,182.277 417.434,184.277 418,186.5C 418.667,208.833 418.667,231.167 418,253.5C 413.587,254.632 409.087,254.799 404.5,254C 403.594,252.301 403.261,250.467 403.5,248.5C 403.5,247.5 403.5,246.5 403.5,245.5C 405.448,247.32 406.448,249.654 406.5,252.5C 409.833,252.5 413.167,252.5 416.5,252.5C 416.667,229.831 416.5,207.164 416,184.5C 415.722,183.584 415.222,182.918 414.5,182.5C 412.723,179.777 411.39,176.777 410.5,173.5 Z"/></g>
<g><path style="opacity:0.416" fill="#fdc3c0" d="M 436.5,198.5 C 438.99,201.626 440.323,205.292 440.5,209.5C 438.796,206.061 437.462,202.395 436.5,198.5 Z"/></g>
<g><path style="opacity:0.533" fill="#f1a09e" d="M 558.5,193.5 C 559.782,196.731 559.782,200.064 558.5,203.5C 557.833,203.5 557.167,203.5 556.5,203.5C 549.155,203.629 541.822,203.962 534.5,204.5C 541.609,202.986 548.942,202.153 556.5,202C 558.321,199.544 558.988,196.711 558.5,193.5 Z"/></g>
<g><path style="opacity:1" fill="#e36e6a" d="M 159.5,171.5 C 160.5,171.5 161.5,171.5 162.5,171.5C 162.351,172.552 162.517,173.552 163,174.5C 165.39,176.267 167.057,178.6 168,181.5C 168.667,186.167 168.667,190.833 168,195.5C 165.388,197.281 164.721,199.281 166,201.5C 167.826,200.99 167.993,200.156 166.5,199C 168.134,198.506 169.801,198.34 171.5,198.5C 169.363,201.973 166.363,204.306 162.5,205.5C 161.761,205.631 161.094,205.464 160.5,205C 161.252,204.329 161.586,203.496 161.5,202.5C 162.596,199.968 163.929,197.635 165.5,195.5C 167.213,194.365 167.88,192.698 167.5,190.5C 167.159,183.13 164.492,176.797 159.5,171.5 Z"/></g>
<g><path style="opacity:0.565" fill="#ffb3b5" d="M 384.5,203.5 C 381.946,204.388 379.279,204.721 376.5,204.5C 378.684,203.734 381.018,203.067 383.5,202.5C 384.107,202.624 384.44,202.957 384.5,203.5 Z"/></g>
<g><path style="opacity:1" fill="#589ac3" d="M 95.5,200.5 C 89.4788,202.682 83.4788,205.182 77.5,208C 73.4094,210.961 73.7428,213.128 78.5,214.5C 73.8775,215.592 72.0442,213.925 73,209.5C 74.8921,208.383 75.7254,206.716 75.5,204.5C 73.1667,204.5 70.8333,204.5 68.5,204.5C 74.4719,201.849 80.8053,200.183 87.5,199.5C 91.163,198.888 94.8297,198.721 98.5,199C 97.2625,199.232 96.2625,199.732 95.5,200.5 Z"/></g>
<g><path style="opacity:0.78" fill="#f4b3af" d="M 477.5,201.5 C 477.741,203.898 477.074,205.898 475.5,207.5C 475.595,205.214 476.262,203.214 477.5,201.5 Z"/></g>
<g><path style="opacity:0.894" fill="#e38884" d="M 376.5,204.5 C 375.5,205.167 374.5,205.833 373.5,206.5C 371.565,207.15 369.565,207.483 367.5,207.5C 370.084,205.528 373.084,204.528 376.5,204.5 Z"/></g>
<g><path style="opacity:1" fill="#d43738" d="M 401.5,202.5 C 398.663,204.402 395.329,205.069 391.5,204.5C 385.489,205.073 379.489,205.74 373.5,206.5C 374.5,205.833 375.5,205.167 376.5,204.5C 379.279,204.721 381.946,204.388 384.5,203.5C 384.833,203.5 385.167,203.5 385.5,203.5C 390.927,203.782 396.26,203.449 401.5,202.5 Z"/></g>
<g><path style="opacity:0.859" fill="#eb8b87" d="M 534.5,204.5 C 531.855,206.31 528.855,207.31 525.5,207.5C 528.084,205.528 531.084,204.528 534.5,204.5 Z"/></g>
<g><path style="opacity:0.663" fill="#dfc1be" d="M 161.5,202.5 C 161.586,203.496 161.252,204.329 160.5,205C 161.094,205.464 161.761,205.631 162.5,205.5C 161.312,206.364 160.145,207.364 159,208.5C 158.5,208 158,207.5 157.5,207C 158.733,205.333 160.067,203.833 161.5,202.5 Z"/></g>
<g><path style="opacity:1" fill="#e82329" d="M 391.5,204.5 C 389.162,206.04 386.495,206.706 383.5,206.5C 383.5,207.5 383.5,208.5 383.5,209.5C 387.835,209.229 392.002,209.895 396,211.5C 397.89,211.215 399.223,210.215 400,208.5C 401.269,209.905 401.769,211.571 401.5,213.5C 398.167,213.5 394.833,213.5 391.5,213.5C 387.818,213.335 384.152,213.501 380.5,214C 377.334,215.557 374,216.39 370.5,216.5C 369.189,221.394 368.523,226.394 368.5,231.5C 367.069,231.119 366.236,230.119 366,228.5C 365.667,230.5 365.333,232.5 365,234.5C 363.287,231.985 363.12,229.318 364.5,226.5C 365.904,227.999 366.57,227.666 366.5,225.5C 363.554,223.221 360.888,220.554 358.5,217.5C 355.738,224.518 355.404,231.518 357.5,238.5C 356.361,241.21 356.361,243.876 357.5,246.5C 356.833,246.5 356.167,246.5 355.5,246.5C 355.573,244.973 354.906,243.973 353.5,243.5C 353.483,241.435 353.15,239.435 352.5,237.5C 352.327,231.064 352.994,224.731 354.5,218.5C 357.833,215.833 360.833,212.833 363.5,209.5C 364.514,208.326 365.847,207.66 367.5,207.5C 369.565,207.483 371.565,207.15 373.5,206.5C 379.489,205.74 385.489,205.073 391.5,204.5 Z"/></g>
<g><path style="opacity:1" fill="#ea2027" d="M 449.5,179.5 C 450.833,182.5 452.167,185.5 453.5,188.5C 453.41,191.152 454.076,193.485 455.5,195.5C 456.293,199.88 457.293,204.214 458.5,208.5C 458.054,213.082 458.721,217.415 460.5,221.5C 457.821,227.048 456.821,233.048 457.5,239.5C 456.167,239.5 454.833,239.5 453.5,239.5C 452.272,238.694 451.272,237.694 450.5,236.5C 450.408,234.152 449.408,232.486 447.5,231.5C 447.5,229.833 447.5,228.167 447.5,226.5C 446.998,222.307 445.998,218.307 444.5,214.5C 443.039,204.525 441.705,194.525 440.5,184.5C 440.667,183.5 440.833,182.5 441,181.5C 441.667,183.5 442.333,185.5 443,187.5C 444.398,188.051 445.732,188.384 447,188.5C 446.93,185.008 447.763,182.008 449.5,179.5 Z"/></g>
<g><path style="opacity:1" fill="#ea2428" d="M 497.5,185.5 C 497.5,187.167 497.5,188.833 497.5,190.5C 497.768,192.099 497.434,193.432 496.5,194.5C 494.551,198.479 493.551,202.813 493.5,207.5C 493.737,208.791 493.404,209.791 492.5,210.5C 491.833,211.5 491.167,212.5 490.5,213.5C 487.547,220.225 485.214,227.225 483.5,234.5C 480.7,235.903 479.2,234.903 479,231.5C 478.19,235.774 476.356,239.44 473.5,242.5C 471.5,242.5 469.5,242.5 467.5,242.5C 467.52,240.857 466.853,239.524 465.5,238.5C 466.167,238.167 466.833,237.833 467.5,237.5C 469.05,238.732 470.717,239.232 472.5,239C 474.666,235.493 475.833,231.66 476,227.5C 476.75,226.874 477.584,226.374 478.5,226C 477.775,221.715 477.108,217.381 476.5,213C 476.833,212.5 477.167,212 477.5,211.5C 478.004,214.342 479.671,215.675 482.5,215.5C 481.669,209.521 481.003,203.521 480.5,197.5C 481.801,196.118 482.634,194.452 483,192.5C 483.446,185.811 484.113,179.144 485,172.5C 485.5,172 486,171.5 486.5,171C 490.486,170.501 494.486,170.334 498.5,170.5C 498.497,175.527 498.164,180.527 497.5,185.5 Z"/></g>
<g><path style="opacity:0.835" fill="#b0cee2" d="M 212.5,212.5 C 211.082,210.692 209.082,210.025 206.5,210.5C 208.984,209.631 211.651,208.964 214.5,208.5C 215.167,208.833 215.833,209.167 216.5,209.5C 215.533,210.984 214.2,211.984 212.5,212.5 Z"/></g>
<g><path style="opacity:1" fill="#68a2c9" d="M 206.5,210.5 C 209.082,210.025 211.082,210.692 212.5,212.5C 202.568,218.888 191.568,221.888 179.5,221.5C 179.5,221.167 179.5,220.833 179.5,220.5C 184.947,218.882 190.613,218.048 196.5,218C 199.671,216.402 203.004,215.068 206.5,214C 204.13,212.964 201.63,212.464 199,212.5C 194.181,213.091 189.348,213.424 184.5,213.5C 191.632,212.024 198.966,211.024 206.5,210.5 Z"/></g>
<g><path style="opacity:0.761" fill="#eca19a" d="M 363.5,209.5 C 360.833,212.833 357.833,215.833 354.5,218.5C 356.5,214.5 359.5,211.5 363.5,209.5 Z"/></g>
<g><path style="opacity:1" fill="#1889c4" d="M 234.5,194.5 C 238.846,194.334 243.179,194.501 247.5,195C 251.343,197.919 255.676,199.753 260.5,200.5C 261.037,202.711 262.037,204.711 263.5,206.5C 262.295,208.121 262.461,209.454 264,210.5C 264.308,209.692 264.808,209.025 265.5,208.5C 267.649,213.029 267.982,217.695 266.5,222.5C 264.769,225.963 263.102,229.296 261.5,232.5C 260.5,232.5 259.5,232.5 258.5,232.5C 258.587,235.598 258.087,235.932 257,233.5C 256.503,235.81 256.337,238.143 256.5,240.5C 253.856,240.84 251.523,240.173 249.5,238.5C 248.614,239.325 248.281,240.325 248.5,241.5C 252.5,241.833 252.5,242.167 248.5,242.5C 248.5,243.5 248.5,244.5 248.5,245.5C 245.792,246.449 243.126,246.449 240.5,245.5C 242.733,242.785 244.4,239.785 245.5,236.5C 248.377,235.089 251.044,234.089 253.5,233.5C 252.211,230.849 252.711,228.516 255,226.5C 255.5,219.842 255.666,213.175 255.5,206.5C 254.5,206.5 253.5,206.5 252.5,206.5C 250.833,205.5 249.5,204.167 248.5,202.5C 247.524,201.185 246.524,199.852 245.5,198.5C 241.5,197.833 237.5,197.167 233.5,196.5C 233.863,195.817 234.196,195.15 234.5,194.5 Z"/></g>
<g><path style="opacity:0.004" fill="#fac8c1" d="M 492.5,210.5 C 492.277,214.162 491.277,217.495 489.5,220.5C 489.674,218.139 490.007,215.806 490.5,213.5C 491.167,212.5 491.833,211.5 492.5,210.5 Z"/></g>
<g><path style="opacity:1" fill="#e57474" d="M 525.5,207.5 C 525.092,208.643 524.425,209.643 523.5,210.5C 520.178,212.818 516.845,215.151 513.5,217.5C 515.964,212.373 519.964,209.04 525.5,207.5 Z"/></g>
<g><path style="opacity:0.992" fill="#6da4c9" d="M 58.5,208.5 C 58.5,209.5 58.5,210.5 58.5,211.5C 52.3873,212.293 51.3873,214.793 55.5,219C 57.3146,219.757 58.9812,220.59 60.5,221.5C 57.3117,221.382 54.3117,220.549 51.5,219C 48.7348,216.034 49.0682,213.367 52.5,211C 54.4068,209.878 56.4068,209.045 58.5,208.5 Z"/></g>
<g><path style="opacity:0.855" fill="#adc9db" d="M 84.5,215.5 C 92.3333,215.937 100,216.604 107.5,217.5C 106.167,217.5 104.833,217.5 103.5,217.5C 98.1563,217.666 92.8229,217.499 87.5,217C 86.2625,216.768 85.2625,216.268 84.5,215.5 Z"/></g>
<g><path style="opacity:1" fill="#6da6c9" d="M 184.5,213.5 C 184.389,214.117 184.056,214.617 183.5,215C 156.939,218.054 130.272,219.221 103.5,218.5C 103.5,218.167 103.5,217.833 103.5,217.5C 104.833,217.5 106.167,217.5 107.5,217.5C 133.228,217.318 158.894,215.985 184.5,213.5 Z"/></g>
<g><path style="opacity:1" fill="#da4c49" d="M 490.5,213.5 C 490.007,215.806 489.674,218.139 489.5,220.5C 488.262,222.214 487.595,224.214 487.5,226.5C 487.405,228.786 486.738,230.786 485.5,232.5C 484.833,233.167 484.167,233.833 483.5,234.5C 485.214,227.225 487.547,220.225 490.5,213.5 Z"/></g>
<g><path style="opacity:0.004" fill="#fddcd5" d="M 542.5,214.5 C 543.5,214.5 544.5,214.5 545.5,214.5C 541.917,215.386 538.25,216.386 534.5,217.5C 534.5,217.167 534.5,216.833 534.5,216.5C 536.993,215.226 539.659,214.56 542.5,214.5 Z"/></g>
<g><path style="opacity:1" fill="#ed807b" d="M 391.5,213.5 C 391.5,213.833 391.5,214.167 391.5,214.5C 385.037,214.683 379.037,216.35 373.5,219.5C 370.168,223.165 368.835,227.498 369.5,232.5C 368.833,232.5 368.5,232.167 368.5,231.5C 368.523,226.394 369.189,221.394 370.5,216.5C 374,216.39 377.334,215.557 380.5,214C 384.152,213.501 387.818,213.335 391.5,213.5 Z"/></g>
<g><path style="opacity:1" fill="#e76d68" d="M 534.5,216.5 C 534.5,216.833 534.5,217.167 534.5,217.5C 529.3,221.074 526.967,226.074 527.5,232.5C 526.357,229.024 526.19,225.358 527,221.5C 528.883,220.347 529.716,218.681 529.5,216.5C 531.167,216.5 532.833,216.5 534.5,216.5 Z"/></g>
<g><path style="opacity:1" fill="#1688c3" d="M 179.5,220.5 C 172.499,219.939 165.499,219.772 158.5,220C 159.167,220.667 159.833,221.333 160.5,222C 149.473,222.74 138.473,222.574 127.5,221.5C 127.5,222.5 127.5,223.5 127.5,224.5C 117.828,224.666 108.161,224.5 98.5,224C 96.7536,223.529 95.087,222.862 93.5,222C 97.6192,221.857 101.619,221.19 105.5,220C 104.584,219.722 103.918,219.222 103.5,218.5C 130.272,219.221 156.939,218.054 183.5,215C 184.056,214.617 184.389,214.117 184.5,213.5C 189.348,213.424 194.181,213.091 199,212.5C 201.63,212.464 204.13,212.964 206.5,214C 203.004,215.068 199.671,216.402 196.5,218C 190.613,218.048 184.947,218.882 179.5,220.5 Z"/></g>
<g><path style="opacity:0.314" fill="#fbb8b4" d="M 513.5,217.5 C 513.573,219.027 512.906,220.027 511.5,220.5C 511.427,218.973 512.094,217.973 513.5,217.5 Z"/></g>
<g><path style="opacity:0.557" fill="#e78a8c" d="M 542.5,214.5 C 547.64,213.512 552.974,213.179 558.5,213.5C 559.492,220.648 559.825,227.981 559.5,235.5C 558.5,235.5 557.5,235.5 556.5,235.5C 556.783,234.711 557.283,234.044 558,233.5C 558.5,227.175 558.666,220.842 558.5,214.5C 554.167,214.5 549.833,214.5 545.5,214.5C 544.5,214.5 543.5,214.5 542.5,214.5 Z"/></g>
<g><path style="opacity:1" fill="#348ec5" d="M 68.5,204.5 C 70.8333,204.5 73.1667,204.5 75.5,204.5C 75.7254,206.716 74.8921,208.383 73,209.5C 72.0442,213.925 73.8775,215.592 78.5,214.5C 80.6208,214.325 82.6208,214.659 84.5,215.5C 85.2625,216.268 86.2625,216.768 87.5,217C 92.8229,217.499 98.1563,217.666 103.5,217.5C 103.5,217.833 103.5,218.167 103.5,218.5C 103.918,219.222 104.584,219.722 105.5,220C 101.619,221.19 97.6192,221.857 93.5,222C 95.087,222.862 96.7536,223.529 98.5,224C 108.161,224.5 117.828,224.666 127.5,224.5C 127.5,223.5 127.5,222.5 127.5,221.5C 138.473,222.574 149.473,222.74 160.5,222C 159.833,221.333 159.167,220.667 158.5,220C 165.499,219.772 172.499,219.939 179.5,220.5C 179.5,220.833 179.5,221.167 179.5,221.5C 179.167,221.5 178.833,221.5 178.5,221.5C 172.611,221.45 166.944,222.116 161.5,223.5C 156.234,223.189 151.234,223.855 146.5,225.5C 124.755,226.99 103.088,226.656 81.5,224.5C 81.3893,223.883 81.056,223.383 80.5,223C 73.8363,222.389 67.1697,221.889 60.5,221.5C 58.9812,220.59 57.3146,219.757 55.5,219C 51.3873,214.793 52.3873,212.293 58.5,211.5C 58.5,210.5 58.5,209.5 58.5,208.5C 61.3695,206.206 64.7029,204.872 68.5,204.5 Z"/></g>
<g><path style="opacity:0.616" fill="#98c3df" d="M 178.5,221.5 C 173.056,222.884 167.389,223.55 161.5,223.5C 166.944,222.116 172.611,221.45 178.5,221.5 Z"/></g>
<g><path style="opacity:0.476" fill="#f3a5a3" d="M 391.5,214.5 C 391.5,214.167 391.5,213.833 391.5,213.5C 394.833,213.5 398.167,213.5 401.5,213.5C 401.824,220.354 401.491,227.021 400.5,233.5C 400.5,227.167 400.5,220.833 400.5,214.5C 397.5,214.5 394.5,214.5 391.5,214.5 Z"/></g>
<g><path style="opacity:0.988" fill="#6ca3c6" d="M 60.5,221.5 C 67.1697,221.889 73.8363,222.389 80.5,223C 81.056,223.383 81.3893,223.883 81.5,224.5C 74.2508,224.322 67.2508,223.322 60.5,221.5 Z"/></g>
<g><path style="opacity:1" fill="#eb1f23" d="M 401.5,237.5 C 402.813,229.401 402.813,221.401 401.5,213.5C 401.769,211.571 401.269,209.905 400,208.5C 399.223,210.215 397.89,211.215 396,211.5C 392.002,209.895 387.835,209.229 383.5,209.5C 383.5,208.5 383.5,207.5 383.5,206.5C 386.495,206.706 389.162,206.04 391.5,204.5C 395.329,205.069 398.663,204.402 401.5,202.5C 402.738,201.588 404.072,201.421 405.5,202C 404.833,202.333 404.167,202.667 403.5,203C 404.387,208.872 405.554,214.705 407,220.5C 407.368,219.09 408.201,218.09 409.5,217.5C 410.318,219.108 410.985,220.775 411.5,222.5C 409.995,223.842 409.328,225.508 409.5,227.5C 408.5,227.5 407.5,227.5 406.5,227.5C 405.728,231.452 405.395,235.452 405.5,239.5C 406.822,239.67 407.989,239.337 409,238.5C 409.06,234.609 410.393,231.275 413,228.5C 414.226,222.185 414.726,215.851 414.5,209.5C 415.833,219.167 415.833,228.833 414.5,238.5C 413.833,236.833 413.167,235.167 412.5,233.5C 411.52,236.086 411.187,238.753 411.5,241.5C 409.208,241.244 407.041,241.577 405,242.5C 402.828,241.491 401.662,239.824 401.5,237.5 Z"/></g>
<g><path style="opacity:0.388" fill="#fac4c0" d="M 443.5,220.5 C 445.213,221.635 445.88,223.302 445.5,225.5C 444.463,224.07 443.796,222.403 443.5,220.5 Z"/></g>
<g><path style="opacity:1" fill="#e92228" d="M 414.5,182.5 C 415.222,182.918 415.722,183.584 416,184.5C 416.5,207.164 416.667,229.831 416.5,252.5C 413.167,252.5 409.833,252.5 406.5,252.5C 406.448,249.654 405.448,247.32 403.5,245.5C 402.833,245.5 402.167,245.5 401.5,245.5C 398.13,245.629 396.13,247.295 395.5,250.5C 391.076,251.456 386.743,252.623 382.5,254C 377.845,254.499 373.179,254.666 368.5,254.5C 367.01,252.72 365.01,252.054 362.5,252.5C 361.833,251.5 361.167,250.5 360.5,249.5C 362.137,250.218 363.803,250.384 365.5,250C 367.896,244.872 371.396,244.039 376,247.5C 375.848,249.076 375.015,250.409 373.5,251.5C 375.856,252.294 378.189,251.961 380.5,250.5C 382.14,247.147 381.14,245.147 377.5,244.5C 382.114,245.232 386.114,244.232 389.5,241.5C 391.5,240.833 393.5,240.167 395.5,239.5C 397.579,239.029 399.579,238.363 401.5,237.5C 401.662,239.824 402.828,241.491 405,242.5C 407.041,241.577 409.208,241.244 411.5,241.5C 411.187,238.753 411.52,236.086 412.5,233.5C 413.167,235.167 413.833,236.833 414.5,238.5C 415.833,228.833 415.833,219.167 414.5,209.5C 414.726,215.851 414.226,222.185 413,228.5C 410.393,231.275 409.06,234.609 409,238.5C 407.989,239.337 406.822,239.67 405.5,239.5C 405.395,235.452 405.728,231.452 406.5,227.5C 407.5,227.5 408.5,227.5 409.5,227.5C 409.328,225.508 409.995,223.842 411.5,222.5C 410.985,220.775 410.318,219.108 409.5,217.5C 408.201,218.09 407.368,219.09 407,220.5C 405.554,214.705 404.387,208.872 403.5,203C 404.167,202.667 404.833,202.333 405.5,202C 404.072,201.421 402.738,201.588 401.5,202.5C 401.817,198.298 401.483,194.298 400.5,190.5C 400.5,189.833 400.5,189.167 400.5,188.5C 401.117,188.611 401.617,188.944 402,189.5C 402.62,193.221 403.453,196.888 404.5,200.5C 405.298,198.922 405.798,197.256 406,195.5C 408.705,200.77 410.038,206.437 410,212.5C 411.122,209.691 411.622,206.691 411.5,203.5C 411.333,200.833 411.167,198.167 411,195.5C 408.985,193.522 409.152,191.688 411.5,190C 409.164,187.952 409.164,186.118 411.5,184.5C 413.62,185.872 414.62,185.205 414.5,182.5 Z"/></g>
<g><path style="opacity:0.004" fill="#ffd4d2" d="M 489.5,220.5 C 489.741,222.898 489.074,224.898 487.5,226.5C 487.595,224.214 488.262,222.214 489.5,220.5 Z"/></g>
<g><path style="opacity:0.005" fill="#d4e7f1" d="M 161.5,223.5 C 156.75,225.031 151.75,225.698 146.5,225.5C 151.234,223.855 156.234,223.189 161.5,223.5 Z"/></g>
<g><path style="opacity:1" fill="#67a4ca" d="M 260.5,200.5 C 270.058,208.58 271.891,218.247 266,229.5C 263.716,233.949 260.549,237.616 256.5,240.5C 256.337,238.143 256.503,235.81 257,233.5C 258.087,235.932 258.587,235.598 258.5,232.5C 259.5,232.5 260.5,232.5 261.5,232.5C 263.102,229.296 264.769,225.963 266.5,222.5C 267.982,217.695 267.649,213.029 265.5,208.5C 264.808,209.025 264.308,209.692 264,210.5C 262.461,209.454 262.295,208.121 263.5,206.5C 262.037,204.711 261.037,202.711 260.5,200.5 Z"/></g>
<g><path style="opacity:1" fill="#e88882" d="M 354.5,218.5 C 352.994,224.731 352.327,231.064 352.5,237.5C 352.167,237.5 351.833,237.5 351.5,237.5C 349.667,230.626 350.667,224.293 354.5,218.5 Z"/></g>
<g><path style="opacity:1" fill="#e82228" d="M 556.5,203.5 C 557.076,206.876 557.743,210.209 558.5,213.5C 552.974,213.179 547.64,213.512 542.5,214.5C 539.659,214.56 536.993,215.226 534.5,216.5C 532.833,216.5 531.167,216.5 529.5,216.5C 529.716,218.681 528.883,220.347 527,221.5C 526.19,225.358 526.357,229.024 527.5,232.5C 527.338,234.527 527.505,236.527 528,238.5C 529.417,239.078 530.25,240.078 530.5,241.5C 527.043,240.949 525.376,238.949 525.5,235.5C 524.325,235.719 523.325,235.386 522.5,234.5C 521.77,231.891 521.27,229.224 521,226.5C 520.311,225.643 519.478,224.977 518.5,224.5C 515.833,225.833 513.833,227.833 512.5,230.5C 515.058,232.712 517.725,234.879 520.5,237C 520.167,237.333 519.833,237.667 519.5,238C 521.671,239.174 522.671,241.007 522.5,243.5C 519.477,243.895 518.477,242.895 519.5,240.5C 518.167,239.167 516.833,239.167 515.5,240.5C 515.803,242.529 516.136,244.529 516.5,246.5C 515.167,246.167 513.833,245.833 512.5,245.5C 512.5,245.167 512.5,244.833 512.5,244.5C 512.923,242.219 512.256,240.552 510.5,239.5C 510.347,233.131 510.68,226.797 511.5,220.5C 512.906,220.027 513.573,219.027 513.5,217.5C 516.845,215.151 520.178,212.818 523.5,210.5C 524.425,209.643 525.092,208.643 525.5,207.5C 528.855,207.31 531.855,206.31 534.5,204.5C 541.822,203.962 549.155,203.629 556.5,203.5 Z"/></g>
<g><path style="opacity:0.753" fill="#ec9f9c" d="M 445.5,225.5 C 446.167,225.833 446.833,226.167 447.5,226.5C 447.5,228.167 447.5,229.833 447.5,231.5C 446.262,229.786 445.595,227.786 445.5,225.5 Z"/></g>
<g><path style="opacity:1" fill="#67a4cb" d="M 252.5,206.5 C 253.5,206.5 254.5,206.5 255.5,206.5C 255.666,213.175 255.5,219.842 255,226.5C 252.711,228.516 252.211,230.849 253.5,233.5C 251.044,234.089 248.377,235.089 245.5,236.5C 249.089,232.328 251.922,227.661 254,222.5C 254.93,216.986 254.43,211.652 252.5,206.5 Z"/></g>
<g><path style="opacity:0.871" fill="#f1a19b" d="M 511.5,220.5 C 510.68,226.797 510.347,233.131 510.5,239.5C 507.763,233.042 508.097,226.709 511.5,220.5 Z"/></g>
<g><path style="opacity:1" fill="#ea2025" d="M 368.5,231.5 C 368.5,232.167 368.833,232.5 369.5,232.5C 369.338,234.527 369.505,236.527 370,238.5C 371.011,239.337 372.178,239.67 373.5,239.5C 373.328,240.492 373.662,241.158 374.5,241.5C 375.694,242.272 376.694,243.272 377.5,244.5C 381.14,245.147 382.14,247.147 380.5,250.5C 378.189,251.961 375.856,252.294 373.5,251.5C 375.015,250.409 375.848,249.076 376,247.5C 371.396,244.039 367.896,244.872 365.5,250C 363.803,250.384 362.137,250.218 360.5,249.5C 359.5,248.5 358.5,247.5 357.5,246.5C 356.361,243.876 356.361,241.21 357.5,238.5C 355.404,231.518 355.738,224.518 358.5,217.5C 360.888,220.554 363.554,223.221 366.5,225.5C 366.57,227.666 365.904,227.999 364.5,226.5C 363.12,229.318 363.287,231.985 365,234.5C 365.333,232.5 365.667,230.5 366,228.5C 366.236,230.119 367.069,231.119 368.5,231.5 Z"/></g>
<g><path style="opacity:0.969" fill="#e5827a" d="M 447.5,231.5 C 449.408,232.486 450.408,234.152 450.5,236.5C 450.5,237.833 450.5,239.167 450.5,240.5C 448.928,237.785 447.928,234.785 447.5,231.5 Z"/></g>
<g><path style="opacity:0.345" fill="#fabdbb" d="M 485.5,232.5 C 485.598,234.553 484.931,236.22 483.5,237.5C 483.5,236.5 483.5,235.5 483.5,234.5C 484.167,233.833 484.833,233.167 485.5,232.5 Z"/></g>
<g><path style="opacity:0.659" fill="#c5dae3" d="M 88.5,236.5 C 90.0348,235.212 91.7015,235.212 93.5,236.5C 93.1445,237.522 92.4778,238.189 91.5,238.5C 91.1788,236.952 90.1788,236.285 88.5,236.5 Z"/></g>
<g><path style="opacity:1" fill="#dd3b3d" d="M 401.5,213.5 C 402.813,221.401 402.813,229.401 401.5,237.5C 399.579,238.363 397.579,239.029 395.5,239.5C 395.5,238.833 395.5,238.167 395.5,237.5C 396.945,235.937 398.611,234.604 400.5,233.5C 401.491,227.021 401.824,220.354 401.5,213.5 Z"/></g>
<g><path style="opacity:0.588" fill="#f8aeaa" d="M 556.5,235.5 C 556.027,236.906 555.027,237.573 553.5,237.5C 553.973,236.094 554.973,235.427 556.5,235.5 Z"/></g>
<g><path style="opacity:1" fill="#e26e74" d="M 369.5,232.5 C 370.551,234.929 371.884,237.262 373.5,239.5C 372.178,239.67 371.011,239.337 370,238.5C 369.505,236.527 369.338,234.527 369.5,232.5 Z"/></g>
<g><path style="opacity:1" fill="#e9272b" d="M 478.5,197.5 C 479.167,197.5 479.833,197.5 480.5,197.5C 481.003,203.521 481.669,209.521 482.5,215.5C 479.671,215.675 478.004,214.342 477.5,211.5C 477.167,212 476.833,212.5 476.5,213C 477.108,217.381 477.775,221.715 478.5,226C 477.584,226.374 476.75,226.874 476,227.5C 475.833,231.66 474.666,235.493 472.5,239C 470.717,239.232 469.05,238.732 467.5,237.5C 466.833,237.833 466.167,238.167 465.5,238.5C 466.853,239.524 467.52,240.857 467.5,242.5C 469.5,242.5 471.5,242.5 473.5,242.5C 476.356,239.44 478.19,235.774 479,231.5C 479.2,234.903 480.7,235.903 483.5,234.5C 483.5,235.5 483.5,236.5 483.5,237.5C 483.5,237.833 483.5,238.167 483.5,238.5C 482.833,238.833 482.167,239.167 481.5,239.5C 480.293,242.272 478.793,244.938 477,247.5C 476.506,249.134 476.34,250.801 476.5,252.5C 469.833,252.5 463.167,252.5 456.5,252.5C 456.285,250.226 455.618,248.059 454.5,246C 454.645,244.774 454.978,243.607 455.5,242.5C 454.807,241.482 454.141,240.482 453.5,239.5C 454.833,239.5 456.167,239.5 457.5,239.5C 456.821,233.048 457.821,227.048 460.5,221.5C 458.721,217.415 458.054,213.082 458.5,208.5C 459.5,210.5 460.5,212.5 461.5,214.5C 461.41,217.152 462.076,219.485 463.5,221.5C 463.259,223.898 463.926,225.898 465.5,227.5C 466.301,229.042 466.634,230.708 466.5,232.5C 466.775,234.842 467.608,234.842 469,232.5C 469.49,231.207 469.657,229.873 469.5,228.5C 469.5,228.167 469.5,227.833 469.5,227.5C 473.028,223.295 474.694,218.295 474.5,212.5C 474.366,210.708 474.699,209.042 475.5,207.5C 477.074,205.898 477.741,203.898 477.5,201.5C 477.232,199.901 477.566,198.568 478.5,197.5 Z"/></g>
<g><path style="opacity:0.133" fill="#f5bdb9" d="M 469.5,228.5 C 469.657,229.873 469.49,231.207 469,232.5C 467.608,234.842 466.775,234.842 466.5,232.5C 467.857,231.41 468.857,230.076 469.5,228.5 Z"/></g>
<g><path style="opacity:0.671" fill="#f1bbb6" d="M 463.5,221.5 C 464.738,223.214 465.405,225.214 465.5,227.5C 463.926,225.898 463.259,223.898 463.5,221.5 Z"/></g>
<g><path style="opacity:0.804" fill="#eb958f" d="M 474.5,212.5 C 474.694,218.295 473.028,223.295 469.5,227.5C 470.997,222.341 472.664,217.341 474.5,212.5 Z"/></g>
<g><path style="opacity:0.729" fill="#f0b1a9" d="M 461.5,214.5 C 462.924,216.515 463.59,218.848 463.5,221.5C 462.076,219.485 461.41,217.152 461.5,214.5 Z"/></g>
<g><path style="opacity:1" fill="#e57772" d="M 527.5,232.5 C 530.588,239.883 536.254,242.883 544.5,241.5C 544.389,242.117 544.056,242.617 543.5,243C 542,243.167 540.5,243.333 539,243.5C 535.927,243.519 533.093,242.853 530.5,241.5C 530.25,240.078 529.417,239.078 528,238.5C 527.505,236.527 527.338,234.527 527.5,232.5 Z"/></g>
<g><path style="opacity:0.682" fill="#f0a7a7" d="M 553.5,237.5 C 553.027,238.906 552.027,239.573 550.5,239.5C 550.973,238.094 551.973,237.427 553.5,237.5 Z"/></g>
<g><path style="opacity:0.439" fill="#f5bfbc" d="M 351.5,237.5 C 351.833,237.5 352.167,237.5 352.5,237.5C 353.15,239.435 353.483,241.435 353.5,243.5C 352.262,241.786 351.595,239.786 351.5,237.5 Z"/></g>
<g><path style="opacity:0.702" fill="#f1a69f" d="M 373.5,239.5 C 375.153,239.66 376.486,240.326 377.5,241.5C 376.5,241.5 375.5,241.5 374.5,241.5C 373.662,241.158 373.328,240.492 373.5,239.5 Z"/></g>
<g><path style="opacity:0.988" fill="#e58882" d="M 395.5,237.5 C 395.5,238.167 395.5,238.833 395.5,239.5C 393.5,240.167 391.5,240.833 389.5,241.5C 388.833,241.5 388.167,241.5 387.5,241.5C 389.849,239.659 392.515,238.326 395.5,237.5 Z"/></g>
<g><path style="opacity:0.341" fill="#fac1bb" d="M 483.5,238.5 C 483.34,240.153 482.674,241.486 481.5,242.5C 481.5,241.5 481.5,240.5 481.5,239.5C 482.167,239.167 482.833,238.833 483.5,238.5 Z"/></g>
<g><path style="opacity:1" fill="#e87e79" d="M 510.5,239.5 C 512.256,240.552 512.923,242.219 512.5,244.5C 511.069,243.22 510.402,241.553 510.5,239.5 Z"/></g>
<g><path style="opacity:0.706" fill="#f4bbb1" d="M 549.5,239.5 C 548.365,241.213 546.698,241.88 544.5,241.5C 545.93,240.463 547.597,239.796 549.5,239.5 Z"/></g>
<g><path style="opacity:1" fill="#e16258" d="M 374.5,241.5 C 375.5,241.5 376.5,241.5 377.5,241.5C 380.833,241.5 384.167,241.5 387.5,241.5C 388.167,241.5 388.833,241.5 389.5,241.5C 386.114,244.232 382.114,245.232 377.5,244.5C 376.694,243.272 375.694,242.272 374.5,241.5 Z"/></g>
<g><path style="opacity:1" fill="#ea6c62" d="M 450.5,236.5 C 451.272,237.694 452.272,238.694 453.5,239.5C 454.141,240.482 454.807,241.482 455.5,242.5C 454.978,243.607 454.645,244.774 454.5,246C 455.618,248.059 456.285,250.226 456.5,252.5C 463.167,252.5 469.833,252.5 476.5,252.5C 476.389,253.117 476.056,253.617 475.5,254C 468.5,254.667 461.5,254.667 454.5,254C 453.663,252.989 453.33,251.822 453.5,250.5C 453.946,247.99 453.28,245.99 451.5,244.5C 450.566,243.432 450.232,242.099 450.5,240.5C 450.5,239.167 450.5,237.833 450.5,236.5 Z"/></g>
<g><path style="opacity:0.22" fill="#f6c0ba" d="M 353.5,243.5 C 354.906,243.973 355.573,244.973 355.5,246.5C 354.094,246.027 353.427,245.027 353.5,243.5 Z"/></g>
<g><path style="opacity:1" fill="#569ac5" d="M 245.5,236.5 C 244.4,239.785 242.733,242.785 240.5,245.5C 243.126,246.449 245.792,246.449 248.5,245.5C 248.5,244.5 248.5,243.5 248.5,242.5C 252.5,242.167 252.5,241.833 248.5,241.5C 248.281,240.325 248.614,239.325 249.5,238.5C 251.523,240.173 253.856,240.84 256.5,240.5C 248.605,247.286 239.605,252.286 229.5,255.5C 227.801,255.66 226.134,255.494 224.5,255C 225.056,254.617 225.389,254.117 225.5,253.5C 232.729,248.613 239.396,242.946 245.5,236.5 Z"/></g>
<g><path style="opacity:1" fill="#e26a67" d="M 401.5,245.5 C 401.5,245.833 401.5,246.167 401.5,246.5C 399.853,248.326 397.853,249.66 395.5,250.5C 396.13,247.295 398.13,245.629 401.5,245.5 Z"/></g>
<g><path style="opacity:0.784" fill="#e99388" d="M 451.5,244.5 C 453.28,245.99 453.946,247.99 453.5,250.5C 452.262,248.786 451.595,246.786 451.5,244.5 Z"/></g>
<g><path style="opacity:0.996" fill="#e77774" d="M 559.5,246.5 C 556.165,249.839 552.165,252.172 547.5,253.5C 547.167,253.5 546.833,253.5 546.5,253.5C 546.5,253.167 546.5,252.833 546.5,252.5C 550.41,249.744 554.744,247.744 559.5,246.5 Z"/></g>
<g><path style="opacity:1" fill="#6aa4c9" d="M 191.5,244.5 C 186.383,244.764 181.383,245.597 176.5,247C 179.063,247.763 179.063,248.263 176.5,248.5C 170.541,247.586 164.541,247.253 158.5,247.5C 168.204,246.329 178.038,244.996 188,243.5C 189.385,243.514 190.551,243.848 191.5,244.5 Z"/></g>
<g><path style="opacity:1" fill="#e3716a" d="M 355.5,246.5 C 356.167,246.5 356.833,246.5 357.5,246.5C 358.5,247.5 359.5,248.5 360.5,249.5C 361.167,250.5 361.833,251.5 362.5,252.5C 359.547,251.213 357.214,249.213 355.5,246.5 Z"/></g>
<g><path style="opacity:0.004" fill="#ffeedc" d="M 401.5,246.5 C 401.5,246.167 401.5,245.833 401.5,245.5C 402.167,245.5 402.833,245.5 403.5,245.5C 403.5,246.5 403.5,247.5 403.5,248.5C 402.833,247.833 402.167,247.167 401.5,246.5 Z"/></g>
<g><path style="opacity:0.008" fill="#ffe3de" d="M 559.5,246.5 C 559.842,245.662 560.508,245.328 561.5,245.5C 561.5,246.5 561.5,247.5 561.5,248.5C 560.833,247.833 560.167,247.167 559.5,246.5 Z"/></g>
<g><path style="opacity:0.218" fill="#b0d5ec" d="M 99.5,248.5 C 99.5,248.167 99.5,247.833 99.5,247.5C 111.48,248.338 123.48,248.672 135.5,248.5C 123.654,249.71 111.654,249.71 99.5,248.5 Z"/></g>
<g><path style="opacity:1" fill="#e36d6a" d="M 481.5,239.5 C 481.5,240.5 481.5,241.5 481.5,242.5C 480.325,246.183 478.659,249.516 476.5,252.5C 476.34,250.801 476.506,249.134 477,247.5C 478.793,244.938 480.293,242.272 481.5,239.5 Z"/></g>
<g><path style="opacity:1" fill="#268ac3" d="M 191.5,244.5 C 192.5,245.167 193.5,245.833 194.5,246.5C 195.72,248.282 196.386,250.282 196.5,252.5C 193.715,251.916 192.048,252.916 191.5,255.5C 191.167,255.5 190.833,255.5 190.5,255.5C 182.888,256.589 175.221,257.255 167.5,257.5C 165.907,256.652 164.74,255.319 164,253.5C 163.581,254.672 162.915,255.672 162,256.5C 160.342,254.38 158.675,252.38 157,250.5C 154.542,251.08 152.042,251.414 149.5,251.5C 132.477,251.261 115.811,250.261 99.5,248.5C 111.654,249.71 123.654,249.71 135.5,248.5C 143.154,247.93 150.821,247.596 158.5,247.5C 164.541,247.253 170.541,247.586 176.5,248.5C 179.063,248.263 179.063,247.763 176.5,247C 181.383,245.597 186.383,244.764 191.5,244.5 Z"/></g>
<g><path style="opacity:0.757" fill="#fccfce" d="M 320.5,139.5 C 320.5,175.833 320.5,212.167 320.5,248.5C 320.5,249.833 320.5,251.167 320.5,252.5C 319.935,254.42 318.935,256.087 317.5,257.5C 317.995,255.518 318.495,253.518 319,251.5C 319.167,213.998 319.667,176.664 320.5,139.5 Z"/></g>
<g><path style="opacity:1" fill="#6aa6c7" d="M 194.5,246.5 C 197.321,248.412 200.321,250.079 203.5,251.5C 199.696,253.435 195.696,254.768 191.5,255.5C 192.048,252.916 193.715,251.916 196.5,252.5C 196.386,250.282 195.72,248.282 194.5,246.5 Z"/></g>
<g><path style="opacity:1" fill="#eb847e" d="M 395.5,250.5 C 387.121,256.503 378.121,257.836 368.5,254.5C 373.179,254.666 377.845,254.499 382.5,254C 386.743,252.623 391.076,251.456 395.5,250.5 Z"/></g>
<g><path style="opacity:0.808" fill="#ed9593" d="M 561.5,250.5 C 565.854,252.348 570.52,253.015 575.5,252.5C 575.5,252.833 575.5,253.167 575.5,253.5C 571.354,254.647 567.02,254.814 562.5,254C 561.663,252.989 561.33,251.822 561.5,250.5 Z"/></g>
<g><path style="opacity:1" fill="#248bc4" d="M 88.5,236.5 C 90.1788,236.285 91.1788,236.952 91.5,238.5C 90.5269,240.068 90.3603,241.735 91,243.5C 93.4557,245.654 96.2891,246.987 99.5,247.5C 99.5,247.833 99.5,248.167 99.5,248.5C 115.811,250.261 132.477,251.261 149.5,251.5C 152.042,251.414 154.542,251.08 157,250.5C 158.675,252.38 160.342,254.38 162,256.5C 162.915,255.672 163.581,254.672 164,253.5C 164.74,255.319 165.907,256.652 167.5,257.5C 162.963,259.257 158.296,260.59 153.5,261.5C 145.401,262.813 137.401,262.813 129.5,261.5C 123.355,260.51 117.022,260.177 110.5,260.5C 110.167,260.5 109.833,260.5 109.5,260.5C 105.081,259.028 100.414,258.362 95.5,258.5C 95.1667,258.5 94.8333,258.5 94.5,258.5C 92.6221,257.792 90.9555,256.626 89.5,255C 84.2587,255.084 80.5921,252.751 78.5,248C 78.7094,246.129 79.7094,244.962 81.5,244.5C 82.4519,242.955 82.7852,241.288 82.5,239.5C 84.0326,237.755 86.0326,236.755 88.5,236.5 Z"/></g>
<g><path style="opacity:0.694" fill="#e4908a" d="M 362.5,252.5 C 365.01,252.054 367.01,252.72 368.5,254.5C 366.102,254.741 364.102,254.074 362.5,252.5 Z"/></g>
<g><path style="opacity:0.749" fill="#f1aba6" d="M 522.5,253.5 C 525.152,253.41 527.485,254.076 529.5,255.5C 526.848,255.59 524.515,254.924 522.5,253.5 Z"/></g>
<g><path style="opacity:1" fill="#639ec4" d="M 82.5,239.5 C 82.7852,241.288 82.4519,242.955 81.5,244.5C 79.7094,244.962 78.7094,246.129 78.5,248C 80.5921,252.751 84.2587,255.084 89.5,255C 90.9555,256.626 92.6221,257.792 94.5,258.5C 87.8646,258.055 82.0312,255.722 77,251.5C 75.1457,248.348 75.479,245.348 78,242.5C 79.129,240.859 80.629,239.859 82.5,239.5 Z"/></g>
<g><path style="opacity:0.961" fill="#e15e59" d="M 512.5,245.5 C 513.833,245.833 515.167,246.167 516.5,246.5C 517.926,247.802 519.259,249.302 520.5,251C 524.211,251.844 527.877,252.844 531.5,254C 536.53,253.995 541.53,253.495 546.5,252.5C 546.5,252.833 546.5,253.167 546.5,253.5C 544.214,253.595 542.214,254.262 540.5,255.5C 536.833,256.833 533.167,256.833 529.5,255.5C 527.485,254.076 525.152,253.41 522.5,253.5C 517.982,252.316 514.649,249.649 512.5,245.5 Z"/></g>
<g><path style="opacity:0.004" fill="#fac9c8" d="M 546.5,253.5 C 546.833,253.5 547.167,253.5 547.5,253.5C 545.485,254.924 543.152,255.59 540.5,255.5C 542.214,254.262 544.214,253.595 546.5,253.5 Z"/></g>
<g><path style="opacity:0.975" fill="#8fb5ca" d="M 225.5,253.5 C 225.389,254.117 225.056,254.617 224.5,255C 226.134,255.494 227.801,255.66 229.5,255.5C 225.742,257.758 221.742,258.758 217.5,258.5C 219.887,256.311 222.553,254.644 225.5,253.5 Z"/></g>
<g><path style="opacity:1" fill="#6ea6ca" d="M 190.5,255.5 C 178.275,259.372 165.942,261.372 153.5,261.5C 158.296,260.59 162.963,259.257 167.5,257.5C 175.221,257.255 182.888,256.589 190.5,255.5 Z"/></g>
<g><path style="opacity:1" fill="#dd4a48" d="M 320.5,252.5 C 320.442,255.664 319.776,258.664 318.5,261.5C 317.065,262.913 316.065,264.58 315.5,266.5C 315.5,265.167 315.5,263.833 315.5,262.5C 315.893,260.716 316.559,259.05 317.5,257.5C 318.935,256.087 319.935,254.42 320.5,252.5 Z"/></g>
<g><path style="opacity:0.678" fill="#91bfdb" d="M 95.5,258.5 C 100.414,258.362 105.081,259.028 109.5,260.5C 104.586,260.638 99.9192,259.972 95.5,258.5 Z"/></g>
<g><path style="opacity:0.729" fill="#82b9d8" d="M 110.5,260.5 C 117.022,260.177 123.355,260.51 129.5,261.5C 128.883,261.611 128.383,261.944 128,262.5C 122.067,261.852 116.234,261.186 110.5,260.5 Z"/></g>
<g><path style="opacity:1" fill="#de625c" d="M 337.5,239.5 C 337.833,239.5 338.167,239.5 338.5,239.5C 338.5,243.167 338.5,246.833 338.5,250.5C 337.929,258.631 334.929,265.631 329.5,271.5C 331.562,265.339 333.896,259.173 336.5,253C 337.345,248.539 337.678,244.039 337.5,239.5 Z"/></g>
<g><path style="opacity:0.659" fill="#e89591" d="M 315.5,262.5 C 315.5,263.833 315.5,265.167 315.5,266.5C 312.429,268.898 309.095,270.898 305.5,272.5C 309.167,269.5 312.5,266.167 315.5,262.5 Z"/></g>
<g><path style="opacity:1" fill="#eb6c62" d="M 329.5,271.5 C 325.486,278.109 319.653,282.442 312,284.5C 310.699,284.361 309.866,283.695 309.5,282.5C 313.736,281.528 317.736,280.195 321.5,278.5C 321.337,276.143 321.503,273.81 322,271.5C 322.483,272.448 322.649,273.448 322.5,274.5C 323.5,274.5 324.5,274.5 325.5,274.5C 325.34,272.801 325.506,271.134 326,269.5C 326.71,270.973 327.876,271.64 329.5,271.5 Z"/></g>
<g><path style="opacity:0.965" fill="#6fa3c5" d="M 99.5,277.5 C 98.1411,276.993 97.1411,275.993 96.5,274.5C 94.2546,276.623 91.5879,277.623 88.5,277.5C 91.65,273.925 95.65,271.925 100.5,271.5C 100.167,273.5 99.8333,275.5 99.5,277.5 Z"/></g>
<g><path style="opacity:0.863" fill="#e89490" d="M 305.5,272.5 C 304.438,274.099 304.438,275.766 305.5,277.5C 301.648,275.545 301.648,273.878 305.5,272.5 Z"/></g>
<g><path style="opacity:1" fill="#db6f67" d="M 305.5,278.5 C 308.179,278.525 309.512,279.858 309.5,282.5C 307.833,281.5 306.5,280.167 305.5,278.5 Z"/></g>
<g><path style="opacity:0.961" fill="#8fb7ce" d="M 88.5,277.5 C 87.1667,280.833 87.1667,284.167 88.5,287.5C 84.5,284.167 84.5,280.833 88.5,277.5 Z"/></g>
<g><path style="opacity:1" fill="#278ac2" d="M 99.5,277.5 C 101.5,278.5 103.5,279.5 105.5,280.5C 106.609,281.29 107.942,281.79 109.5,282C 120.828,282.5 132.162,282.667 143.5,282.5C 145.833,282.5 148.167,282.5 150.5,282.5C 150.389,283.117 150.056,283.617 149.5,284C 142.167,284.333 134.833,284.667 127.5,285C 126.707,286.085 126.04,287.252 125.5,288.5C 116,290.257 106.834,289.257 98,285.5C 96.274,286.648 96.4407,287.815 98.5,289C 98.1667,289.333 97.8333,289.667 97.5,290C 100.709,291.403 104.042,292.403 107.5,293C 106.584,293.278 105.918,293.778 105.5,294.5C 100.963,294.116 96.6293,292.949 92.5,291C 90.6763,290.34 89.343,289.173 88.5,287.5C 87.1667,284.167 87.1667,280.833 88.5,277.5C 91.5879,277.623 94.2546,276.623 96.5,274.5C 97.1411,275.993 98.1411,276.993 99.5,277.5 Z"/></g>
<g><path style="opacity:0.565" fill="#c3dfef" d="M 105.5,280.5 C 118.141,281.398 130.808,281.732 143.5,281.5C 143.5,281.833 143.5,282.167 143.5,282.5C 132.162,282.667 120.828,282.5 109.5,282C 107.942,281.79 106.609,281.29 105.5,280.5 Z"/></g>
<g><path style="opacity:0.996" fill="#6da5c9" d="M 191.5,284.5 C 190.175,285.953 189.342,285.619 189,283.5C 185.917,284.119 183.417,282.952 181.5,280C 176.26,279.28 171.26,279.946 166.5,282C 161.177,282.499 155.844,282.666 150.5,282.5C 148.167,282.5 145.833,282.5 143.5,282.5C 143.5,282.167 143.5,281.833 143.5,281.5C 155.461,281.295 167.295,279.962 179,277.5C 183.573,279.201 187.739,281.534 191.5,284.5 Z"/></g>
<g><path style="opacity:1" fill="#248bc6" d="M 191.5,284.5 C 192.038,286.117 192.371,287.784 192.5,289.5C 188.753,289.392 185.086,289.892 181.5,291C 180.058,291.377 179.058,292.21 178.5,293.5C 178.167,293.5 177.833,293.5 177.5,293.5C 174.626,293.549 171.792,293.216 169,292.5C 166.759,292.68 166.259,293.513 167.5,295C 166.584,295.278 165.918,295.778 165.5,296.5C 151.514,298.666 137.514,299 123.5,297.5C 119.081,296.028 114.414,295.362 109.5,295.5C 107.901,295.768 106.568,295.434 105.5,294.5C 105.918,293.778 106.584,293.278 107.5,293C 104.042,292.403 100.709,291.403 97.5,290C 97.8333,289.667 98.1667,289.333 98.5,289C 96.4407,287.815 96.274,286.648 98,285.5C 106.834,289.257 116,290.257 125.5,288.5C 126.04,287.252 126.707,286.085 127.5,285C 134.833,284.667 142.167,284.333 149.5,284C 150.056,283.617 150.389,283.117 150.5,282.5C 155.844,282.666 161.177,282.499 166.5,282C 171.26,279.946 176.26,279.28 181.5,280C 183.417,282.952 185.917,284.119 189,283.5C 189.342,285.619 190.175,285.953 191.5,284.5 Z"/></g>
<g><path style="opacity:1" fill="#75a8c8" d="M 191.5,284.5 C 193.677,284.586 195.677,285.253 197.5,286.5C 198.833,287.167 198.833,287.833 197.5,288.5C 191.283,290.638 184.949,292.304 178.5,293.5C 179.058,292.21 180.058,291.377 181.5,291C 185.086,289.892 188.753,289.392 192.5,289.5C 192.371,287.784 192.038,286.117 191.5,284.5 Z"/></g>
<g><path style="opacity:1" fill="#74a9cf" d="M 177.5,293.5 C 173.761,295.102 169.761,296.102 165.5,296.5C 165.918,295.778 166.584,295.278 167.5,295C 166.259,293.513 166.759,292.68 169,292.5C 171.792,293.216 174.626,293.549 177.5,293.5 Z"/></g>
<g><path style="opacity:0.733" fill="#8dbeda" d="M 109.5,295.5 C 114.414,295.362 119.081,296.028 123.5,297.5C 118.586,297.638 113.919,296.972 109.5,295.5 Z"/></g>
<g><path style="opacity:0.943" fill="#80b0cc" d="M 55.5,301.5 C 56.5981,300.603 56.5981,299.77 55.5,299C 54.2068,298.51 52.8734,298.343 51.5,298.5C 58.903,296.327 66.5697,295.494 74.5,296C 74.8333,296.333 75.1667,296.667 75.5,297C 68.7548,298.186 62.0881,299.686 55.5,301.5 Z"/></g>
<g><path style="opacity:0.961" fill="#5ea0c9" d="M 51.5,298.5 C 52.8734,298.343 54.2068,298.51 55.5,299C 56.5981,299.77 56.5981,300.603 55.5,301.5C 51.0935,303.027 47.4269,305.527 44.5,309C 45.3805,309.708 46.0472,310.542 46.5,311.5C 45.5041,311.586 44.6708,311.252 44,310.5C 44.1307,307.905 43.964,305.405 43.5,303C 45.4935,301.632 47.4935,301.132 49.5,301.5C 47.9547,300.548 46.288,300.215 44.5,300.5C 46.5145,299.076 48.8478,298.41 51.5,298.5 Z"/></g>
<g><path style="opacity:1" fill="#619ec4" d="M 44.5,300.5 C 42.9242,301.283 41.5908,302.45 40.5,304C 34.9868,306.01 29.6534,308.51 24.5,311.5C 25.7063,308.702 27.7063,306.535 30.5,305C 34.9051,302.628 39.5718,301.128 44.5,300.5 Z"/></g>
<g><path style="opacity:1" fill="#69a4c9" d="M 46.5,311.5 C 54.0677,314.274 61.7344,316.274 69.5,317.5C 67.0799,317.292 64.7466,317.626 62.5,318.5C 58.717,316.976 54.717,315.976 50.5,315.5C 48.6253,314.591 47.292,313.257 46.5,311.5 Z"/></g>
<g><path style="opacity:1" fill="#5b9cc6" d="M 226.5,320.5 C 229.154,318.943 231.82,317.11 234.5,315C 223.321,316.8 211.987,317.633 200.5,317.5C 214.182,315.884 227.849,313.384 241.5,310C 244.249,308.877 246.749,307.377 249,305.5C 248.521,296.601 250.355,296.435 254.5,305C 254.01,306.982 253.01,308.649 251.5,310C 243.839,315.165 235.506,318.665 226.5,320.5 Z"/></g>
<g><path style="opacity:1" fill="#5d9dc5" d="M 24.5,311.5 C 23.6709,318.317 26.5042,320.317 33,317.5C 34.8114,318.424 34.6447,319.257 32.5,320C 36.8756,321.385 40.8756,323.219 44.5,325.5C 37.3024,324.869 30.6358,322.703 24.5,319C 21.8763,316.377 21.8763,313.877 24.5,311.5 Z"/></g>
<g><path style="opacity:0.984" fill="#92bcd8" d="M 69.5,317.5 C 75.6985,317.652 81.6985,318.318 87.5,319.5C 82.4889,319.666 77.4889,319.499 72.5,319C 71.2625,318.768 70.2625,318.268 69.5,317.5 Z"/></g>
<g><path style="opacity:0.957" fill="#95bdd7" d="M 199.5,317.5 C 191.067,319.246 182.4,319.912 173.5,319.5C 181.986,318.426 190.653,317.759 199.5,317.5 Z"/></g>
<g><path style="opacity:0.971" fill="#74a9cb" d="M 87.5,319.5 C 115.831,320.744 144.164,320.744 172.5,319.5C 161.769,321.861 150.769,322.861 139.5,322.5C 127.162,322.667 114.829,322.5 102.5,322C 97.2339,321.911 92.2339,321.077 87.5,319.5 Z"/></g>
<g><path style="opacity:1" fill="#208ac4" d="M 226.5,320.5 C 219.559,323.4 212.225,325.066 204.5,325.5C 199.178,325.98 193.845,326.313 188.5,326.5C 178.463,326.531 168.463,326.364 158.5,326C 159.623,327.044 160.956,327.71 162.5,328C 156.175,328.5 149.842,328.666 143.5,328.5C 143.577,327.25 144.244,326.417 145.5,326C 145.167,325.667 144.833,325.333 144.5,325C 145.5,324.667 146.5,324.333 147.5,324C 144.635,323.817 141.969,323.317 139.5,322.5C 150.769,322.861 161.769,321.861 172.5,319.5C 172.833,319.5 173.167,319.5 173.5,319.5C 182.4,319.912 191.067,319.246 199.5,317.5C 199.833,317.5 200.167,317.5 200.5,317.5C 211.987,317.633 223.321,316.8 234.5,315C 231.82,317.11 229.154,318.943 226.5,320.5 Z"/></g>
<g><path style="opacity:1" fill="#5e9ec7" d="M 255.5,330.5 C 255.762,329.022 255.429,327.689 254.5,326.5C 252.253,327.374 249.92,327.708 247.5,327.5C 254.829,324.416 261.662,320.416 268,315.5C 268.5,315.833 269,316.167 269.5,316.5C 266.478,322.855 261.812,327.522 255.5,330.5 Z"/></g>
<g><path style="opacity:1" fill="#1589c4" d="M 44.5,300.5 C 46.288,300.215 47.9547,300.548 49.5,301.5C 47.4935,301.132 45.4935,301.632 43.5,303C 43.964,305.405 44.1307,307.905 44,310.5C 44.6708,311.252 45.5041,311.586 46.5,311.5C 47.292,313.257 48.6253,314.591 50.5,315.5C 54.717,315.976 58.717,316.976 62.5,318.5C 64.7466,317.626 67.0799,317.292 69.5,317.5C 70.2625,318.268 71.2625,318.768 72.5,319C 77.4889,319.499 82.4889,319.666 87.5,319.5C 92.2339,321.077 97.2339,321.911 102.5,322C 114.829,322.5 127.162,322.667 139.5,322.5C 141.969,323.317 144.635,323.817 147.5,324C 146.5,324.333 145.5,324.667 144.5,325C 144.833,325.333 145.167,325.667 145.5,326C 144.244,326.417 143.577,327.25 143.5,328.5C 122.167,328.5 100.833,328.5 79.5,328.5C 73.3554,327.51 67.0221,327.177 60.5,327.5C 60.1667,327.5 59.8333,327.5 59.5,327.5C 55.0808,326.028 50.4141,325.362 45.5,325.5C 45.1667,325.5 44.8333,325.5 44.5,325.5C 40.8756,323.219 36.8756,321.385 32.5,320C 34.6447,319.257 34.8114,318.424 33,317.5C 26.5042,320.317 23.6709,318.317 24.5,311.5C 29.6534,308.51 34.9868,306.01 40.5,304C 41.5908,302.45 42.9242,301.283 44.5,300.5 Z"/></g>
<g><path style="opacity:0.957" fill="#92bad4" d="M 45.5,325.5 C 50.4141,325.362 55.0808,326.028 59.5,327.5C 54.5859,327.638 49.9192,326.972 45.5,325.5 Z"/></g>
<g><path style="opacity:0.404" fill="#abd0e6" d="M 204.5,325.5 C 199.417,327.078 194.084,327.745 188.5,327.5C 188.5,327.167 188.5,326.833 188.5,326.5C 193.845,326.313 199.178,325.98 204.5,325.5 Z"/></g>
<g><path style="opacity:0.992" fill="#6ea4c8" d="M 60.5,327.5 C 67.0221,327.177 73.3554,327.51 79.5,328.5C 79.5,328.833 79.5,329.167 79.5,329.5C 72.9744,329.303 66.641,328.636 60.5,327.5 Z"/></g>
<g><path style="opacity:1" fill="#6ca2c7" d="M 188.5,326.5 C 188.5,326.833 188.5,327.167 188.5,327.5C 181.27,327.259 174.27,327.925 167.5,329.5C 138.158,332.052 108.825,332.052 79.5,329.5C 79.5,329.167 79.5,328.833 79.5,328.5C 100.833,328.5 122.167,328.5 143.5,328.5C 149.842,328.666 156.175,328.5 162.5,328C 160.956,327.71 159.623,327.044 158.5,326C 168.463,326.364 178.463,326.531 188.5,326.5 Z"/></g>
<g><path style="opacity:0.243" fill="#b1d4e9" d="M 188.5,327.5 C 181.711,328.875 174.711,329.542 167.5,329.5C 174.27,327.925 181.27,327.259 188.5,327.5 Z"/></g>
<g><path style="opacity:0.471" fill="#b1d1e3" d="M 98.5,339.5 C 90.6576,338.86 82.991,338.86 75.5,339.5C 73.1727,339.753 71.1727,339.086 69.5,337.5C 70.3333,337.167 71.1667,336.833 72,336.5C 81.0033,337.277 89.8367,338.277 98.5,339.5 Z"/></g>
<g><path style="opacity:0.105" fill="#cae8f8" d="M 99.5,340.5 C 99.5,340.167 99.5,339.833 99.5,339.5C 122.158,340.26 144.825,340.593 167.5,340.5C 146.993,341.696 126.327,341.696 105.5,340.5C 103.5,340.5 101.5,340.5 99.5,340.5 Z"/></g>
<g><path style="opacity:1" fill="#74abcd" d="M 237.5,337.5 C 222.659,342.278 207.326,344.944 191.5,345.5C 201.861,342.706 212.528,340.873 223.5,340C 224.328,339.085 225.328,338.419 226.5,338C 230.152,337.501 233.818,337.335 237.5,337.5 Z"/></g>
<g><path style="opacity:1" fill="#1788c5" d="M 99.5,340.5 C 101.5,340.5 103.5,340.5 105.5,340.5C 107.292,341.309 109.292,341.809 111.5,342C 135.5,342.333 159.5,342.667 183.5,343C 185.833,343.333 188.167,343.667 190.5,344C 182.167,344.333 173.833,344.667 165.5,345C 163.292,345.191 161.292,345.691 159.5,346.5C 140.198,345.176 120.865,344.343 101.5,344C 97.9156,342.708 94.2489,341.708 90.5,341C 93.4816,340.502 96.4816,340.335 99.5,340.5 Z"/></g>
<g><path style="opacity:1" fill="#4a92bf" d="M 98.5,339.5 C 98.8333,339.5 99.1667,339.5 99.5,339.5C 99.5,339.833 99.5,340.167 99.5,340.5C 96.4816,340.335 93.4816,340.502 90.5,341C 94.2489,341.708 97.9156,342.708 101.5,344C 120.865,344.343 140.198,345.176 159.5,346.5C 159.5,346.833 159.5,347.167 159.5,347.5C 152.491,348.687 145.491,348.687 138.5,347.5C 128.379,345.875 118.046,345.208 107.5,345.5C 96.455,344.89 85.7884,342.89 75.5,339.5C 82.991,338.86 90.6576,338.86 98.5,339.5 Z"/></g>
<g><path style="opacity:0.996" fill="#4190bf" d="M 255.5,330.5 C 249.842,333.61 243.842,335.944 237.5,337.5C 233.818,337.335 230.152,337.501 226.5,338C 225.328,338.419 224.328,339.085 223.5,340C 212.528,340.873 201.861,342.706 191.5,345.5C 181.042,347.091 170.376,347.758 159.5,347.5C 159.5,347.167 159.5,346.833 159.5,346.5C 161.292,345.691 163.292,345.191 165.5,345C 173.833,344.667 182.167,344.333 190.5,344C 188.167,343.667 185.833,343.333 183.5,343C 159.5,342.667 135.5,342.333 111.5,342C 109.292,341.809 107.292,341.309 105.5,340.5C 126.327,341.696 146.993,341.696 167.5,340.5C 194.812,339.885 221.479,335.551 247.5,327.5C 249.92,327.708 252.253,327.374 254.5,326.5C 255.429,327.689 255.762,329.022 255.5,330.5 Z"/></g>
<g><path style="opacity:0.831" fill="#77aed1" d="M 107.5,345.5 C 118.046,345.208 128.379,345.875 138.5,347.5C 127.946,347.887 117.613,347.22 107.5,345.5 Z"/></g>
</svg>
