<?xml version="1.0" encoding="UTF-8"?>
<!DOCTYPE svg PUBLIC "-//W3C//DTD SVG 1.1//EN" "http://www.w3.org/Graphics/SVG/1.1/DTD/svg11.dtd">
<svg xmlns="http://www.w3.org/2000/svg" version="1.1" width="860px" height="273px" style="shape-rendering:geometricPrecision; text-rendering:geometricPrecision; image-rendering:optimizeQuality; fill-rule:evenodd; clip-rule:evenodd" xmlns:xlink="http://www.w3.org/1999/xlink">
<g><path style="opacity:1" fill="#8fbf8f" d="M 79.5,46.5 C 80.8897,47.8993 81.8897,49.5659 82.5,51.5C 80.2407,50.656 79.2407,48.9893 79.5,46.5 Z"/></g>
<g><path style="opacity:0.565" fill="#b7dfb8" d="M 82.5,51.5 C 83.9063,51.9731 84.573,52.9731 84.5,54.5C 83.0937,54.0269 82.427,53.0269 82.5,51.5 Z"/></g>
<g><path style="opacity:0.918" fill="#a1cb99" d="M 79.5,46.5 C 78.8333,46.5 78.1667,46.5 77.5,46.5C 77.6309,45.6236 77.2975,44.9569 76.5,44.5C 71.4224,50.5812 65.7557,55.9145 59.5,60.5C 64.1302,55.3687 68.9635,50.3687 74,45.5C 75.1097,43.6031 75.2764,41.7698 74.5,40C 75,39.5 75.5,39 76,38.5C 77.4538,41.0711 78.6205,43.7378 79.5,46.5 Z"/></g>
<g><path style="opacity:0.902" fill="#99ca98" d="M 84.5,54.5 C 86.5,55.8333 88.1667,57.5 89.5,59.5C 86.8333,58.8333 85.1667,57.1667 84.5,54.5 Z"/></g>
<g><path style="opacity:0.624" fill="#b7d7b2" d="M 59.5,60.5 C 58.9202,62.7488 57.5869,64.4154 55.5,65.5C 56.0798,63.2512 57.4131,61.5846 59.5,60.5 Z"/></g>
<g><path style="opacity:0.706" fill="#b7ddb3" d="M 91.5,61.5 C 93.914,62.9108 95.5806,64.9108 96.5,67.5C 94.086,66.0892 92.4194,64.0892 91.5,61.5 Z"/></g>
<g><path style="opacity:1" fill="#5db051" d="M 77.5,46.5 C 77.5,50.8333 77.5,55.1667 77.5,59.5C 77.6666,82.1691 77.5,104.836 77,127.5C 75.4421,119.715 74.1087,119.715 73,127.5C 72.3409,120.534 70.6742,113.867 68,107.5C 67.2662,97.9053 65.0996,88.572 61.5,79.5C 59.6293,76.0953 57.2959,73.9287 54.5,73C 55.1007,71.395 56.1007,70.0616 57.5,69C 56.8333,68.3333 56.1667,68.3333 55.5,69C 53.6169,72.0455 51.2836,74.5455 48.5,76.5C 49.1098,75.609 49.4431,74.609 49.5,73.5C 51.2624,72.7377 52.2624,71.4044 52.5,69.5C 52.7376,67.5956 53.7376,66.2623 55.5,65.5C 57.5869,64.4154 58.9202,62.7488 59.5,60.5C 65.7557,55.9145 71.4224,50.5812 76.5,44.5C 77.2975,44.9569 77.6309,45.6236 77.5,46.5 Z"/></g>
<g><path style="opacity:0.827" fill="#aad3a9" d="M 96.5,67.5 C 98.5869,68.5846 99.9202,70.2512 100.5,72.5C 98.4131,71.4154 97.0798,69.7488 96.5,67.5 Z"/></g>
<g><path style="opacity:1" fill="#479e46" d="M 77.5,46.5 C 78.1667,46.5 78.8333,46.5 79.5,46.5C 79.2407,48.9893 80.2407,50.656 82.5,51.5C 82.427,53.0269 83.0937,54.0269 84.5,54.5C 85.1667,57.1667 86.8333,58.8333 89.5,59.5C 90.5,59.8333 91.1667,60.5 91.5,61.5C 92.4194,64.0892 94.086,66.0892 96.5,67.5C 97.0798,69.7488 98.4131,71.4154 100.5,72.5C 100.738,74.4044 101.738,75.7377 103.5,76.5C 103.427,78.0269 104.094,79.0269 105.5,79.5C 105.241,81.9893 106.241,83.656 108.5,84.5C 108.33,89.1519 109.997,92.8185 113.5,95.5C 113.833,95.5 114.167,95.5 114.5,95.5C 114.5,95.8333 114.5,96.1667 114.5,96.5C 114.517,98.5648 114.85,100.565 115.5,102.5C 115.243,105.932 114.576,109.266 113.5,112.5C 115.144,112.714 116.644,112.38 118,111.5C 118.147,116.044 118.98,120.377 120.5,124.5C 120.304,126.286 119.471,127.619 118,128.5C 117.667,131.167 117.333,133.833 117,136.5C 116.971,128.861 116.304,121.194 115,113.5C 114,115.5 113,117.5 112,119.5C 101.423,117.537 90.5899,116.87 79.5,117.5C 79.8304,137.34 79.4971,157.007 78.5,176.5C 78.5,176.167 78.5,175.833 78.5,175.5C 78.8319,136.663 78.4985,97.9964 77.5,59.5C 77.5,55.1667 77.5,50.8333 77.5,46.5 Z"/></g>
<g><path style="opacity:0.533" fill="#b8ddb5" d="M 52.5,69.5 C 52.2624,71.4044 51.2624,72.7377 49.5,73.5C 49.7376,71.5956 50.7376,70.2623 52.5,69.5 Z"/></g>
<g><path style="opacity:0.553" fill="#c7e3bf" d="M 49.5,73.5 C 49.4431,74.609 49.1098,75.609 48.5,76.5C 48.1667,76.5 47.8333,76.5 47.5,76.5C 47.427,74.9731 48.0937,73.9731 49.5,73.5 Z"/></g>
<g><path style="opacity:0.522" fill="#b5dbb5" d="M 100.5,72.5 C 102.262,73.2623 103.262,74.5956 103.5,76.5C 101.738,75.7377 100.738,74.4044 100.5,72.5 Z"/></g>
<g><path style="opacity:1" fill="#55ac4d" d="M 77.5,59.5 C 78.4985,97.9964 78.8319,136.663 78.5,175.5C 77.6909,173.708 77.1909,171.708 77,169.5C 76.0853,170.328 75.4186,171.328 75,172.5C 73.9268,166.551 73.2601,160.551 73,154.5C 72.6667,157.167 72.3333,159.833 72,162.5C 70.7697,156.092 69.603,149.759 68.5,143.5C 67.5,143.5 66.5,143.5 65.5,143.5C 65.1727,140.518 65.1727,137.685 65.5,135C 64.6959,133.229 63.5292,131.729 62,130.5C 59.1029,118.746 55.9363,107.079 52.5,95.5C 51.5,95.5 50.5,95.5 49.5,95.5C 48.7973,90.4325 47.7973,85.4325 46.5,80.5C 47.2341,79.2921 47.5674,77.9587 47.5,76.5C 47.8333,76.5 48.1667,76.5 48.5,76.5C 51.2836,74.5455 53.6169,72.0455 55.5,69C 56.1667,68.3333 56.8333,68.3333 57.5,69C 56.1007,70.0616 55.1007,71.395 54.5,73C 57.2959,73.9287 59.6293,76.0953 61.5,79.5C 65.0996,88.572 67.2662,97.9053 68,107.5C 70.6742,113.867 72.3409,120.534 73,127.5C 74.1087,119.715 75.4421,119.715 77,127.5C 77.5,104.836 77.6666,82.1691 77.5,59.5 Z"/></g>
<g><path style="opacity:0.259" fill="#c8e8c8" d="M 103.5,76.5 C 104.906,76.9731 105.573,77.9731 105.5,79.5C 104.094,79.0269 103.427,78.0269 103.5,76.5 Z"/></g>
<g><path style="opacity:0.976" fill="#a0c99d" d="M 47.5,76.5 C 47.5674,77.9587 47.2341,79.2921 46.5,80.5C 45.8999,81.9002 44.8999,82.9002 43.5,83.5C 44.0787,80.6689 45.412,78.3356 47.5,76.5 Z"/></g>
<g><path style="opacity:1" fill="#91bd91" d="M 105.5,79.5 C 106.89,80.8993 107.89,82.5659 108.5,84.5C 106.241,83.656 105.241,81.9893 105.5,79.5 Z"/></g>
<g><path style="opacity:0.035" fill="#daf5d8" d="M 43.5,83.5 C 43.3404,85.153 42.6737,86.4863 41.5,87.5C 41.2291,85.6203 41.8958,84.287 43.5,83.5 Z"/></g>
<g><path style="opacity:1" fill="#4ea84b" d="M 46.5,80.5 C 47.7973,85.4325 48.7973,90.4325 49.5,95.5C 50.5,95.5 51.5,95.5 52.5,95.5C 55.9363,107.079 59.1029,118.746 62,130.5C 63.5292,131.729 64.6959,133.229 65.5,135C 65.1727,137.685 65.1727,140.518 65.5,143.5C 66.5,143.5 67.5,143.5 68.5,143.5C 69.603,149.759 70.7697,156.092 72,162.5C 72.3333,159.833 72.6667,157.167 73,154.5C 73.2601,160.551 73.9268,166.551 75,172.5C 75.4186,171.328 76.0853,170.328 77,169.5C 77.1909,171.708 77.6909,173.708 78.5,175.5C 78.5,175.833 78.5,176.167 78.5,176.5C 78.4988,184.517 78.1655,192.517 77.5,200.5C 77.5,201.5 77.5,202.5 77.5,203.5C 76.7321,204.263 76.2321,205.263 76,206.5C 75.501,210.821 75.3343,215.154 75.5,219.5C 75.5,220.833 75.5,222.167 75.5,223.5C 73.8333,223.5 72.1667,223.5 70.5,223.5C 69.5,222.167 68.5,220.833 67.5,219.5C 66.8333,218.833 66.1667,218.167 65.5,217.5C 67.5412,217.854 69.3745,217.854 71,217.5C 73.2574,214.562 74.424,211.229 74.5,207.5C 73.5,207.5 72.5,207.5 71.5,207.5C 72.3573,205.138 72.6907,202.804 72.5,200.5C 71.9017,199.205 71.4017,197.872 71,196.5C 70.4444,198.595 69.9444,198.762 69.5,197C 70.2335,195.234 70.5668,193.401 70.5,191.5C 68.8762,191.36 67.7096,192.027 67,193.5C 63.8319,188.066 62.6653,182.066 63.5,175.5C 62.1667,175.5 60.8333,175.5 59.5,175.5C 59.5,170.167 59.5,164.833 59.5,159.5C 57.5,159.5 55.5,159.5 53.5,159.5C 53.6658,154.821 53.4992,150.155 53,145.5C 52.3109,144.643 51.4776,143.977 50.5,143.5C 49.6705,138.198 49.1705,132.864 49,127.5C 47.3646,128.849 45.8646,128.682 44.5,127C 46.9703,120.616 46.3036,114.449 42.5,108.5C 41.914,108.709 41.414,109.043 41,109.5C 40.7602,112.657 40.9269,115.824 41.5,119C 41.6949,126.006 40.0282,126.839 36.5,121.5C 37.5437,120.377 38.2104,119.044 38.5,117.5C 37.6905,115.271 37.3572,113.271 37.5,111.5C 37.2767,109.658 36.9434,107.825 36.5,106C 38.0722,103.081 38.7388,99.9145 38.5,96.5C 40.0173,93.658 41.0173,90.658 41.5,87.5C 42.6737,86.4863 43.3404,85.153 43.5,83.5C 44.8999,82.9002 45.8999,81.9002 46.5,80.5 Z"/></g>
<g><path style="opacity:0.608" fill="#b3dbb0" d="M 41.5,87.5 C 41.0173,90.658 40.0173,93.658 38.5,96.5C 38.1667,96.5 37.8333,96.5 37.5,96.5C 38.083,93.0534 39.4163,90.0534 41.5,87.5 Z"/></g>
<g><path style="opacity:1" fill="#6da769" d="M 108.5,84.5 C 110.341,86.8485 111.674,89.5152 112.5,92.5C 112.557,93.609 112.89,94.609 113.5,95.5C 109.997,92.8185 108.33,89.1519 108.5,84.5 Z"/></g>
<g><path style="opacity:0.075" fill="#d2f1d1" d="M 112.5,92.5 C 113.906,92.9731 114.573,93.9731 114.5,95.5C 114.167,95.5 113.833,95.5 113.5,95.5C 112.89,94.609 112.557,93.609 112.5,92.5 Z"/></g>
<g><path style="opacity:0.945" fill="#b4d5b1" d="M 114.5,96.5 C 118.336,103.67 121.002,111.337 122.5,119.5C 122.167,119.5 121.833,119.5 121.5,119.5C 120.268,113.467 118.268,107.8 115.5,102.5C 114.85,100.565 114.517,98.5648 114.5,96.5 Z"/></g>
<g><path style="opacity:0.4" fill="#c4e5bb" d="M 37.5,96.5 C 37.7406,98.8984 37.0739,100.898 35.5,102.5C 35.2594,100.102 35.9261,98.1016 37.5,96.5 Z"/></g>
<g><path style="opacity:0.006" fill="#e9f9e6" d="M 35.5,102.5 C 35.405,104.786 34.7384,106.786 33.5,108.5C 33.2594,106.102 33.9261,104.102 35.5,102.5 Z"/></g>
<g><path style="opacity:1" fill="#60a860" d="M 37.5,96.5 C 37.8333,96.5 38.1667,96.5 38.5,96.5C 38.7388,99.9145 38.0722,103.081 36.5,106C 36.9434,107.825 37.2767,109.658 37.5,111.5C 31.7135,124.034 29.3802,137.367 30.5,151.5C 29.5093,145.021 29.176,138.354 29.5,131.5C 31.2105,127.119 31.8772,122.453 31.5,117.5C 31.4203,114.219 32.087,111.219 33.5,108.5C 34.7384,106.786 35.405,104.786 35.5,102.5C 37.0739,100.898 37.7406,98.8984 37.5,96.5 Z"/></g>
<g><path style="opacity:1" fill="#46a548" d="M 65.5,217.5 C 64.267,215.204 62.267,213.87 59.5,213.5C 59.5123,210.858 58.179,209.525 55.5,209.5C 55.4431,208.391 55.1098,207.391 54.5,206.5C 52.8436,204.327 51.8436,201.827 51.5,199C 51.9452,197.553 52.6119,196.22 53.5,195C 53.1667,194.5 52.8333,194 52.5,193.5C 51.1476,194.518 50.1476,195.851 49.5,197.5C 48.394,195.716 48.394,193.882 49.5,192C 48.4188,190.629 47.5855,189.129 47,187.5C 46.2411,189.063 45.0744,190.063 43.5,190.5C 42.3465,187.521 41.1798,184.521 40,181.5C 38.8873,180.695 37.7206,180.028 36.5,179.5C 35.5,175.5 34.5,171.5 33.5,167.5C 32.935,162.851 32.435,158.184 32,153.5C 31.6174,152.944 31.1174,152.611 30.5,152.5C 30.5,152.167 30.5,151.833 30.5,151.5C 29.3802,137.367 31.7135,124.034 37.5,111.5C 37.3572,113.271 37.6905,115.271 38.5,117.5C 38.2104,119.044 37.5437,120.377 36.5,121.5C 40.0282,126.839 41.6949,126.006 41.5,119C 40.9269,115.824 40.7602,112.657 41,109.5C 41.414,109.043 41.914,108.709 42.5,108.5C 46.3036,114.449 46.9703,120.616 44.5,127C 45.8646,128.682 47.3646,128.849 49,127.5C 49.1705,132.864 49.6705,138.198 50.5,143.5C 51.4776,143.977 52.3109,144.643 53,145.5C 53.4992,150.155 53.6658,154.821 53.5,159.5C 55.5,159.5 57.5,159.5 59.5,159.5C 59.5,164.833 59.5,170.167 59.5,175.5C 60.8333,175.5 62.1667,175.5 63.5,175.5C 62.6653,182.066 63.8319,188.066 67,193.5C 67.7096,192.027 68.8762,191.36 70.5,191.5C 70.5668,193.401 70.2335,195.234 69.5,197C 69.9444,198.762 70.4444,198.595 71,196.5C 71.4017,197.872 71.9017,199.205 72.5,200.5C 72.6907,202.804 72.3573,205.138 71.5,207.5C 72.5,207.5 73.5,207.5 74.5,207.5C 74.424,211.229 73.2574,214.562 71,217.5C 69.3745,217.854 67.5412,217.854 65.5,217.5 Z"/></g>
<g><path style="opacity:0.793" fill="#dadad8" d="M 663.5,122.5 C 643.164,122.333 622.831,122.5 602.5,123C 601.922,124.417 600.922,125.25 599.5,125.5C 600.034,121.808 602.201,120.141 606,120.5C 619.324,121.655 632.657,121.655 646,120.5C 652.067,120.39 657.9,121.057 663.5,122.5 Z"/></g>
<g><path style="opacity:0.653" fill="#dbdad9" d="M 766.5,122.5 C 748.497,122.333 730.497,122.5 712.5,123C 711.956,123.717 711.289,124.217 710.5,124.5C 710.818,122.182 712.152,120.848 714.5,120.5C 731.98,121.14 749.314,121.807 766.5,122.5 Z"/></g>
<g><path style="opacity:0.999" fill="#c3c2c0" d="M 663.5,122.5 C 682.08,125.576 693.913,136.242 699,154.5C 704.376,193.432 687.543,214.765 648.5,218.5C 633.161,218.364 617.828,218.031 602.5,217.5C 602.5,216.167 602.5,214.833 602.5,213.5C 602.369,212.624 602.702,211.957 603.5,211.5C 606.228,210.855 608.895,210.021 611.5,209C 612.823,208.184 613.489,207.017 613.5,205.5C 614.663,181.337 614.83,157.003 614,132.5C 613.617,131.944 613.117,131.611 612.5,131.5C 607.98,129.948 603.313,128.948 598.5,128.5C 598.263,127.209 598.596,126.209 599.5,125.5C 600.922,125.25 601.922,124.417 602.5,123C 622.831,122.5 643.164,122.333 663.5,122.5 Z M 652.5,130.5 C 669.095,135.092 679.095,145.759 682.5,162.5C 682.623,169.529 682.29,176.529 681.5,183.5C 673.848,207.224 658.181,215.057 634.5,207C 633.29,205.961 632.29,204.794 631.5,203.5C 630.177,179.163 630.177,154.829 631.5,130.5C 638.474,129.306 645.474,129.306 652.5,130.5 Z"/></g>
<g><path style="opacity:0.999" fill="#c1c0bf" d="M 766.5,122.5 C 782.745,125.645 788.912,135.312 785,151.5C 784.623,152.942 783.79,153.942 782.5,154.5C 777.761,158.881 775.928,157.881 777,151.5C 775.684,154.028 774.517,154.028 773.5,151.5C 772.808,152.025 772.308,152.692 772,153.5C 770.839,148.894 769.839,144.227 769,139.5C 768.617,138.944 768.117,138.611 767.5,138.5C 764.574,134.361 760.574,131.694 755.5,130.5C 750.741,128.434 745.741,128.1 740.5,129.5C 739.522,140.448 739.189,151.448 739.5,162.5C 742.5,162.5 745.5,162.5 748.5,162.5C 750.167,162.5 751.833,162.5 753.5,162.5C 757.675,162.812 761.675,162.145 765.5,160.5C 769.032,161.582 769.032,163.082 765.5,165C 767.107,166.049 767.773,167.549 767.5,169.5C 763.821,169.724 760.154,170.058 756.5,170.5C 755.833,170.5 755.167,170.5 754.5,170.5C 749.695,169.513 744.695,169.179 739.5,169.5C 739.172,180.679 739.505,191.679 740.5,202.5C 743.131,208.742 747.965,211.408 755,210.5C 758.186,210.256 761.353,209.923 764.5,209.5C 766.262,209.643 767.929,209.309 769.5,208.5C 770.696,208.846 770.696,209.346 769.5,210C 770.5,210.333 771.5,210.667 772.5,211C 768.905,211.122 767.239,212.956 767.5,216.5C 766.081,217.451 764.415,217.784 762.5,217.5C 745.183,218.235 727.849,218.235 710.5,217.5C 710.5,216.5 710.5,215.5 710.5,214.5C 710.414,213.504 710.748,212.671 711.5,212C 714.833,211 718.167,210 721.5,209C 722.305,207.887 722.972,206.721 723.5,205.5C 724.663,181.003 724.83,156.337 724,131.5C 723.5,130.333 722.667,129.5 721.5,129C 717.855,128.281 714.188,127.781 710.5,127.5C 710.5,126.5 710.5,125.5 710.5,124.5C 711.289,124.217 711.956,123.717 712.5,123C 730.497,122.5 748.497,122.333 766.5,122.5 Z"/></g>
<g><path style="opacity:0.125" fill="#daf1d9" d="M 122.5,120.5 C 124.04,122.838 124.706,125.505 124.5,128.5C 124.167,128.5 123.833,128.5 123.5,128.5C 123.167,125.833 122.833,123.167 122.5,120.5 Z"/></g>
<g><path style="opacity:0.189" fill="#e8e8e8" d="M 652.5,130.5 C 645.474,129.306 638.474,129.306 631.5,130.5C 631.611,129.883 631.944,129.383 632.5,129C 635.167,128.833 637.833,128.667 640.5,128.5C 644.777,128.337 648.777,129.003 652.5,130.5 Z"/></g>
<g><path style="opacity:0.439" fill="#b3deb6" d="M 31.5,117.5 C 31.8772,122.453 31.2105,127.119 29.5,131.5C 29.5,130.833 29.5,130.167 29.5,129.5C 29.5387,125.267 30.2053,121.267 31.5,117.5 Z"/></g>
<g><path style="opacity:1" fill="#519654" d="M 121.5,119.5 C 121.833,119.5 122.167,119.5 122.5,119.5C 122.5,119.833 122.5,120.167 122.5,120.5C 122.833,123.167 123.167,125.833 123.5,128.5C 123.5,137.5 123.5,146.5 123.5,155.5C 123.354,159.519 123.021,163.519 122.5,167.5C 121.5,169.5 120.5,171.5 119.5,173.5C 122.705,155.626 123.371,137.626 121.5,119.5 Z"/></g>
<g><path style="opacity:0.025" fill="#fdfdfd" d="M 612.5,131.5 C 613.117,131.611 613.617,131.944 614,132.5C 614.83,157.003 614.663,181.337 613.5,205.5C 613.814,180.789 613.481,156.122 612.5,131.5 Z"/></g>
<g><path style="opacity:0.068" fill="#ececec" d="M 710.5,124.5 C 710.5,125.5 710.5,126.5 710.5,127.5C 714.188,127.781 717.855,128.281 721.5,129C 722.667,129.5 723.5,130.333 724,131.5C 724.83,156.337 724.663,181.003 723.5,205.5C 723.667,181.164 723.5,156.831 723,132.5C 722.097,131.299 720.931,130.465 719.5,130C 716.443,129.744 713.443,129.244 710.5,128.5C 709.218,127.042 709.218,125.708 710.5,124.5 Z"/></g>
<g><path style="opacity:0.024" fill="#ddfade" d="M 29.5,129.5 C 29.5,130.167 29.5,130.833 29.5,131.5C 29.176,138.354 29.5093,145.021 30.5,151.5C 30.5,151.833 30.5,152.167 30.5,152.5C 30.5,154.833 30.5,157.167 30.5,159.5C 29.037,153.566 28.3703,147.399 28.5,141C 28.5012,136.985 28.8345,133.151 29.5,129.5 Z"/></g>
<g><path style="opacity:1" fill="#439844" d="M 115.5,102.5 C 118.268,107.8 120.268,113.467 121.5,119.5C 123.371,137.626 122.705,155.626 119.5,173.5C 119.737,174.791 119.404,175.791 118.5,176.5C 116.787,177.305 115.121,178.305 113.5,179.5C 114.428,180.768 114.595,182.101 114,183.5C 112.185,181.173 112.018,178.673 113.5,176C 113.15,174.743 112.483,174.409 111.5,175C 110.577,177.041 110.244,179.208 110.5,181.5C 100.494,181.334 90.4944,181.5 80.5,182C 79.8557,188.315 78.8557,194.482 77.5,200.5C 78.1655,192.517 78.4988,184.517 78.5,176.5C 79.4971,157.007 79.8304,137.34 79.5,117.5C 90.5899,116.87 101.423,117.537 112,119.5C 113,117.5 114,115.5 115,113.5C 116.304,121.194 116.971,128.861 117,136.5C 117.333,133.833 117.667,131.167 118,128.5C 119.471,127.619 120.304,126.286 120.5,124.5C 118.98,120.377 118.147,116.044 118,111.5C 116.644,112.38 115.144,112.714 113.5,112.5C 114.576,109.266 115.243,105.932 115.5,102.5 Z"/></g>
<g><path style="opacity:0.157" fill="#ebeae9" d="M 755.5,130.5 C 752.492,130.299 749.492,129.966 746.5,129.5C 744.307,129.326 742.473,129.993 741,131.5C 740.5,141.494 740.334,151.494 740.5,161.5C 743.385,161.194 746.052,161.527 748.5,162.5C 745.5,162.5 742.5,162.5 739.5,162.5C 739.189,151.448 739.522,140.448 740.5,129.5C 745.741,128.1 750.741,128.434 755.5,130.5 Z"/></g>
<g><path style="opacity:0.955" fill="#8fba8c" d="M 123.5,128.5 C 123.833,128.5 124.167,128.5 124.5,128.5C 125.764,137.512 125.764,146.512 124.5,155.5C 124.167,155.5 123.833,155.5 123.5,155.5C 123.5,146.5 123.5,137.5 123.5,128.5 Z"/></g>
<g><path style="opacity:0.552" fill="#d8d7d5" d="M 631.5,130.5 C 630.177,154.829 630.177,179.163 631.5,203.5C 630.71,202.391 630.21,201.058 630,199.5C 629.833,188 629.667,176.5 629.5,165C 629.501,153.147 630.168,141.647 631.5,130.5 Z"/></g>
<g><path style="opacity:0.999" fill="#c6c5c4" d="M 767.5,138.5 C 768.117,138.611 768.617,138.944 769,139.5C 769.839,144.227 770.839,148.894 772,153.5C 772.308,152.692 772.808,152.025 773.5,151.5C 774.517,154.028 775.684,154.028 777,151.5C 775.928,157.881 777.761,158.881 782.5,154.5C 780.563,158.106 777.897,161.106 774.5,163.5C 792.665,170.832 797.831,183.499 790,201.5C 784.416,209.375 776.916,214.375 767.5,216.5C 767.239,212.956 768.905,211.122 772.5,211C 771.5,210.667 770.5,210.333 769.5,210C 770.696,209.346 770.696,208.846 769.5,208.5C 767.929,209.309 766.262,209.643 764.5,209.5C 774.065,204.344 777.565,196.344 775,185.5C 773.998,181.836 772.164,178.669 769.5,176C 765.293,173.66 760.959,171.826 756.5,170.5C 760.154,170.058 763.821,169.724 767.5,169.5C 767.773,167.549 767.107,166.049 765.5,165C 769.032,163.082 769.032,161.582 765.5,160.5C 761.675,162.145 757.675,162.812 753.5,162.5C 767.829,160.54 772.496,152.54 767.5,138.5 Z"/></g>
<g><path style="opacity:1" fill="#6dae6e" d="M 30.5,152.5 C 31.1174,152.611 31.6174,152.944 32,153.5C 32.435,158.184 32.935,162.851 33.5,167.5C 33.1667,167.5 32.8333,167.5 32.5,167.5C 31.2318,165.095 30.5651,162.428 30.5,159.5C 30.5,157.167 30.5,154.833 30.5,152.5 Z"/></g>
<g><path style="opacity:0.894" fill="#fefefe" d="M 174.5,153.5 C 175.496,153.414 176.329,153.748 177,154.5C 177.813,156.436 178.313,158.436 178.5,160.5C 185.645,157.595 192.978,155.262 200.5,153.5C 204.114,153.804 207.448,154.971 210.5,157C 212.385,159.222 214.551,161.056 217,162.5C 223.878,157.979 231.378,154.979 239.5,153.5C 251.054,155.22 257.888,161.887 260,173.5C 260.333,185.167 260.667,196.833 261,208.5C 263.862,210.07 266.695,211.737 269.5,213.5C 270.953,215.644 270.62,217.477 268.5,219C 260.005,218.273 251.505,218.44 243,219.5C 238.314,219.87 236.314,217.87 237,213.5C 239.835,212.084 242.502,210.417 245,208.5C 246.483,199.213 246.816,189.879 246,180.5C 243.915,165.403 236.082,161.237 222.5,168C 221.299,168.903 220.465,170.069 220,171.5C 219.333,183.833 219.333,196.167 220,208.5C 223,210.167 226,211.833 229,213.5C 230.123,217.055 228.789,219.055 225,219.5C 217.356,218.331 209.689,218.331 202,219.5C 199.083,219.665 196.417,218.998 194,217.5C 193.289,215.633 193.789,214.133 195.5,213C 198.656,212.063 201.489,210.563 204,208.5C 205.937,196.826 205.937,185.159 204,173.5C 199.237,164.069 192.07,161.903 182.5,167C 180.667,168.167 179.167,169.667 178,171.5C 177.333,183.833 177.333,196.167 178,208.5C 180.424,210.652 183.257,211.985 186.5,212.5C 189.646,217.062 188.313,219.396 182.5,219.5C 173.186,218.747 163.853,218.247 154.5,218C 153.446,216.612 153.28,215.112 154,213.5C 156.071,212.475 158.238,211.642 160.5,211C 161.701,210.097 162.535,208.931 163,207.5C 163.667,194.833 163.667,182.167 163,169.5C 159.639,166.76 156.472,163.927 153.5,161C 153.645,160.228 153.978,159.561 154.5,159C 161.605,158.328 168.272,156.494 174.5,153.5 Z"/></g>
<g><path style="opacity:0.898" fill="#fefefe" d="M 308.5,153.5 C 326.798,151.719 338.964,159.386 345,176.5C 348.934,198.879 340.101,213.379 318.5,220C 289.494,221.324 276.661,207.491 280,178.5C 284.707,164.622 294.207,156.289 308.5,153.5 Z M 306.5,161.5 C 320.077,161.903 327.91,168.903 330,182.5C 331.073,190.017 330.406,197.35 328,204.5C 322.024,213.137 314.524,214.637 305.5,209C 297.607,201.797 293.94,192.797 294.5,182C 293.814,172.233 297.814,165.4 306.5,161.5 Z"/></g>
<g><path style="opacity:0.906" fill="#fefefe" d="M 379.5,153.5 C 380.583,153.539 381.583,153.873 382.5,154.5C 383.135,156.783 384.468,158.449 386.5,159.5C 390.828,157.67 395.162,155.836 399.5,154C 413.877,152.041 422.377,158.208 425,172.5C 425.333,183.833 425.667,195.167 426,206.5C 426.309,207.766 426.809,208.933 427.5,210C 431.04,210.734 434.373,211.901 437.5,213.5C 438.471,214.962 438.138,216.295 436.5,217.5C 435.5,218 434.5,218.5 433.5,219C 422.818,219.832 412.151,219.666 401.5,218.5C 400.515,216.902 400.349,215.235 401,213.5C 403.333,212.123 405.833,211.123 408.5,210.5C 409.192,209.975 409.692,209.308 410,208.5C 410.667,197.167 410.667,185.833 410,174.5C 407.89,168.546 403.723,165.546 397.5,165.5C 393.944,165.445 390.611,166.278 387.5,168C 385.513,169.319 384.346,171.152 384,173.5C 383.334,185.524 383.668,197.524 385,209.5C 387.659,210.935 390.492,211.935 393.5,212.5C 396.043,217.07 394.543,219.736 389,220.5C 378.945,219.882 368.945,219.216 359,218.5C 358.333,216.833 358.333,215.167 359,213.5C 361.304,211.932 363.804,210.765 366.5,210C 367.191,208.933 367.691,207.766 368,206.5C 368.667,194.5 368.667,182.5 368,170.5C 365.975,167.562 363.142,165.728 359.5,165C 356.833,163 356.833,161 359.5,159C 366.539,158.076 373.206,156.243 379.5,153.5 Z"/></g>
<g><path style="opacity:0.9" fill="#fdfdfd" d="M 472.5,153.5 C 476.514,153.334 480.514,153.501 484.5,154C 490.272,155.735 496.105,157.235 502,158.5C 505.134,157.9 508.134,156.9 511,155.5C 514.267,158.883 514.1,162.383 510.5,166C 507.945,167.444 505.279,168.611 502.5,169.5C 501.778,188.728 491.778,199.561 472.5,202C 470.342,203.312 470.009,204.978 471.5,207C 478.103,208.163 484.77,208.83 491.5,209C 507.976,210.12 514.476,218.62 511,234.5C 502.942,249.539 490.275,257.206 473,257.5C 463.114,257.874 455.114,254.208 449,246.5C 446.149,241.32 445.815,235.987 448,230.5C 451.534,226.631 455.367,223.131 459.5,220C 456.478,217.311 453.811,214.311 451.5,211C 451.862,209.775 452.362,208.609 453,207.5C 455.827,205.506 458.327,203.172 460.5,200.5C 447.936,190.632 445.436,178.632 453,164.5C 458.617,159.112 465.117,155.446 472.5,153.5 Z M 470.5,161.5 C 477.265,160.469 482.432,162.802 486,168.5C 488.21,175.307 487.877,181.973 485,188.5C 479.071,193.779 473.071,193.779 467,188.5C 463.063,181.881 462.063,174.881 464,167.5C 465.494,164.686 467.66,162.686 470.5,161.5 Z M 470.5,221.5 C 479.763,220.874 488.43,222.707 496.5,227C 500.807,233.782 499.807,239.782 493.5,245C 483.602,249.953 473.935,249.619 464.5,244C 459.135,239.514 458.301,234.347 462,228.5C 464.441,225.546 467.275,223.213 470.5,221.5 Z"/></g>
<g><path style="opacity:0.901" fill="#fefefe" d="M 550.5,153.5 C 573.981,151.817 586.981,162.651 589.5,186C 587.249,206.42 575.915,218.253 555.5,221.5C 529.885,217.985 519.052,203.318 523,177.5C 524.838,169.987 529.004,164.153 535.5,160C 540.367,157.226 545.367,155.059 550.5,153.5 Z M 549.5,161.5 C 563.988,162.153 571.822,169.82 573,184.5C 574.212,193.415 572.379,201.582 567.5,209C 558.47,214.221 550.636,212.721 544,204.5C 537.066,193.51 535.732,181.843 540,169.5C 542.161,165.495 545.328,162.829 549.5,161.5 Z"/></g>
<g><path style="opacity:0.006" fill="#e6f7e6" d="M 123.5,155.5 C 123.833,155.5 124.167,155.5 124.5,155.5C 124.802,159.79 124.136,163.79 122.5,167.5C 123.021,163.519 123.354,159.519 123.5,155.5 Z"/></g>
<g><path style="opacity:0.18" fill="#e7e6e5" d="M 682.5,162.5 C 683.164,165.146 683.498,167.979 683.5,171C 683.674,175.442 683.007,179.609 681.5,183.5C 682.29,176.529 682.623,169.529 682.5,162.5 Z"/></g>
<g><path style="opacity:0.337" fill="#c2e4c1" d="M 32.5,167.5 C 32.8333,167.5 33.1667,167.5 33.5,167.5C 34.5,171.5 35.5,175.5 36.5,179.5C 34.1939,175.915 32.8606,171.915 32.5,167.5 Z"/></g>
<g><path style="opacity:0.18" fill="#d6edd3" d="M 122.5,167.5 C 122.139,171.915 120.806,175.915 118.5,179.5C 118.5,178.5 118.5,177.5 118.5,176.5C 119.404,175.791 119.737,174.791 119.5,173.5C 120.5,171.5 121.5,169.5 122.5,167.5 Z"/></g>
<g><path style="opacity:1" fill="#83bc85" d="M 36.5,179.5 C 37.7206,180.028 38.8873,180.695 40,181.5C 41.1798,184.521 42.3465,187.521 43.5,190.5C 43.5,191.5 43.5,192.5 43.5,193.5C 40.6589,189.151 38.3255,184.484 36.5,179.5 Z"/></g>
<g><path style="opacity:1" fill="#429445" d="M 118.5,176.5 C 118.5,177.5 118.5,178.5 118.5,179.5C 118.293,182.241 117.293,184.574 115.5,186.5C 114.326,187.514 113.66,188.847 113.5,190.5C 112.094,190.973 111.427,191.973 111.5,193.5C 110.153,192.829 108.986,192.829 108,193.5C 107.506,195.134 107.34,196.801 107.5,198.5C 106.5,198.5 105.5,198.5 104.5,198.5C 104.5,199.833 104.5,201.167 104.5,202.5C 102.508,202.672 100.842,202.005 99.5,200.5C 99.1667,200.833 98.8333,201.167 98.5,201.5C 100.559,202.951 101.559,204.951 101.5,207.5C 98.1032,208.568 96.1032,210.901 95.5,214.5C 94.448,214.351 93.448,214.517 92.5,215C 92.8333,215.333 93.1667,215.667 93.5,216C 91.0671,217.13 88.7338,218.296 86.5,219.5C 84.2776,219.822 82.4443,219.155 81,217.5C 80.6667,214.5 80.3333,211.5 80,208.5C 79.6264,206.509 78.793,204.842 77.5,203.5C 77.5,202.5 77.5,201.5 77.5,200.5C 78.8557,194.482 79.8557,188.315 80.5,182C 90.4944,181.5 100.494,181.334 110.5,181.5C 110.244,179.208 110.577,177.041 111.5,175C 112.483,174.409 113.15,174.743 113.5,176C 112.018,178.673 112.185,181.173 114,183.5C 114.595,182.101 114.428,180.768 113.5,179.5C 115.121,178.305 116.787,177.305 118.5,176.5 Z"/></g>
<g><path style="opacity:0.112" fill="#eeeceb" d="M 754.5,170.5 C 749.833,170.5 745.167,170.5 740.5,170.5C 740.5,181.167 740.5,191.833 740.5,202.5C 739.505,191.679 739.172,180.679 739.5,169.5C 744.695,169.179 749.695,169.513 754.5,170.5 Z"/></g>
<g><path style="opacity:0.11" fill="#cee4cb" d="M 115.5,186.5 C 115.771,188.38 115.104,189.713 113.5,190.5C 113.66,188.847 114.326,187.514 115.5,186.5 Z"/></g>
<g><path style="opacity:1" fill="#55a657" d="M 54.5,206.5 C 53.8333,206.5 53.1667,206.5 52.5,206.5C 51.8333,205.5 51.1667,204.5 50.5,203.5C 50.4456,201.368 49.4456,200.035 47.5,199.5C 45.8079,197.795 44.4746,195.795 43.5,193.5C 43.5,192.5 43.5,191.5 43.5,190.5C 45.0744,190.063 46.2411,189.063 47,187.5C 47.5855,189.129 48.4188,190.629 49.5,192C 48.394,193.882 48.394,195.716 49.5,197.5C 50.1476,195.851 51.1476,194.518 52.5,193.5C 52.8333,194 53.1667,194.5 53.5,195C 52.6119,196.22 51.9452,197.553 51.5,199C 51.8436,201.827 52.8436,204.327 54.5,206.5 Z"/></g>
<g><path style="opacity:0.329" fill="#bcd8c1" d="M 113.5,190.5 C 113.34,192.153 112.674,193.486 111.5,194.5C 111.5,194.167 111.5,193.833 111.5,193.5C 111.427,191.973 112.094,190.973 113.5,190.5 Z"/></g>
<g><path style="opacity:0.094" fill="#cce9cd" d="M 111.5,194.5 C 111.573,196.027 110.906,197.027 109.5,197.5C 109.427,195.973 110.094,194.973 111.5,194.5 Z"/></g>
<g><path style="opacity:0.537" fill="#b2d9b2" d="M 47.5,199.5 C 49.4456,200.035 50.4456,201.368 50.5,203.5C 49.0256,202.564 48.0256,201.23 47.5,199.5 Z"/></g>
<g><path style="opacity:1" fill="#569656" d="M 111.5,193.5 C 111.5,193.833 111.5,194.167 111.5,194.5C 110.094,194.973 109.427,195.973 109.5,197.5C 109.573,199.027 108.906,200.027 107.5,200.5C 106.094,200.973 105.427,201.973 105.5,203.5C 104.094,203.973 103.427,204.973 103.5,206.5C 103.5,207.167 103.167,207.5 102.5,207.5C 102.167,207.5 101.833,207.5 101.5,207.5C 101.559,204.951 100.559,202.951 98.5,201.5C 98.8333,201.167 99.1667,200.833 99.5,200.5C 100.842,202.005 102.508,202.672 104.5,202.5C 104.5,201.167 104.5,199.833 104.5,198.5C 105.5,198.5 106.5,198.5 107.5,198.5C 107.34,196.801 107.506,195.134 108,193.5C 108.986,192.829 110.153,192.829 111.5,193.5 Z"/></g>
<g><path style="opacity:0.063" fill="#d0ecd1" d="M 107.5,200.5 C 107.573,202.027 106.906,203.027 105.5,203.5C 105.427,201.973 106.094,200.973 107.5,200.5 Z"/></g>
<g><path style="opacity:0.004" fill="#e2f0e2" d="M 105.5,203.5 C 105.573,205.027 104.906,206.027 103.5,206.5C 103.427,204.973 104.094,203.973 105.5,203.5 Z"/></g>
<g><path style="opacity:0.565" fill="#b6e0b9" d="M 52.5,206.5 C 53.1667,206.5 53.8333,206.5 54.5,206.5C 55.1098,207.391 55.4431,208.391 55.5,209.5C 54.1667,208.833 53.1667,207.833 52.5,206.5 Z"/></g>
<g><path style="opacity:1" fill="#79b478" d="M 55.5,209.5 C 58.179,209.525 59.5123,210.858 59.5,213.5C 57.8333,212.5 56.5,211.167 55.5,209.5 Z"/></g>
<g><path style="opacity:0.784" fill="#dadada" d="M 816.5,192.5 C 828.324,194.475 832.49,201.142 829,212.5C 821.372,221.712 813.705,221.712 806,212.5C 802.426,201.977 805.926,195.311 816.5,192.5 Z M 823.5,197.5 C 827.861,201.962 828.528,206.962 825.5,212.5C 823.156,212.021 821.822,210.521 821.5,208C 824.071,204.615 824.071,201.281 821.5,198C 822.094,197.536 822.761,197.369 823.5,197.5 Z M 818.5,209.5 C 818.433,210.959 818.766,212.292 819.5,213.5C 819.611,214.117 819.944,214.617 820.5,215C 818.5,215.667 816.5,215.667 814.5,215C 815.615,212.869 816.948,211.035 818.5,209.5 Z M 817.5,201.5 C 819.465,201.948 819.798,202.948 818.5,204.5C 816.481,203.867 816.147,202.867 817.5,201.5 Z M 811.5,198.5 C 812.237,203.431 812.404,208.431 812,213.5C 807.527,208.639 807.361,203.639 811.5,198.5 Z"/></g>
<g><path style="opacity:0.176" fill="#f0f0f0" d="M 823.5,197.5 C 822.761,197.369 822.094,197.536 821.5,198C 824.071,201.281 824.071,204.615 821.5,208C 821.822,210.521 823.156,212.021 825.5,212.5C 822.401,216.24 818.401,217.407 813.5,216C 804.877,210.541 804.21,204.208 811.5,197C 815.722,194.87 819.722,195.036 823.5,197.5 Z M 818.5,209.5 C 818.433,210.959 818.766,212.292 819.5,213.5C 819.611,214.117 819.944,214.617 820.5,215C 818.5,215.667 816.5,215.667 814.5,215C 815.615,212.869 816.948,211.035 818.5,209.5 Z M 817.5,201.5 C 816.147,202.867 816.481,203.867 818.5,204.5C 819.798,202.948 819.465,201.948 817.5,201.5 Z M 811.5,198.5 C 807.361,203.639 807.527,208.639 812,213.5C 812.404,208.431 812.237,203.431 811.5,198.5 Z"/></g>
<g><path style="opacity:0.849" fill="#c6c6c6" d="M 819.5,213.5 C 818.766,212.292 818.433,210.959 818.5,209.5C 817.713,207.896 816.38,207.229 814.5,207.5C 814.662,209.527 814.495,211.527 814,213.5C 813.501,208.511 813.334,203.511 813.5,198.5C 820.107,196.749 822.607,199.082 821,205.5C 821.197,200.886 819.031,198.886 814.5,199.5C 813.425,203.938 815.092,205.938 819.5,205.5C 819.724,207.787 820.391,209.953 821.5,212C 821.164,213.03 820.497,213.53 819.5,213.5 Z M 817.5,201.5 C 816.147,202.867 816.481,203.867 818.5,204.5C 819.798,202.948 819.465,201.948 817.5,201.5 Z"/></g>
<g><path style="opacity:0.957" fill="#82af84" d="M 101.5,207.5 C 101.833,207.5 102.167,207.5 102.5,207.5C 98.5,213.5 93.5,218.5 87.5,222.5C 87.4431,221.391 87.1098,220.391 86.5,219.5C 88.7338,218.296 91.0671,217.13 93.5,216C 93.1667,215.667 92.8333,215.333 92.5,215C 93.448,214.517 94.448,214.351 95.5,214.5C 96.1032,210.901 98.1032,208.568 101.5,207.5 Z"/></g>
<g><path style="opacity:0.576" fill="#e7e6e6" d="M 602.5,213.5 C 602.5,214.833 602.5,216.167 602.5,217.5C 617.828,218.031 633.161,218.364 648.5,218.5C 634.519,219.168 620.519,219.501 606.5,219.5C 602.16,219.268 600.827,217.268 602.5,213.5 Z"/></g>
<g><path style="opacity:1" fill="#6baa6f" d="M 59.5,213.5 C 62.267,213.87 64.267,215.204 65.5,217.5C 66.1667,218.167 66.8333,218.833 67.5,219.5C 66.8333,219.5 66.1667,219.5 65.5,219.5C 63.1667,217.833 61.1667,215.833 59.5,213.5 Z"/></g>
<g><path style="opacity:0.173" fill="#e7e6e6" d="M 710.5,214.5 C 710.5,215.5 710.5,216.5 710.5,217.5C 727.849,218.235 745.183,218.235 762.5,217.5C 760.708,218.309 758.708,218.809 756.5,219C 741.787,219.076 727.12,219.243 712.5,219.5C 709.781,218.424 709.114,216.757 710.5,214.5 Z"/></g>
<g><path style="opacity:0.812" fill="#afd9b1" d="M 65.5,219.5 C 66.1667,219.5 66.8333,219.5 67.5,219.5C 68.5,220.833 69.5,222.167 70.5,223.5C 68.2512,222.92 66.5846,221.587 65.5,219.5 Z"/></g>
<g><path style="opacity:1" fill="#629858" d="M 77.5,203.5 C 78.793,204.842 79.6264,206.509 80,208.5C 80.3333,211.5 80.6667,214.5 81,217.5C 82.4443,219.155 84.2776,219.822 86.5,219.5C 87.1098,220.391 87.4431,221.391 87.5,222.5C 85.712,222.785 84.0453,222.452 82.5,221.5C 80.2745,218.836 78.6078,215.836 77.5,212.5C 76.8319,214.969 76.1653,217.302 75.5,219.5C 75.3343,215.154 75.501,210.821 76,206.5C 76.2321,205.263 76.7321,204.263 77.5,203.5 Z"/></g>
<g><path style="opacity:1" fill="#b2b597" d="M 87.5,222.5 C 87.1583,223.338 86.4916,223.672 85.5,223.5C 83.0289,223.233 81.3622,224.233 80.5,226.5C 79.6668,230.832 78.8335,235.165 78,239.5C 77.6264,237.509 76.793,235.842 75.5,234.5C 75.2891,230.818 73.9558,227.818 71.5,225.5C 71.1667,224.833 70.8333,224.167 70.5,223.5C 72.1667,223.5 73.8333,223.5 75.5,223.5C 75.5,222.167 75.5,220.833 75.5,219.5C 76.1653,217.302 76.8319,214.969 77.5,212.5C 78.6078,215.836 80.2745,218.836 82.5,221.5C 84.0453,222.452 85.712,222.785 87.5,222.5 Z"/></g>
<g><path style="opacity:1" fill="#c9c9b5" d="M 85.5,223.5 C 84.4918,225.544 83.4918,227.544 82.5,229.5C 81.0106,235.786 79.344,242.12 77.5,248.5C 76.4683,243.88 75.8017,239.214 75.5,234.5C 76.793,235.842 77.6264,237.509 78,239.5C 78.8335,235.165 79.6668,230.832 80.5,226.5C 81.3622,224.233 83.0289,223.233 85.5,223.5 Z"/></g>
<g><path style="opacity:0.851" fill="#e5e6db" d="M 71.5,225.5 C 73.9558,227.818 75.2891,230.818 75.5,234.5C 75.8017,239.214 76.4683,243.88 77.5,248.5C 79.344,242.12 81.0106,235.786 82.5,229.5C 82.6663,236.508 82.4996,243.508 82,250.5C 79.7328,251.935 77.7328,251.602 76,249.5C 75.311,241.297 73.811,233.297 71.5,225.5 Z"/></g>
</svg>
