<?xml version="1.0" encoding="UTF-8"?>
<!DOCTYPE svg PUBLIC "-//W3C//DTD SVG 1.1//EN" "http://www.w3.org/Graphics/SVG/1.1/DTD/svg11.dtd">
<svg xmlns="http://www.w3.org/2000/svg" version="1.1" width="277px" height="182px" style="shape-rendering:geometricPrecision; text-rendering:geometricPrecision; image-rendering:optimizeQuality; fill-rule:evenodd; clip-rule:evenodd" xmlns:xlink="http://www.w3.org/1999/xlink">
<g><path style="opacity:1" fill="#79e3f2" d="M 103.5,4.5 C 110.354,2.88513 116.688,4.21846 122.5,8.5C 116.166,7.16651 109.833,5.83318 103.5,4.5 Z"/></g>
<g><path style="opacity:1" fill="#76e5f4" d="M 165.5,11.5 C 171.754,8.69225 175.087,10.6922 175.5,17.5C 173.805,12.9783 170.472,10.9783 165.5,11.5 Z"/></g>
<g><path style="opacity:1" fill="#52dbef" d="M 122.5,8.5 C 124.368,9.26315 126.035,10.2632 127.5,11.5C 125.42,12.0444 123.42,12.8777 121.5,14C 124.866,15.6521 127.199,18.1521 128.5,21.5C 123.035,17.1031 117.035,13.7698 110.5,11.5C 114.034,11.4683 117.201,11.8017 120,12.5C 121.706,11.6921 122.539,10.3588 122.5,8.5 Z"/></g>
<g><path style="opacity:1" fill="#76e4f2" d="M 110.5,11.5 C 107.138,11.0695 104.305,12.0695 102,14.5C 101.159,17.6282 100.325,20.6282 99.5,23.5C 99.0084,19.5435 99.6751,15.8768 101.5,12.5C 100.975,11.8076 100.308,11.3076 99.5,11C 103.358,10.1901 107.024,10.3567 110.5,11.5 Z"/></g>
<g><path style="opacity:1" fill="#41dbf5" d="M 163.5,4.5 C 162.722,5.15561 162.056,5.98894 161.5,7C 162.424,8.14998 162.424,9.14998 161.5,10C 162.244,11.0386 163.244,11.5386 164.5,11.5C 156.748,14.5786 149.748,18.912 143.5,24.5C 141.579,21.1698 138.579,19.5032 134.5,19.5C 134.649,20.552 134.483,21.552 134,22.5C 133.346,21.3044 132.846,21.3044 132.5,22.5C 135.163,24.516 134.83,25.8493 131.5,26.5C 131.279,24.3364 130.279,22.6697 128.5,21.5C 127.199,18.1521 124.866,15.6521 121.5,14C 123.42,12.8777 125.42,12.0444 127.5,11.5C 130.857,14.0188 134.357,16.3521 138,18.5C 142.489,15.3481 146.989,12.1814 151.5,9C 155.219,6.63609 159.219,5.13609 163.5,4.5 Z"/></g>
<g><path style="opacity:1" fill="#6ee0f0" d="M 177.5,7.5 C 179.708,8.89361 181.208,10.8936 182,13.5C 184.909,24.1019 185.076,34.7686 182.5,45.5C 184.553,45.4021 186.22,46.0687 187.5,47.5C 185.5,47.5 183.5,47.5 181.5,47.5C 181.296,45.3146 180.63,43.3146 179.5,41.5C 181.777,40.1382 182.11,38.3049 180.5,36C 182.015,33.4312 182.681,30.5979 182.5,27.5C 181.651,20.6208 179.984,13.9541 177.5,7.5 Z"/></g>
<g><path style="opacity:1" fill="#93eaf7" d="M 99.5,31.5 C 100.402,34.9968 101.069,38.6634 101.5,42.5C 101.167,42.5 100.833,42.5 100.5,42.5C 99.6561,38.9009 99.3227,35.2343 99.5,31.5 Z"/></g>
<g><path style="opacity:1" fill="#2bdaf9" d="M 177.5,7.5 C 179.984,13.9541 181.651,20.6208 182.5,27.5C 182.681,30.5979 182.015,33.4312 180.5,36C 182.11,38.3049 181.777,40.1382 179.5,41.5C 178.685,40.5707 177.852,39.5707 177,38.5C 177.207,40.7513 177.373,43.0846 177.5,45.5C 174.104,45.6329 173.771,46.6329 176.5,48.5C 175.667,48.8333 174.833,49.1667 174,49.5C 170.142,47.2165 165.976,46.3831 161.5,47C 160.495,48.5067 159.162,49.6733 157.5,50.5C 158.145,52.4321 159.479,53.5988 161.5,54C 160.892,54.8699 160.059,55.3699 159,55.5C 157.923,54.5705 156.756,53.9038 155.5,53.5C 153.249,48.3422 149.249,46.0089 143.5,46.5C 137.013,45.346 130.346,45.1794 123.5,46C 121.808,47.4007 121.141,49.2341 121.5,51.5C 120.007,50.6879 119.34,49.3545 119.5,47.5C 121.286,45.1795 122.453,42.5129 123,39.5C 125.202,37.0655 127.702,35.7322 130.5,35.5C 131.298,35.9569 131.631,36.6236 131.5,37.5C 130.957,37.56 130.624,37.8933 130.5,38.5C 135.5,39.8333 140.5,39.8333 145.5,38.5C 145.376,37.8933 145.043,37.56 144.5,37.5C 142.413,36.4154 141.08,34.7488 140.5,32.5C 142.121,29.4382 141.621,26.7716 139,24.5C 137.706,25.8544 137.54,27.1877 138.5,28.5C 135.579,30.9156 133.246,30.2489 131.5,26.5C 134.83,25.8493 135.163,24.516 132.5,22.5C 132.846,21.3044 133.346,21.3044 134,22.5C 134.483,21.552 134.649,20.552 134.5,19.5C 138.579,19.5032 141.579,21.1698 143.5,24.5C 147.167,29.1667 150.833,33.8333 154.5,38.5C 154.62,39.5862 155.287,40.2528 156.5,40.5C 159.115,41.2692 161.781,41.6025 164.5,41.5C 166.95,41.298 169.283,41.6314 171.5,42.5C 172.568,43.4345 173.901,43.7678 175.5,43.5C 175.5,41.8333 175.5,40.1667 175.5,38.5C 176.672,31.4889 176.672,24.4889 175.5,17.5C 175.087,10.6922 171.754,8.69225 165.5,11.5C 165.167,11.5 164.833,11.5 164.5,11.5C 163.244,11.5386 162.244,11.0386 161.5,10C 162.424,9.14998 162.424,8.14998 161.5,7C 162.056,5.98894 162.722,5.15561 163.5,4.5C 166.304,3.36216 169.304,3.19549 172.5,4C 174.584,4.69724 176.251,5.8639 177.5,7.5 Z"/></g>
<g><path style="opacity:0.106" fill="#c3feff" d="M 131.5,37.5 C 135.833,38.8333 140.167,38.8333 144.5,37.5C 145.043,37.56 145.376,37.8933 145.5,38.5C 140.5,39.8333 135.5,39.8333 130.5,38.5C 130.624,37.8933 130.957,37.56 131.5,37.5 Z"/></g>
<g><path style="opacity:0.071" fill="#a1f6fa" d="M 154.5,38.5 C 157.924,39.5095 161.257,40.5095 164.5,41.5C 161.781,41.6025 159.115,41.2692 156.5,40.5C 155.287,40.2528 154.62,39.5862 154.5,38.5 Z"/></g>
<g><path style="opacity:1" fill="#3ddcf7" d="M 179.5,41.5 C 180.63,43.3146 181.296,45.3146 181.5,47.5C 183.5,47.5 185.5,47.5 187.5,47.5C 187.833,47.5 188.167,47.5 188.5,47.5C 189.116,49.4171 190.45,50.5838 192.5,51C 190.319,53.078 188.319,52.9114 186.5,50.5C 185.859,51.9935 184.859,52.9935 183.5,53.5C 182.022,53.238 180.689,53.5713 179.5,54.5C 178.198,58.7628 176.531,62.7628 174.5,66.5C 174.762,65.0222 174.429,63.6888 173.5,62.5C 172.914,62.7093 172.414,63.0426 172,63.5C 169.196,61.6556 166.03,60.9889 162.5,61.5C 162.5,62.5 162.5,63.5 162.5,64.5C 159.931,61.039 157.597,57.3723 155.5,53.5C 156.756,53.9038 157.923,54.5705 159,55.5C 160.059,55.3699 160.892,54.8699 161.5,54C 159.479,53.5988 158.145,52.4321 157.5,50.5C 159.162,49.6733 160.495,48.5067 161.5,47C 165.976,46.3831 170.142,47.2165 174,49.5C 174.833,49.1667 175.667,48.8333 176.5,48.5C 173.771,46.6329 174.104,45.6329 177.5,45.5C 177.373,43.0846 177.207,40.7513 177,38.5C 177.852,39.5707 178.685,40.5707 179.5,41.5 Z M 162.5,48.5 C 165.865,49.1404 169.198,49.9738 172.5,51C 171.453,53.9788 170.119,56.8121 168.5,59.5C 166.221,55.9392 164.221,52.2726 162.5,48.5 Z"/></g>
<g><path style="opacity:1" fill="#91e8f4" d="M 120.5,39.5 C 120.389,40.1174 120.056,40.6174 119.5,41C 116.518,41.498 113.518,41.6646 110.5,41.5C 113.627,40.4192 116.96,39.7526 120.5,39.5 Z"/></g>
<g><path style="opacity:1" fill="#37dcf7" d="M 140.5,32.5 C 139.542,32.0472 138.708,31.3805 138,30.5C 135.817,32.9071 133.65,35.2404 131.5,37.5C 131.631,36.6236 131.298,35.9569 130.5,35.5C 127.702,35.7322 125.202,37.0655 123,39.5C 122.453,42.5129 121.286,45.1795 119.5,47.5C 119.34,49.3545 120.007,50.6879 121.5,51.5C 117.626,57.9144 114.293,64.5811 111.5,71.5C 110.778,71.0825 110.278,70.4158 110,69.5C 107.108,70.8419 105.775,73.1752 106,76.5C 104.703,74.2183 104.203,71.8849 104.5,69.5C 103.748,72.2629 102.748,74.9296 101.5,77.5C 101.043,78.2975 100.376,78.6309 99.5,78.5C 100.487,75.8544 101.487,73.1878 102.5,70.5C 101.628,68.5504 100.961,66.5504 100.5,64.5C 101.5,64.5 102.5,64.5 103.5,64.5C 103.704,61.4824 104.037,58.4824 104.5,55.5C 105.793,56.842 106.626,58.5087 107,60.5C 109.446,56.6056 111.612,52.6056 113.5,48.5C 114.684,47.3121 114.684,46.1455 113.5,45C 109.928,43.5951 106.261,43.2617 102.5,44C 103.731,45.1827 103.731,46.3493 102.5,47.5C 101.438,45.9783 100.771,44.3117 100.5,42.5C 100.833,42.5 101.167,42.5 101.5,42.5C 104.482,42.0371 107.482,41.7038 110.5,41.5C 113.518,41.6646 116.518,41.498 119.5,41C 120.056,40.6174 120.389,40.1174 120.5,39.5C 123.821,34.8482 127.487,30.5149 131.5,26.5C 133.246,30.2489 135.579,30.9156 138.5,28.5C 137.54,27.1877 137.706,25.8544 139,24.5C 141.621,26.7716 142.121,29.4382 140.5,32.5 Z"/></g>
<g><path style="opacity:0.718" fill="#9df1fc" d="M 175.5,38.5 C 175.5,40.1667 175.5,41.8333 175.5,43.5C 173.901,43.7678 172.568,43.4345 171.5,42.5C 172.5,42.5 173.5,42.5 174.5,42.5C 174.232,40.901 174.566,39.5676 175.5,38.5 Z"/></g>
<g><path style="opacity:0.769" fill="#79e3f4" d="M 143.5,46.5 C 137.12,46.3928 130.787,46.8928 124.5,48C 123.364,49.1451 122.364,50.3117 121.5,51.5C 121.141,49.2341 121.808,47.4007 123.5,46C 130.346,45.1794 137.013,45.346 143.5,46.5 Z"/></g>
<g><path style="opacity:1" fill="#28d9f9" d="M 103.5,4.5 C 109.833,5.83318 116.166,7.16651 122.5,8.5C 122.539,10.3588 121.706,11.6921 120,12.5C 117.201,11.8017 114.034,11.4683 110.5,11.5C 107.024,10.3567 103.358,10.1901 99.5,11C 100.308,11.3076 100.975,11.8076 101.5,12.5C 99.6751,15.8768 99.0084,19.5435 99.5,23.5C 99.5,26.1667 99.5,28.8333 99.5,31.5C 99.3227,35.2343 99.6561,38.9009 100.5,42.5C 100.771,44.3117 101.438,45.9783 102.5,47.5C 103.731,46.3493 103.731,45.1827 102.5,44C 106.261,43.2617 109.928,43.5951 113.5,45C 114.684,46.1455 114.684,47.3121 113.5,48.5C 110.011,48.9974 106.677,49.9974 103.5,51.5C 104.246,52.7362 104.579,54.0695 104.5,55.5C 104.037,58.4824 103.704,61.4824 103.5,64.5C 102.5,64.5 101.5,64.5 100.5,64.5C 99.596,63.791 99.2627,62.791 99.5,61.5C 99.4234,57.8539 98.4234,54.5206 96.5,51.5C 93.6549,51.7657 91.3216,52.7657 89.5,54.5C 88.4863,55.6737 87.153,56.3404 85.5,56.5C 83.4588,56.8541 81.6255,56.8541 80,56.5C 78.8289,57.8932 77.3289,58.7265 75.5,59C 74.6198,60.3561 74.2865,61.8561 74.5,63.5C 71.1124,64.0306 69.1124,62.6973 68.5,59.5C 76.2271,54.3105 84.5604,50.1438 93.5,47C 94.807,45.0565 94.807,43.2232 93.5,41.5C 90.25,30.501 91.0833,19.8343 96,9.5C 97.8567,6.80017 100.357,5.1335 103.5,4.5 Z"/></g>
<g><path style="opacity:1" fill="#3edbf6" d="M 188.5,47.5 C 198.212,50.5106 205.878,56.1772 211.5,64.5C 211.5,68.1667 211.5,71.8333 211.5,75.5C 211.155,78.1979 209.822,80.1979 207.5,81.5C 206.178,81.67 205.011,81.3366 204,80.5C 203.982,78.2028 204.149,75.8695 204.5,73.5C 205.792,68.5656 204.125,64.7323 199.5,62C 194.232,58.8683 188.899,56.0349 183.5,53.5C 184.859,52.9935 185.859,51.9935 186.5,50.5C 188.319,52.9114 190.319,53.078 192.5,51C 190.45,50.5838 189.116,49.4171 188.5,47.5 Z"/></g>
<g><path style="opacity:1" fill="#58ddee" d="M 93.5,41.5 C 94.807,43.2232 94.807,45.0565 93.5,47C 84.5604,50.1438 76.2271,54.3105 68.5,59.5C 75.4446,52.5234 83.778,47.8568 93.5,45.5C 93.5,44.1667 93.5,42.8333 93.5,41.5 Z"/></g>
<g><path style="opacity:1" fill="#72e1ef" d="M 99.5,61.5 C 97.7329,59.2084 96.7329,56.5418 96.5,53.5C 94.139,53.6741 91.8056,54.0074 89.5,54.5C 91.3216,52.7657 93.6549,51.7657 96.5,51.5C 98.4234,54.5206 99.4234,57.8539 99.5,61.5 Z"/></g>
<g><path style="opacity:1" fill="#8ce4ef" d="M 143.5,57.5 C 139.833,57.5 136.167,57.5 132.5,57.5C 136.167,54.8333 139.833,54.8333 143.5,57.5 Z"/></g>
<g><path style="opacity:1" fill="#26dbfb" d="M 132.5,57.5 C 136.167,57.5 139.833,57.5 143.5,57.5C 152.579,62.2413 154.746,69.2413 150,78.5C 145.47,84.1706 139.637,86.004 132.5,84C 130.34,83.0041 128.673,81.5041 127.5,79.5C 126.429,76.0529 125.429,72.5529 124.5,69C 125.233,67.2341 125.567,65.4008 125.5,63.5C 126.812,60.3392 129.145,58.3392 132.5,57.5 Z"/></g>
<g><path style="opacity:1" fill="#60dcf0" d="M 85.5,56.5 C 81.7004,58.5698 78.0338,60.9031 74.5,63.5C 74.2865,61.8561 74.6198,60.3561 75.5,59C 77.3289,58.7265 78.8289,57.8932 80,56.5C 81.6255,56.8541 83.4588,56.8541 85.5,56.5 Z"/></g>
<g><path style="opacity:1" fill="#87e3f1" d="M 211.5,64.5 C 214.011,68.1917 214.011,71.8583 211.5,75.5C 211.5,71.8333 211.5,68.1667 211.5,64.5 Z"/></g>
<g><path style="opacity:1" fill="#29daf9" d="M 111.5,71.5 C 115.069,78.3024 118.902,84.9691 123,91.5C 124.916,93.0223 127.083,94.0223 129.5,94.5C 129.953,95.4584 130.619,96.2917 131.5,97C 127.33,95.6479 124.663,97.1479 123.5,101.5C 123.5,102.167 123.167,102.5 122.5,102.5C 122.586,101.504 122.252,100.671 121.5,100C 118.183,99.5017 114.85,99.335 111.5,99.5C 109.265,99.7947 107.265,99.4614 105.5,98.5C 104.903,97.8614 104.07,97.528 103,97.5C 101.624,97.6842 100.791,98.3509 100.5,99.5C 99.8826,99.6107 99.3826,99.944 99,100.5C 98.8028,108.549 98.3028,116.549 97.5,124.5C 98.5063,125.396 98.5063,126.062 97.5,126.5C 96.8243,125.398 96.1577,124.398 95.5,123.5C 94.6618,123.158 94.3284,122.492 94.5,121.5C 94.3338,115.158 94.5005,108.825 95,102.5C 95.2117,100.22 96.0451,98.2199 97.5,96.5C 95.8333,95.3333 94.1667,94.1667 92.5,93C 95.0023,91.5684 97.5023,91.4018 100,92.5C 101.608,90.2328 100.775,89.2328 97.5,89.5C 97.5,88.1667 97.5,86.8333 97.5,85.5C 100.888,84.9694 102.888,86.3027 103.5,89.5C 103.5,90.1667 103.833,90.5 104.5,90.5C 105.946,91.9402 107.779,92.6068 110,92.5C 111.385,92.4857 112.551,92.1524 113.5,91.5C 111.56,87.7203 109.393,84.0536 107,80.5C 106.59,81.9007 106.09,83.234 105.5,84.5C 100.5,85.5 98.5,83.5 99.5,78.5C 100.376,78.6309 101.043,78.2975 101.5,77.5C 102.748,74.9296 103.748,72.2629 104.5,69.5C 104.203,71.8849 104.703,74.2183 106,76.5C 105.775,73.1752 107.108,70.8419 110,69.5C 110.278,70.4158 110.778,71.0825 111.5,71.5 Z"/></g>
<g><path style="opacity:1" fill="#76e2ef" d="M 125.5,63.5 C 125.567,65.4008 125.233,67.2341 124.5,69C 125.429,72.5529 126.429,76.0529 127.5,79.5C 124.84,77.1739 123.507,74.1739 123.5,70.5C 123.44,67.8446 124.107,65.5112 125.5,63.5 Z"/></g>
<g><path style="opacity:1" fill="#54ddf0" d="M 204.5,73.5 C 204.149,75.8695 203.982,78.2028 204,80.5C 205.011,81.3366 206.178,81.67 207.5,81.5C 206.109,83.8903 204.109,85.5569 201.5,86.5C 201.48,84.857 202.147,83.5237 203.5,82.5C 201.35,79.7221 199.35,79.8888 197.5,83C 195.26,83.977 192.927,84.477 190.5,84.5C 195.765,81.5653 200.432,77.8986 204.5,73.5 Z"/></g>
<g><path style="opacity:1" fill="#50ddf2" d="M 174.5,66.5 C 174.579,67.9305 174.246,69.2638 173.5,70.5C 176.069,75.6352 178.069,80.9685 179.5,86.5C 177.283,85.6314 174.95,85.298 172.5,85.5C 172.5,86.5 172.5,87.5 172.5,88.5C 171.264,86.351 170.264,84.0177 169.5,81.5C 171.117,82.038 172.784,82.3713 174.5,82.5C 174.5,80.1667 174.5,77.8333 174.5,75.5C 173.5,75.5 172.5,75.5 171.5,75.5C 171.5,72.5 171.5,69.5 171.5,66.5C 172.5,66.5 173.5,66.5 174.5,66.5 Z"/></g>
<g><path style="opacity:1" fill="#60dfef" d="M 99.5,78.5 C 98.5,83.5 100.5,85.5 105.5,84.5C 104.976,86.3057 104.309,87.9724 103.5,89.5C 102.888,86.3027 100.888,84.9694 97.5,85.5C 97.4095,82.8478 98.0762,80.5145 99.5,78.5 Z"/></g>
<g><path style="opacity:1" fill="#2adaf9" d="M 201.5,86.5 C 198.992,88.9236 195.992,90.5903 192.5,91.5C 190.692,91.5086 189.025,91.0086 187.5,90C 188.527,88.1335 189.527,86.3002 190.5,84.5C 192.927,84.477 195.26,83.977 197.5,83C 199.35,79.8888 201.35,79.7221 203.5,82.5C 202.147,83.5237 201.48,84.857 201.5,86.5 Z"/></g>
<g><path style="opacity:1" fill="#4edcf0" d="M 190.5,84.5 C 189.527,86.3002 188.527,88.1335 187.5,90C 189.025,91.0086 190.692,91.5086 192.5,91.5C 189.46,93.3459 186.127,94.6792 182.5,95.5C 183.368,93.5979 184.368,91.7645 185.5,90C 183.569,89.7157 181.569,88.8824 179.5,87.5C 183.342,87.1075 187.009,86.1075 190.5,84.5 Z"/></g>
<g><path style="opacity:1" fill="#3ddbf6" d="M 68.5,59.5 C 69.1124,62.6973 71.1124,64.0306 74.5,63.5C 69.184,69.1583 69.8507,74.325 76.5,79C 82.1115,82.6389 88.1115,85.4722 94.5,87.5C 95.7387,87.0576 96.7387,86.3909 97.5,85.5C 97.5,86.8333 97.5,88.1667 97.5,89.5C 100.775,89.2328 101.608,90.2328 100,92.5C 97.5023,91.4018 95.0023,91.5684 92.5,93C 94.1667,94.1667 95.8333,95.3333 97.5,96.5C 96.0451,98.2199 95.2117,100.22 95,102.5C 94.5005,108.825 94.3338,115.158 94.5,121.5C 93.5098,115.355 93.1765,109.022 93.5,102.5C 93.8076,100.076 93.4742,97.7427 92.5,95.5C 82.153,92.5806 73.3197,87.2473 66,79.5C 61.0507,72.0018 61.8841,65.3351 68.5,59.5 Z"/></g>
<g><path style="opacity:0.078" fill="#abf9fc" d="M 104.5,90.5 C 107.455,91.1587 110.455,91.4921 113.5,91.5C 112.551,92.1524 111.385,92.4857 110,92.5C 107.779,92.6068 105.946,91.9402 104.5,90.5 Z"/></g>
<g><path style="opacity:1" fill="#26daf9" d="M 174.5,66.5 C 173.5,66.5 172.5,66.5 171.5,66.5C 171.5,69.5 171.5,72.5 171.5,75.5C 172.5,75.5 173.5,75.5 174.5,75.5C 174.5,77.8333 174.5,80.1667 174.5,82.5C 172.784,82.3713 171.117,82.038 169.5,81.5C 169.19,80.2617 168.69,80.2617 168,81.5C 165.959,85.0838 163.792,88.5838 161.5,92C 163.751,91.7932 166.085,91.6265 168.5,91.5C 170.483,91.8432 171.817,91.1765 172.5,89.5C 172.5,89.1667 172.5,88.8333 172.5,88.5C 172.5,87.5 172.5,86.5 172.5,85.5C 174.95,85.298 177.283,85.6314 179.5,86.5C 179.5,86.8333 179.5,87.1667 179.5,87.5C 181.569,88.8824 183.569,89.7157 185.5,90C 184.368,91.7645 183.368,93.5979 182.5,95.5C 181.213,96.8714 180.547,98.7047 180.5,101C 181.015,103.829 181.015,106.496 180.5,109C 181.507,110.52 182.173,112.187 182.5,114C 181.736,118.47 181.403,122.97 181.5,127.5C 180.307,127.03 179.64,126.03 179.5,124.5C 178.993,119.332 178.327,114.332 177.5,109.5C 176.952,107.374 176.285,105.374 175.5,103.5C 175.5,102.833 175.5,102.167 175.5,101.5C 175.5,100.167 175.5,98.8333 175.5,97.5C 173.585,97.2155 171.919,97.5489 170.5,98.5C 165.138,98.4724 159.805,98.8058 154.5,99.5C 154.5,100.5 154.5,101.5 154.5,102.5C 151.848,106.482 148.848,110.149 145.5,113.5C 144.235,109.916 144.901,106.583 147.5,103.5C 147.043,102.702 146.376,102.369 145.5,102.5C 141.03,101.514 136.363,101.181 131.5,101.5C 131.577,100.25 132.244,99.4169 133.5,99C 129.896,98.7541 126.563,99.5874 123.5,101.5C 124.663,97.1479 127.33,95.6479 131.5,97C 130.619,96.2917 129.953,95.4584 129.5,94.5C 136.906,94.848 144.239,94.348 151.5,93C 156.294,86.5835 160.461,79.7501 164,72.5C 164.428,69.6783 163.928,67.0116 162.5,64.5C 162.5,63.5 162.5,62.5 162.5,61.5C 166.03,60.9889 169.196,61.6556 172,63.5C 172.414,63.0426 172.914,62.7093 173.5,62.5C 174.429,63.6888 174.762,65.0222 174.5,66.5 Z"/></g>
<g><path style="opacity:0.596" fill="#b9f7ff" d="M 172.5,89.5 C 171.817,91.1765 170.483,91.8432 168.5,91.5C 169.671,90.6554 171.005,89.9887 172.5,89.5 Z"/></g>
<g><path style="opacity:0.612" fill="#99f1fb" d="M 105.5,98.5 C 104.167,98.5 102.833,98.5 101.5,98.5C 101.737,99.791 101.404,100.791 100.5,101.5C 100.5,100.833 100.5,100.167 100.5,99.5C 100.791,98.3509 101.624,97.6842 103,97.5C 104.07,97.528 104.903,97.8614 105.5,98.5 Z"/></g>
<g><path style="opacity:0.027" fill="#b1fafe" d="M 170.5,98.5 C 171.919,97.5489 173.585,97.2155 175.5,97.5C 175.5,98.8333 175.5,100.167 175.5,101.5C 174.596,100.791 174.263,99.791 174.5,98.5C 173.167,98.5 171.833,98.5 170.5,98.5 Z"/></g>
<g><path style="opacity:1" fill="#82e7f4" d="M 170.5,98.5 C 165.17,99.5545 159.837,100.888 154.5,102.5C 154.5,101.5 154.5,100.5 154.5,99.5C 159.805,98.8058 165.138,98.4724 170.5,98.5 Z"/></g>
<g><path style="opacity:0.047" fill="#d6fdff" d="M 131.5,102.5 C 131.5,102.167 131.5,101.833 131.5,101.5C 136.363,101.181 141.03,101.514 145.5,102.5C 145.5,103.167 145.167,103.5 144.5,103.5C 140.366,102.515 136.032,102.182 131.5,102.5 Z"/></g>
<g><path style="opacity:1" fill="#63def1" d="M 182.5,95.5 C 183.383,101.468 184.05,107.468 184.5,113.5C 184.733,118.552 183.733,123.218 181.5,127.5C 181.403,122.97 181.736,118.47 182.5,114C 182.173,112.187 181.507,110.52 180.5,109C 181.015,106.496 181.015,103.829 180.5,101C 180.547,98.7047 181.213,96.8714 182.5,95.5 Z"/></g>
<g><path style="opacity:1" fill="#3ddbf7" d="M 131.5,101.5 C 131.5,101.833 131.5,102.167 131.5,102.5C 133.484,104.985 135.65,107.318 138,109.5C 139.973,107.363 142.139,105.363 144.5,103.5C 145.167,103.5 145.5,103.167 145.5,102.5C 146.376,102.369 147.043,102.702 147.5,103.5C 144.901,106.583 144.235,109.916 145.5,113.5C 144.626,116.231 145.626,118.398 148.5,120C 152.666,122.917 156.999,125.584 161.5,128C 168.94,131.444 173.606,129.278 175.5,121.5C 176.222,121.082 176.722,120.416 177,119.5C 177.498,116.183 177.665,112.85 177.5,109.5C 178.327,114.332 178.993,119.332 179.5,124.5C 179.64,126.03 180.307,127.03 181.5,127.5C 181.672,128.492 181.338,129.158 180.5,129.5C 180.103,128.475 179.437,128.308 178.5,129C 177.415,131.883 175.415,133.883 172.5,135C 168.848,135.499 165.182,135.665 161.5,135.5C 152.724,132.524 144.891,127.858 138,121.5C 130.455,128.856 121.622,134.023 111.5,137C 104.184,138.408 98.851,135.908 95.5,129.5C 95.5,127.5 95.5,125.5 95.5,123.5C 96.1577,124.398 96.8243,125.398 97.5,126.5C 98.5063,126.062 98.5063,125.396 97.5,124.5C 98.3028,116.549 98.8028,108.549 99,100.5C 99.3826,99.944 99.8826,99.6107 100.5,99.5C 100.5,100.167 100.5,100.833 100.5,101.5C 98.7287,110.416 99.562,119.082 103,127.5C 104.299,128.98 105.966,129.646 108,129.5C 117.309,127.514 125.143,123.014 131.5,116C 128.683,111.686 125.683,107.52 122.5,103.5C 122.5,103.167 122.5,102.833 122.5,102.5C 123.167,102.5 123.5,102.167 123.5,101.5C 126.563,99.5874 129.896,98.7541 133.5,99C 132.244,99.4169 131.577,100.25 131.5,101.5 Z M 131.5,102.5 C 136.032,102.182 140.366,102.515 144.5,103.5C 142.139,105.363 139.973,107.363 138,109.5C 135.65,107.318 133.484,104.985 131.5,102.5 Z"/></g>
<g><path style="opacity:1" fill="#7ee6f1" d="M 111.5,99.5 C 114.85,99.335 118.183,99.5017 121.5,100C 122.252,100.671 122.586,101.504 122.5,102.5C 122.5,102.833 122.5,103.167 122.5,103.5C 119.097,101.264 115.431,99.9308 111.5,99.5 Z"/></g>
<g><path style="opacity:0.769" fill="#8ce7f4" d="M 175.5,103.5 C 176.285,105.374 176.952,107.374 177.5,109.5C 177.665,112.85 177.498,116.183 177,119.5C 176.722,120.416 176.222,121.082 175.5,121.5C 176.67,115.512 176.67,109.512 175.5,103.5 Z"/></g>
<g><path style="opacity:1" fill="#82e3f2" d="M 93.5,102.5 C 93.1765,109.022 93.5098,115.355 94.5,121.5C 94.3284,122.492 94.6618,123.158 95.5,123.5C 95.5,125.5 95.5,127.5 95.5,129.5C 91.1912,120.75 90.5246,111.75 93.5,102.5 Z"/></g>
<g><path style="opacity:1" fill="#66dbe9" d="M 180.5,129.5 C 178.908,133.584 175.908,136.084 171.5,137C 167.888,137.674 164.554,137.174 161.5,135.5C 165.182,135.665 168.848,135.499 172.5,135C 175.415,133.883 177.415,131.883 178.5,129C 179.437,128.308 180.103,128.475 180.5,129.5 Z"/></g>
<g><path style="opacity:0.792" fill="#69ddee" d="M 152.5,161.5 C 151.566,160.432 151.232,159.099 151.5,157.5C 155.5,156.833 155.5,156.167 151.5,155.5C 151.688,153.897 151.188,152.563 150,151.5C 149.623,152.942 148.79,153.942 147.5,154.5C 147.626,151.532 149.126,149.532 152,148.5C 152.495,150.473 152.662,152.473 152.5,154.5C 153.5,154.5 154.5,154.5 155.5,154.5C 155.5,155.833 155.5,157.167 155.5,158.5C 154.5,158.5 153.5,158.5 152.5,158.5C 152.5,159.5 152.5,160.5 152.5,161.5 Z"/></g>
<g><path style="opacity:1" fill="#44d9f5" d="M 89.5,148.5 C 89.8039,149.15 90.1373,149.817 90.5,150.5C 87.6944,151.168 85.0277,151.834 82.5,152.5C 81.5386,154.265 81.2053,156.265 81.5,158.5C 82.5,158.5 83.5,158.5 84.5,158.5C 86.3691,159.165 88.3691,159.831 90.5,160.5C 88.604,161.466 86.604,161.799 84.5,161.5C 83.5,161.5 82.5,161.5 81.5,161.5C 81.5,164.833 81.5,168.167 81.5,171.5C 80.0597,172.363 78.7264,172.363 77.5,171.5C 76.5025,163.862 76.1692,156.196 76.5,148.5C 80.8333,148.5 85.1667,148.5 89.5,148.5 Z"/></g>
<g><path style="opacity:0.302" fill="#a6fcfe" d="M 197.5,152.5 C 198.404,153.209 198.737,154.209 198.5,155.5C 196.265,155.795 194.265,155.461 192.5,154.5C 194.781,154.923 196.448,154.256 197.5,152.5 Z"/></g>
<g><path style="opacity:1" fill="#4cd9f0" d="M 118.5,160.5 C 120.781,160.923 122.448,160.256 123.5,158.5C 122.432,157.566 121.099,157.232 119.5,157.5C 119.5,156.5 119.5,155.5 119.5,154.5C 122.685,154.02 125.519,154.686 128,156.5C 128.221,161.22 128.721,165.887 129.5,170.5C 129.167,171.5 128.5,172.167 127.5,172.5C 126.14,171.82 124.807,171.153 123.5,170.5C 123.5,169.167 122.833,168.5 121.5,168.5C 122.141,167.518 122.807,166.518 123.5,165.5C 121.635,164.334 119.968,164.667 118.5,166.5C 118.863,167.183 119.196,167.85 119.5,168.5C 118.213,169.768 117.213,169.435 116.5,167.5C 115.374,168.808 115.374,170.142 116.5,171.5C 115.624,171.631 114.957,171.298 114.5,170.5C 113.811,168.556 113.311,166.556 113,164.5C 111.549,164.736 110.049,164.736 108.5,164.5C 106.076,164.192 103.743,164.526 101.5,165.5C 101.624,166.107 101.957,166.44 102.5,166.5C 102.811,167.478 103.478,168.145 104.5,168.5C 107.023,166.592 109.69,166.259 112.5,167.5C 111.288,171.027 108.788,172.694 105,172.5C 102.078,172.452 99.578,171.452 97.5,169.5C 94.4219,157.413 98.7552,152.913 110.5,156C 111.808,158.355 112.808,160.855 113.5,163.5C 115.396,162.725 117.063,161.725 118.5,160.5 Z M 106.5,158.5 C 106.5,159.167 106.833,159.5 107.5,159.5C 107.209,160.649 106.376,161.316 105,161.5C 101.876,159.716 102.376,158.716 106.5,158.5 Z M 123.5,158.5 C 122.448,160.256 120.781,160.923 118.5,160.5C 119.635,158.787 121.302,158.12 123.5,158.5 Z M 121.5,168.5 C 120.833,168.5 120.167,168.5 119.5,168.5C 119.196,167.85 118.863,167.183 118.5,166.5C 119.968,164.667 121.635,164.334 123.5,165.5C 122.807,166.518 122.141,167.518 121.5,168.5 Z"/></g>
<g><path style="opacity:0.155" fill="#9efdff" d="M 82.5,152.5 C 82.5,154.167 82.5,155.833 82.5,157.5C 84.5,157.5 86.5,157.5 88.5,157.5C 87.4324,158.434 86.099,158.768 84.5,158.5C 83.5,158.5 82.5,158.5 81.5,158.5C 81.2053,156.265 81.5386,154.265 82.5,152.5 Z"/></g>
<g><path style="opacity:0.98" fill="#82ecf9" d="M 106.5,158.5 C 102.376,158.716 101.876,159.716 105,161.5C 106.376,161.316 107.209,160.649 107.5,159.5C 108.404,160.209 108.737,161.209 108.5,162.5C 106.167,162.5 103.833,162.5 101.5,162.5C 101.5,160.833 101.5,159.167 101.5,157.5C 103.415,157.216 105.081,157.549 106.5,158.5 Z"/></g>
<g><path style="opacity:0.824" fill="#74e1ed" d="M 119.5,154.5 C 119.5,155.5 119.5,156.5 119.5,157.5C 121.099,157.232 122.432,157.566 123.5,158.5C 121.302,158.12 119.635,158.787 118.5,160.5C 112.971,160.172 112.304,158.339 116.5,155C 117.448,154.517 118.448,154.351 119.5,154.5 Z"/></g>
<g><path style="opacity:1" fill="#4bd8f2" d="M 152.5,161.5 C 152.338,163.527 152.505,165.527 153,167.5C 153.667,168.833 154.333,168.833 155,167.5C 155.309,168.766 155.809,169.933 156.5,171C 153.535,173.089 150.701,172.922 148,170.5C 147.827,166.459 147.327,162.459 146.5,158.5C 143.926,160.964 141.26,160.964 138.5,158.5C 137.558,158.608 136.725,158.941 136,159.5C 134.414,167.788 136.914,169.788 143.5,165.5C 146.827,166.635 146.827,168.469 143.5,171C 135.599,174.049 130.933,171.382 129.5,163C 130.714,155.55 135.048,152.883 142.5,155C 143.667,155.5 144.5,156.333 145,157.5C 145.236,155.881 146.069,154.881 147.5,154.5C 148.79,153.942 149.623,152.942 150,151.5C 151.188,152.563 151.688,153.897 151.5,155.5C 155.5,156.167 155.5,156.833 151.5,157.5C 151.232,159.099 151.566,160.432 152.5,161.5 Z"/></g>
<g><path style="opacity:1" fill="#4ad9f2" d="M 197.5,152.5 C 196.448,154.256 194.781,154.923 192.5,154.5C 190.427,152.06 188.094,151.894 185.5,154C 189.918,155.65 194.084,157.816 198,160.5C 200.08,165.577 198.58,169.411 193.5,172C 186.862,173.846 182.195,171.679 179.5,165.5C 182.549,162.571 184.883,163.071 186.5,167C 187.5,167.167 188.5,167.333 189.5,167.5C 191.319,167.658 192.652,166.991 193.5,165.5C 189.982,163.039 186.149,161.039 182,159.5C 178.813,152.343 181.147,148.343 189,147.5C 191.253,147.631 193.419,148.131 195.5,149C 196.823,149.816 197.489,150.983 197.5,152.5 Z"/></g>
<g><path style="opacity:0.208" fill="#adfaff" d="M 84.5,161.5 C 84.5,161.833 84.5,162.167 84.5,162.5C 82.89,165.203 81.89,168.203 81.5,171.5C 81.5,168.167 81.5,164.833 81.5,161.5C 82.5,161.5 83.5,161.5 84.5,161.5 Z"/></g>
<g><path style="opacity:0.016" fill="#c9fffe" d="M 108.5,164.5 C 106.295,165.529 104.295,166.195 102.5,166.5C 101.957,166.44 101.624,166.107 101.5,165.5C 103.743,164.526 106.076,164.192 108.5,164.5 Z"/></g>
<g><path style="opacity:1" fill="#86e1ef" d="M 168.5,167.5 C 167.18,166.058 165.514,165.392 163.5,165.5C 163.5,166.5 163.5,167.5 163.5,168.5C 161.823,164.014 163.323,162.681 168,164.5C 168.483,165.448 168.649,166.448 168.5,167.5 Z"/></g>
<g><path style="opacity:1" fill="#54daf1" d="M 89.5,148.5 C 95.0759,148.974 97.2426,151.974 96,157.5C 95.0701,159.552 93.5701,161.052 91.5,162C 93.6394,164.478 95.6394,166.978 97.5,169.5C 96.2338,172.624 94.2338,173.124 91.5,171C 89.3024,167.977 86.969,165.144 84.5,162.5C 84.5,162.167 84.5,161.833 84.5,161.5C 86.604,161.799 88.604,161.466 90.5,160.5C 88.3691,159.831 86.3691,159.165 84.5,158.5C 86.099,158.768 87.4324,158.434 88.5,157.5C 90.4759,156.573 90.8092,155.24 89.5,153.5C 87.2534,152.626 84.9201,152.292 82.5,152.5C 85.0277,151.834 87.6944,151.168 90.5,150.5C 90.1373,149.817 89.8039,149.15 89.5,148.5 Z"/></g>
<g><path style="opacity:1" fill="#51d6f4" d="M 119.5,168.5 C 120.167,168.5 120.833,168.5 121.5,168.5C 122.833,168.5 123.5,169.167 123.5,170.5C 121.345,172.534 119.012,172.867 116.5,171.5C 115.374,170.142 115.374,168.808 116.5,167.5C 117.213,169.435 118.213,169.768 119.5,168.5 Z"/></g>
<g><path style="opacity:1" fill="#5cddf4" d="M 163.5,168.5 C 163.5,167.5 163.5,166.5 163.5,165.5C 165.514,165.392 167.18,166.058 168.5,167.5C 169.822,167.67 170.989,167.337 172,166.5C 172.499,160.509 172.666,154.509 172.5,148.5C 174.5,148.5 176.5,148.5 178.5,148.5C 178.666,154.176 178.499,159.843 178,165.5C 176.535,171.653 172.702,173.82 166.5,172C 164.574,171.578 163.574,170.411 163.5,168.5 Z"/></g>
</svg>
