<?xml version="1.0" encoding="UTF-8"?>
<!DOCTYPE svg PUBLIC "-//W3C//DTD SVG 1.1//EN" "http://www.w3.org/Graphics/SVG/1.1/DTD/svg11.dtd">
<svg xmlns="http://www.w3.org/2000/svg" version="1.1" width="600px" height="315px" style="shape-rendering:geometricPrecision; text-rendering:geometricPrecision; image-rendering:optimizeQuality; fill-rule:evenodd; clip-rule:evenodd" xmlns:xlink="http://www.w3.org/1999/xlink">
<g><path style="opacity:0.849" fill="#6cb33e" d="M 419.5,32.5 C 430.288,31.4482 434.454,36.1148 432,46.5C 426.667,51.8333 421.333,51.8333 416,46.5C 413.432,40.9094 414.599,36.2427 419.5,32.5 Z"/></g>
<g><path style="opacity:0.994" fill="#6cb23e" d="M 64.5,60.5 C 96.1684,60.3334 127.835,60.5 159.5,61C 166.685,63.5004 172.185,68.0004 176,74.5C 189.986,99.1347 203.986,123.801 218,148.5C 218.667,154.5 218.667,160.5 218,166.5C 202.653,193.199 187.32,219.865 172,246.5C 168.215,249.642 164.048,252.142 159.5,254C 127.833,254.667 96.1667,254.667 64.5,254C 57.3149,251.5 51.8149,247 48,240.5C 34,215.833 20,191.167 6,166.5C 5.33333,160.5 5.33333,154.5 6,148.5C 21.4548,121.087 37.2881,93.9207 53.5,67C 57.0961,64.5394 60.7627,62.3727 64.5,60.5 Z M 109.5,93.5 C 113.585,93.4587 116.752,95.1254 119,98.5C 119.667,117.833 119.667,137.167 119,156.5C 115.987,161.535 111.82,162.702 106.5,160C 104.996,158.509 104.163,156.676 104,154.5C 103.333,136.5 103.333,118.5 104,100.5C 104.938,97.4025 106.772,95.0691 109.5,93.5 Z M 58.5,131.5 C 59.1098,130.609 59.4431,129.609 59.5,128.5C 64.1115,118.39 71.2781,110.724 81,105.5C 87.3355,106.855 89.3355,110.522 87,116.5C 67.8291,131.663 62.8291,150.663 72,173.5C 84.1965,194.236 102.03,201.736 125.5,196C 151.917,183.657 160.75,163.491 152,135.5C 148.487,127.652 143.154,121.319 136,116.5C 133.614,108.88 136.447,105.38 144.5,106C 165.712,122.633 173.212,144.133 167,170.5C 157.588,196.402 139.088,210.402 111.5,212.5C 76.2699,208.77 56.9366,189.27 53.5,154C 53.8377,146.154 55.5043,138.654 58.5,131.5 Z"/></g>
<g><path style="opacity:0.905" fill="#6cb33e" d="M 243.5,60.5 C 255.138,59.7713 265.638,62.7713 275,69.5C 277.625,76.1382 275.458,80.1382 268.5,81.5C 261.882,78.7746 255.048,76.7746 248,75.5C 241.514,75.3181 238.514,78.3181 239,84.5C 239.833,85.3333 240.667,86.1667 241.5,87C 248.68,90.0604 256.014,92.727 263.5,95C 277.72,101.566 281.553,112.066 275,126.5C 268.715,134.498 260.382,138.498 250,138.5C 238.489,137.997 228.156,134.331 219,127.5C 216.44,118.736 219.607,114.902 228.5,116C 237.341,122.194 247.008,124.194 257.5,122C 261.5,118.333 261.5,114.667 257.5,111C 247.907,107.915 238.574,104.248 229.5,100C 220.655,91.7663 219.155,82.2663 225,71.5C 229.82,65.3484 235.987,61.6817 243.5,60.5 Z"/></g>
<g><path style="opacity:0.924" fill="#6cb33e" d="M 289.5,60.5 C 297.239,60.7388 301.072,64.7388 301,72.5C 312.831,59.4794 326.664,56.9794 342.5,65C 357.455,76.5177 362.955,91.6844 359,110.5C 350.213,135.65 333.379,143.484 308.5,134C 305.333,132.167 302.833,129.667 301,126.5C 300.667,136.167 300.333,145.833 300,155.5C 293.958,161.119 288.291,160.785 283,154.5C 282.333,125.167 282.333,95.8333 283,66.5C 284.436,63.5581 286.603,61.5581 289.5,60.5 Z M 317.5,76.5 C 332.617,76.6151 340.617,84.2818 341.5,99.5C 340.197,116.656 331.197,123.823 314.5,121C 305.27,116.915 300.604,109.748 300.5,99.5C 301.117,87.8753 306.783,80.2087 317.5,76.5 Z"/></g>
<g><path style="opacity:0.903" fill="#6cb33e" d="M 371.5,60.5 C 378.023,60.1849 382.189,63.1849 384,69.5C 387.25,64.8414 391.75,62.008 397.5,61C 407.891,60.0513 411.724,64.5513 409,74.5C 407.833,75.6667 406.667,76.8333 405.5,78C 393.43,79.7378 386.263,86.5712 384,98.5C 383.667,109.5 383.333,120.5 383,131.5C 379.789,137.848 374.956,139.515 368.5,136.5C 367.139,134.972 365.972,133.305 365,131.5C 364.333,110.167 364.333,88.8333 365,67.5C 366.018,63.9853 368.185,61.652 371.5,60.5 Z"/></g>
<g><path style="opacity:0.884" fill="#6cb33e" d="M 421.5,60.5 C 427.474,60.3342 431.308,63.0008 433,68.5C 433.667,89.1667 433.667,109.833 433,130.5C 432.037,135.59 428.87,138.257 423.5,138.5C 419.309,137.808 416.475,135.475 415,131.5C 414.333,110.167 414.333,88.8333 415,67.5C 416.694,64.6424 418.861,62.309 421.5,60.5 Z"/></g>
<g><path style="opacity:0.924" fill="#6cb33e" d="M 446.5,60.5 C 453.679,60.1629 457.846,63.4962 459,70.5C 468.462,60.6776 479.628,58.1776 492.5,63C 500.318,66.8192 505.152,72.9858 507,81.5C 507.667,98.5 507.667,115.5 507,132.5C 501.333,140.5 495.667,140.5 490,132.5C 489.88,117.132 489.213,101.799 488,86.5C 485.634,80.3944 481.134,77.3944 474.5,77.5C 466.128,78.0405 460.961,82.3739 459,90.5C 458.967,105.26 458.301,119.926 457,134.5C 451.375,139.935 446.042,139.602 441,133.5C 440.333,110.833 440.333,88.1667 441,65.5C 442.73,63.5981 444.563,61.9314 446.5,60.5 Z"/></g>
<g><path style="opacity:0.92" fill="#6cb33e" d="M 539.5,60.5 C 552.494,58.326 562.994,62.326 571,72.5C 571.105,64.0562 575.272,60.2229 583.5,61C 585.624,62.1217 587.457,63.6217 589,65.5C 589.667,87.5 589.667,109.5 589,131.5C 586.792,144.706 579.292,153.206 566.5,157C 550.214,161.119 534.547,159.452 519.5,152C 515.467,148.832 514.633,144.999 517,140.5C 518.722,138.556 520.889,137.556 523.5,137.5C 528.717,139.606 534.051,141.439 539.5,143C 545.5,143.667 551.5,143.667 557.5,143C 565.36,141.153 569.527,136.319 570,128.5C 554.716,141.576 539.216,141.743 523.5,129C 513.116,116.238 509.949,101.738 514,85.5C 518.443,72.8888 526.943,64.5554 539.5,60.5 Z M 546.5,76.5 C 565.814,77.3189 573.98,87.3189 571,106.5C 566.233,118.8 557.4,123.633 544.5,121C 533.203,114.816 529.036,105.316 532,92.5C 533.919,84.4186 538.753,79.0852 546.5,76.5 Z"/></g>
<g><path style="opacity:0.231" fill="#64af35" d="M 59.5,128.5 C 59.4431,129.609 59.1098,130.609 58.5,131.5C 57.2848,130.221 57.6182,129.221 59.5,128.5 Z"/></g>
<g><path style="opacity:0.95" fill="#6cb33e" d="M 228.5,173.5 C 232.516,172.9 236.016,173.9 239,176.5C 240.099,183.753 240.932,191.086 241.5,198.5C 254.713,190.564 266.546,192.23 277,203.5C 284.223,218.172 283.557,232.506 275,246.5C 264.002,256.284 252.502,256.951 240.5,248.5C 238.173,253.829 234.173,255.662 228.5,254C 227.069,253.535 225.903,252.701 225,251.5C 223.363,227.563 223.03,203.563 224,179.5C 224.599,176.746 226.099,174.746 228.5,173.5 Z M 250.5,207.5 C 254.803,206.796 258.303,208.13 261,211.5C 265.667,219.5 265.667,227.5 261,235.5C 252.624,241.933 246.291,240.266 242,230.5C 239.285,220.449 242.118,212.782 250.5,207.5 Z"/></g>
<g><path style="opacity:0.956" fill="#6cb33e" d="M 432.5,175.5 C 436.516,174.9 440.016,175.9 443,178.5C 444.404,184.044 444.904,189.71 444.5,195.5C 450.723,194.271 454.723,196.605 456.5,202.5C 456.152,204.697 455.152,206.53 453.5,208C 450.607,209.149 447.607,209.649 444.5,209.5C 444.109,219.233 444.609,228.9 446,238.5C 449.425,239.095 452.925,239.262 456.5,239C 461.416,242.866 461.749,247.199 457.5,252C 448.639,255.649 439.972,255.315 431.5,251C 430.789,249.745 429.956,248.579 429,247.5C 427.559,234.908 427.059,222.241 427.5,209.5C 422.299,209.917 419.633,207.584 419.5,202.5C 419.633,197.416 422.299,195.083 427.5,195.5C 427.334,190.489 427.501,185.489 428,180.5C 429.025,178.313 430.525,176.646 432.5,175.5 Z"/></g>
<g><path style="opacity:0.944" fill="#6cb33e" d="M 312.5,193.5 C 339.574,193.287 351.074,206.62 347,233.5C 340.513,250.582 328.18,257.249 310,253.5C 298.127,250.293 291.127,242.627 289,230.5C 286.259,211.133 294.093,198.8 312.5,193.5 Z M 314.5,207.5 C 324.069,206.568 329.236,210.901 330,220.5C 330.766,226.938 329.266,232.771 325.5,238C 315.798,242.899 309.632,240.066 307,229.5C 304.929,220.39 307.429,213.056 314.5,207.5 Z"/></g>
<g><path style="opacity:0.944" fill="#6cb33e" d="M 379.5,193.5 C 406.574,193.287 418.074,206.62 414,233.5C 407.513,250.582 395.18,257.249 377,253.5C 365.127,250.293 358.127,242.627 356,230.5C 353.259,211.133 361.093,198.8 379.5,193.5 Z M 381.5,207.5 C 391.069,206.568 396.236,210.901 397,220.5C 397.766,226.938 396.266,232.771 392.5,238C 382.798,242.899 376.632,240.066 374,229.5C 371.929,220.39 374.429,213.056 381.5,207.5 Z"/></g>
</svg>
