<svg xmlns="http://www.w3.org/2000/svg" xmlns:xlink="http://www.w3.org/1999/xlink" width="500" zoomAndPan="magnify" viewBox="0 0 375 187.499995" height="250" preserveAspectRatio="xMidYMid meet" version="1.0"><defs><g/><clipPath id="34c5ae3eb7"><path d="M 0.5 34.085938 L 70.0625 34.085938 L 70.0625 129.832031 L 0.5 129.832031 Z M 0.5 34.085938 " clip-rule="nonzero"/></clipPath><clipPath id="106df79145"><path d="M 69 0 L 73 0 L 73 187 L 69 187 Z M 69 0 " clip-rule="nonzero"/></clipPath></defs><g fill="#ffffff" fill-opacity="1"><g transform="translate(70.583291, 125.496069)"><g><path d="M 6.234375 -62.296875 L 35.6875 -62.296875 C 42.507812 -62.296875 48.554688 -61.019531 53.828125 -58.46875 C 59.109375 -55.914062 63.203125 -52.296875 66.109375 -47.609375 C 69.015625 -42.921875 70.46875 -37.429688 70.46875 -31.140625 C 70.46875 -24.859375 69.015625 -19.375 66.109375 -14.6875 C 63.203125 -10 59.109375 -6.378906 53.828125 -3.828125 C 48.554688 -1.273438 42.507812 0 35.6875 0 L 6.234375 0 Z M 34.96875 -14.0625 C 40.3125 -14.0625 44.597656 -15.570312 47.828125 -18.59375 C 51.054688 -21.625 52.671875 -25.804688 52.671875 -31.140625 C 52.671875 -36.484375 51.054688 -40.664062 47.828125 -43.6875 C 44.597656 -46.71875 40.3125 -48.234375 34.96875 -48.234375 L 23.84375 -48.234375 L 23.84375 -14.0625 Z M 34.96875 -14.0625 "/></g></g></g><g fill="#ffffff" fill-opacity="1"><g transform="translate(135.362939, 125.496069)"><g><path d="M 54.71875 -24.03125 C 54.71875 -23.90625 54.628906 -22.507812 54.453125 -19.84375 L 19.40625 -19.84375 C 20.113281 -17.351562 21.488281 -15.441406 23.53125 -14.109375 C 25.582031 -12.773438 28.148438 -12.109375 31.234375 -12.109375 C 33.546875 -12.109375 35.546875 -12.429688 37.234375 -13.078125 C 38.929688 -13.734375 40.640625 -14.800781 42.359375 -16.28125 L 51.25 -7.03125 C 46.5625 -1.8125 39.710938 0.796875 30.703125 0.796875 C 25.066406 0.796875 20.113281 -0.269531 15.84375 -2.40625 C 11.570312 -4.539062 8.265625 -7.503906 5.921875 -11.296875 C 3.578125 -15.097656 2.40625 -19.398438 2.40625 -24.203125 C 2.40625 -28.953125 3.546875 -33.207031 5.828125 -36.96875 C 8.109375 -40.738281 11.265625 -43.691406 15.296875 -45.828125 C 19.335938 -47.960938 23.878906 -49.03125 28.921875 -49.03125 C 33.722656 -49.03125 38.082031 -48.035156 42 -46.046875 C 45.914062 -44.054688 49.015625 -41.175781 51.296875 -37.40625 C 53.578125 -33.644531 54.71875 -29.1875 54.71875 -24.03125 Z M 29.015625 -37.015625 C 26.398438 -37.015625 24.21875 -36.269531 22.46875 -34.78125 C 20.71875 -33.300781 19.601562 -31.285156 19.125 -28.734375 L 38.890625 -28.734375 C 38.410156 -31.285156 37.296875 -33.300781 35.546875 -34.78125 C 33.796875 -36.269531 31.617188 -37.015625 29.015625 -37.015625 Z M 29.015625 -37.015625 "/></g></g></g><g fill="#ffffff" fill-opacity="1"><g transform="translate(183.769712, 125.496069)"><g><path d="M 22.953125 0.796875 C 18.921875 0.796875 14.945312 0.335938 11.03125 -0.578125 C 7.113281 -1.492188 3.972656 -2.695312 1.609375 -4.1875 L 6.671875 -15.75 C 8.867188 -14.382812 11.476562 -13.300781 14.5 -12.5 C 17.53125 -11.695312 20.523438 -11.296875 23.484375 -11.296875 C 26.210938 -11.296875 28.15625 -11.578125 29.3125 -12.140625 C 30.476562 -12.703125 31.0625 -13.519531 31.0625 -14.59375 C 31.0625 -15.65625 30.363281 -16.410156 28.96875 -16.859375 C 27.570312 -17.304688 25.359375 -17.738281 22.328125 -18.15625 C 18.472656 -18.625 15.195312 -19.242188 12.5 -20.015625 C 9.800781 -20.785156 7.472656 -22.207031 5.515625 -24.28125 C 3.554688 -26.363281 2.578125 -29.273438 2.578125 -33.015625 C 2.578125 -36.097656 3.492188 -38.835938 5.328125 -41.234375 C 7.171875 -43.640625 9.859375 -45.539062 13.390625 -46.9375 C 16.921875 -48.332031 21.148438 -49.03125 26.078125 -49.03125 C 29.578125 -49.03125 33.046875 -48.671875 36.484375 -47.953125 C 39.921875 -47.242188 42.796875 -46.238281 45.109375 -44.9375 L 40.046875 -33.453125 C 35.773438 -35.828125 31.144531 -37.015625 26.15625 -37.015625 C 23.488281 -37.015625 21.53125 -36.703125 20.28125 -36.078125 C 19.039062 -35.460938 18.421875 -34.648438 18.421875 -33.640625 C 18.421875 -32.515625 19.101562 -31.726562 20.46875 -31.28125 C 21.832031 -30.832031 24.085938 -30.375 27.234375 -29.90625 C 31.203125 -29.3125 34.488281 -28.628906 37.09375 -27.859375 C 39.707031 -27.085938 41.976562 -25.675781 43.90625 -23.625 C 45.84375 -21.582031 46.8125 -18.71875 46.8125 -15.03125 C 46.8125 -12.007812 45.890625 -9.296875 44.046875 -6.890625 C 42.203125 -4.492188 39.484375 -2.613281 35.890625 -1.25 C 32.304688 0.113281 27.992188 0.796875 22.953125 0.796875 Z M 22.953125 0.796875 "/></g></g></g><g fill="#ffffff" fill-opacity="1"><g transform="translate(223.723067, 125.496069)"><g><path d="M 5.421875 -48.234375 L 22.328125 -48.234375 L 22.328125 0 L 5.421875 0 Z M 13.875 -53.5625 C 10.789062 -53.5625 8.300781 -54.421875 6.40625 -56.140625 C 4.507812 -57.867188 3.5625 -60.007812 3.5625 -62.5625 C 3.5625 -65.101562 4.507812 -67.234375 6.40625 -68.953125 C 8.300781 -70.679688 10.789062 -71.546875 13.875 -71.546875 C 16.96875 -71.546875 19.460938 -70.726562 21.359375 -69.09375 C 23.253906 -67.46875 24.203125 -65.378906 24.203125 -62.828125 C 24.203125 -60.148438 23.253906 -57.9375 21.359375 -56.1875 C 19.460938 -54.4375 16.96875 -53.5625 13.875 -53.5625 Z M 13.875 -53.5625 "/></g></g></g><g fill="#ffffff" fill-opacity="1"><g transform="translate(242.854394, 125.496069)"><g><path d="M 57.3125 -48.234375 L 57.3125 -8.8125 C 57.3125 0.144531 54.878906 6.863281 50.015625 11.34375 C 45.148438 15.820312 38.148438 18.0625 29.015625 18.0625 C 24.265625 18.0625 19.8125 17.523438 15.65625 16.453125 C 11.507812 15.390625 7.984375 13.820312 5.078125 11.75 L 11.21875 -0.09375 C 13.175781 1.507812 15.648438 2.769531 18.640625 3.6875 C 21.640625 4.613281 24.59375 5.078125 27.5 5.078125 C 31.945312 5.078125 35.207031 4.097656 37.28125 2.140625 C 39.363281 0.179688 40.40625 -2.722656 40.40625 -6.578125 L 40.40625 -8.1875 C 37.132812 -4.382812 32.359375 -2.484375 26.078125 -2.484375 C 21.804688 -2.484375 17.859375 -3.445312 14.234375 -5.375 C 10.617188 -7.3125 7.742188 -10.039062 5.609375 -13.5625 C 3.472656 -17.09375 2.40625 -21.175781 2.40625 -25.8125 C 2.40625 -30.375 3.472656 -34.421875 5.609375 -37.953125 C 7.742188 -41.484375 10.617188 -44.210938 14.234375 -46.140625 C 17.859375 -48.066406 21.804688 -49.03125 26.078125 -49.03125 C 32.953125 -49.03125 37.992188 -46.804688 41.203125 -42.359375 L 41.203125 -48.234375 Z M 30.078125 -15.921875 C 33.097656 -15.921875 35.601562 -16.835938 37.59375 -18.671875 C 39.582031 -20.515625 40.578125 -22.894531 40.578125 -25.8125 C 40.578125 -28.71875 39.597656 -31.070312 37.640625 -32.875 C 35.679688 -34.6875 33.160156 -35.59375 30.078125 -35.59375 C 26.992188 -35.59375 24.457031 -34.6875 22.46875 -32.875 C 20.476562 -31.070312 19.484375 -28.71875 19.484375 -25.8125 C 19.484375 -22.894531 20.488281 -20.515625 22.5 -18.671875 C 24.519531 -16.835938 27.046875 -15.921875 30.078125 -15.921875 Z M 30.078125 -15.921875 "/></g></g></g><g fill="#ffffff" fill-opacity="1"><g transform="translate(296.867084, 125.496069)"><g><path d="M 36.84375 -49.03125 C 42.832031 -49.03125 47.648438 -47.25 51.296875 -43.6875 C 54.941406 -40.132812 56.765625 -34.765625 56.765625 -27.578125 L 56.765625 0 L 39.859375 0 L 39.859375 -24.828125 C 39.859375 -31.410156 37.222656 -34.703125 31.953125 -34.703125 C 29.035156 -34.703125 26.703125 -33.753906 24.953125 -31.859375 C 23.203125 -29.960938 22.328125 -27.113281 22.328125 -23.3125 L 22.328125 0 L 5.421875 0 L 5.421875 -48.234375 L 21.53125 -48.234375 L 21.53125 -42.984375 C 23.425781 -44.941406 25.679688 -46.4375 28.296875 -47.46875 C 30.910156 -48.507812 33.757812 -49.03125 36.84375 -49.03125 Z M 36.84375 -49.03125 "/></g></g></g><g fill="#ffffff" fill-opacity="1"><g transform="translate(70.583291, 61.893806)"><g><path d="M 27.3125 0.53125 C 22.6875 0.53125 18.253906 -0.207031 14.015625 -1.6875 C 9.773438 -3.175781 6.5 -5.132812 4.1875 -7.5625 L 6.765625 -12.640625 C 9.015625 -10.378906 12.007812 -8.550781 15.75 -7.15625 C 19.488281 -5.769531 23.34375 -5.078125 27.3125 -5.078125 C 32.894531 -5.078125 37.078125 -6.097656 39.859375 -8.140625 C 42.648438 -10.191406 44.046875 -12.847656 44.046875 -16.109375 C 44.046875 -18.597656 43.289062 -20.582031 41.78125 -22.0625 C 40.269531 -23.550781 38.414062 -24.695312 36.21875 -25.5 C 34.019531 -26.300781 30.960938 -27.175781 27.046875 -28.125 C 22.359375 -29.3125 18.617188 -30.453125 15.828125 -31.546875 C 13.046875 -32.640625 10.660156 -34.3125 8.671875 -36.5625 C 6.679688 -38.820312 5.6875 -41.878906 5.6875 -45.734375 C 5.6875 -48.878906 6.515625 -51.742188 8.171875 -54.328125 C 9.835938 -56.910156 12.390625 -58.972656 15.828125 -60.515625 C 19.273438 -62.054688 23.550781 -62.828125 28.65625 -62.828125 C 32.207031 -62.828125 35.6875 -62.335938 39.09375 -61.359375 C 42.507812 -60.378906 45.46875 -59.03125 47.96875 -57.3125 L 45.734375 -52.0625 C 43.128906 -53.78125 40.34375 -55.066406 37.375 -55.921875 C 34.40625 -56.785156 31.5 -57.21875 28.65625 -57.21875 C 23.195312 -57.21875 19.085938 -56.164062 16.328125 -54.0625 C 13.566406 -51.957031 12.1875 -49.242188 12.1875 -45.921875 C 12.1875 -43.421875 12.941406 -41.414062 14.453125 -39.90625 C 15.972656 -38.394531 17.875 -37.238281 20.15625 -36.4375 C 22.4375 -35.632812 25.503906 -34.757812 29.359375 -33.8125 C 33.929688 -32.6875 37.625 -31.570312 40.4375 -30.46875 C 43.257812 -29.375 45.648438 -27.710938 47.609375 -25.484375 C 49.566406 -23.265625 50.546875 -20.257812 50.546875 -16.46875 C 50.546875 -13.320312 49.695312 -10.457031 48 -7.875 C 46.3125 -5.289062 43.71875 -3.242188 40.21875 -1.734375 C 36.71875 -0.222656 32.414062 0.53125 27.3125 0.53125 Z M 27.3125 0.53125 "/></g></g></g><g fill="#ffffff" fill-opacity="1"><g transform="translate(116.58753, 61.893806)"><g><path d="M 48.140625 -46.8125 L 24.734375 5.609375 C 22.835938 9.992188 20.644531 13.101562 18.15625 14.9375 C 15.664062 16.78125 12.671875 17.703125 9.171875 17.703125 C 6.910156 17.703125 4.800781 17.347656 2.84375 16.640625 C 0.882812 15.929688 -0.800781 14.863281 -2.21875 13.4375 L 0.71875 8.71875 C 3.082031 11.09375 5.925781 12.28125 9.25 12.28125 C 11.382812 12.28125 13.207031 11.6875 14.71875 10.5 C 16.238281 9.3125 17.648438 7.296875 18.953125 4.453125 L 21 -0.09375 L 0.09375 -46.8125 L 6.671875 -46.8125 L 24.296875 -7.03125 L 41.90625 -46.8125 Z M 48.140625 -46.8125 "/></g></g></g><g fill="#ffffff" fill-opacity="1"><g transform="translate(156.095991, 61.893806)"><g><path d="M 21.359375 0.4375 C 17.554688 0.4375 13.921875 -0.109375 10.453125 -1.203125 C 6.984375 -2.296875 4.269531 -3.675781 2.3125 -5.34375 L 5.15625 -10.328125 C 7.113281 -8.785156 9.578125 -7.523438 12.546875 -6.546875 C 15.515625 -5.566406 18.597656 -5.078125 21.796875 -5.078125 C 26.066406 -5.078125 29.222656 -5.742188 31.265625 -7.078125 C 33.316406 -8.410156 34.34375 -10.289062 34.34375 -12.71875 C 34.34375 -14.445312 33.78125 -15.796875 32.65625 -16.765625 C 31.53125 -17.742188 30.109375 -18.484375 28.390625 -18.984375 C 26.671875 -19.492188 24.382812 -19.988281 21.53125 -20.46875 C 17.738281 -21.175781 14.6875 -21.898438 12.375 -22.640625 C 10.0625 -23.390625 8.085938 -24.648438 6.453125 -26.421875 C 4.816406 -28.203125 4 -30.664062 4 -33.8125 C 4 -37.726562 5.628906 -40.929688 8.890625 -43.421875 C 12.160156 -45.910156 16.703125 -47.15625 22.515625 -47.15625 C 25.535156 -47.15625 28.554688 -46.753906 31.578125 -45.953125 C 34.609375 -45.160156 37.101562 -44.109375 39.0625 -42.796875 L 36.3125 -37.734375 C 32.445312 -40.398438 27.847656 -41.734375 22.515625 -41.734375 C 18.484375 -41.734375 15.441406 -41.019531 13.390625 -39.59375 C 11.347656 -38.175781 10.328125 -36.304688 10.328125 -33.984375 C 10.328125 -32.210938 10.90625 -30.789062 12.0625 -29.71875 C 13.21875 -28.65625 14.65625 -27.867188 16.375 -27.359375 C 18.09375 -26.859375 20.460938 -26.34375 23.484375 -25.8125 C 27.222656 -25.09375 30.21875 -24.378906 32.46875 -23.671875 C 34.726562 -22.960938 36.660156 -21.742188 38.265625 -20.015625 C 39.867188 -18.296875 40.671875 -15.925781 40.671875 -12.90625 C 40.671875 -8.8125 38.960938 -5.5625 35.546875 -3.15625 C 32.140625 -0.757812 27.410156 0.4375 21.359375 0.4375 Z M 21.359375 0.4375 "/></g></g></g><g fill="#ffffff" fill-opacity="1"><g transform="translate(190.888327, 61.893806)"><g><path d="M 33.453125 -2.84375 C 32.265625 -1.78125 30.796875 -0.96875 29.046875 -0.40625 C 27.296875 0.15625 25.472656 0.4375 23.578125 0.4375 C 19.191406 0.4375 15.8125 -0.742188 13.4375 -3.109375 C 11.0625 -5.484375 9.875 -8.835938 9.875 -13.171875 L 9.875 -41.46875 L 1.515625 -41.46875 L 1.515625 -46.8125 L 9.875 -46.8125 L 9.875 -57.03125 L 16.1875 -57.03125 L 16.1875 -46.8125 L 30.4375 -46.8125 L 30.4375 -41.46875 L 16.1875 -41.46875 L 16.1875 -13.53125 C 16.1875 -10.738281 16.882812 -8.613281 18.28125 -7.15625 C 19.675781 -5.707031 21.679688 -4.984375 24.296875 -4.984375 C 25.597656 -4.984375 26.859375 -5.191406 28.078125 -5.609375 C 29.296875 -6.023438 30.347656 -6.617188 31.234375 -7.390625 Z M 33.453125 -2.84375 "/></g></g></g><g fill="#ffffff" fill-opacity="1"><g transform="translate(218.295082, 61.893806)"><g><path d="M 49.5625 -21.4375 L 10.40625 -21.4375 C 10.757812 -16.582031 12.628906 -12.65625 16.015625 -9.65625 C 19.398438 -6.65625 23.671875 -5.15625 28.828125 -5.15625 C 31.734375 -5.15625 34.398438 -5.675781 36.828125 -6.71875 C 39.265625 -7.757812 41.375 -9.285156 43.15625 -11.296875 L 46.71875 -7.203125 C 44.644531 -4.710938 42.050781 -2.816406 38.9375 -1.515625 C 35.820312 -0.210938 32.394531 0.4375 28.65625 0.4375 C 23.84375 0.4375 19.582031 -0.582031 15.875 -2.625 C 12.175781 -4.664062 9.285156 -7.492188 7.203125 -11.109375 C 5.128906 -14.734375 4.09375 -18.832031 4.09375 -23.40625 C 4.09375 -27.96875 5.085938 -32.054688 7.078125 -35.671875 C 9.066406 -39.296875 11.796875 -42.113281 15.265625 -44.125 C 18.734375 -46.144531 22.632812 -47.15625 26.96875 -47.15625 C 31.289062 -47.15625 35.171875 -46.144531 38.609375 -44.125 C 42.054688 -42.113281 44.757812 -39.3125 46.71875 -35.71875 C 48.675781 -32.132812 49.65625 -28.03125 49.65625 -23.40625 Z M 26.96875 -41.734375 C 22.457031 -41.734375 18.671875 -40.296875 15.609375 -37.421875 C 12.554688 -34.546875 10.820312 -30.789062 10.40625 -26.15625 L 43.609375 -26.15625 C 43.191406 -30.789062 41.453125 -34.546875 38.390625 -37.421875 C 35.335938 -40.296875 31.53125 -41.734375 26.96875 -41.734375 Z M 26.96875 -41.734375 "/></g></g></g><g fill="#ffffff" fill-opacity="1"><g transform="translate(263.320473, 61.893806)"><g><path d="M 67.1875 -47.15625 C 73.0625 -47.15625 77.671875 -45.460938 81.015625 -42.078125 C 84.367188 -38.703125 86.046875 -33.722656 86.046875 -27.140625 L 86.046875 0 L 79.734375 0 L 79.734375 -26.515625 C 79.734375 -31.378906 78.5625 -35.085938 76.21875 -37.640625 C 73.875 -40.191406 70.566406 -41.46875 66.296875 -41.46875 C 61.429688 -41.46875 57.601562 -39.96875 54.8125 -36.96875 C 52.019531 -33.976562 50.625 -29.84375 50.625 -24.5625 L 50.625 0 L 44.3125 0 L 44.3125 -26.515625 C 44.3125 -31.378906 43.140625 -35.085938 40.796875 -37.640625 C 38.453125 -40.191406 35.113281 -41.46875 30.78125 -41.46875 C 25.976562 -41.46875 22.164062 -39.96875 19.34375 -36.96875 C 16.53125 -33.976562 15.125 -29.84375 15.125 -24.5625 L 15.125 0 L 8.8125 0 L 8.8125 -46.8125 L 14.859375 -46.8125 L 14.859375 -38.265625 C 16.523438 -41.109375 18.835938 -43.300781 21.796875 -44.84375 C 24.765625 -46.382812 28.175781 -47.15625 32.03125 -47.15625 C 35.945312 -47.15625 39.34375 -46.320312 42.21875 -44.65625 C 45.09375 -43 47.242188 -40.539062 48.671875 -37.28125 C 50.390625 -40.363281 52.863281 -42.78125 56.09375 -44.53125 C 59.332031 -46.28125 63.03125 -47.15625 67.1875 -47.15625 Z M 67.1875 -47.15625 "/></g></g></g><g fill="#fbff1e" fill-opacity="1"><g transform="translate(76.138581, 178.232601)"><g><path d="M 23.015625 -23.0625 L 23.015625 0 L 20.625 0 L 20.625 -10.640625 L 6.1875 -10.640625 L 6.1875 0 L 3.75 0 L 3.75 -23.0625 L 6.1875 -23.0625 L 6.1875 -12.78125 L 20.625 -12.78125 L 20.625 -23.0625 Z M 23.015625 -23.0625 "/></g></g></g><g fill="#fbff1e" fill-opacity="1"><g transform="translate(115.833831, 178.232601)"><g><path d="M 3.75 -23.0625 L 6.1875 -23.0625 L 6.1875 -2.109375 L 19.109375 -2.109375 L 19.109375 0 L 3.75 0 Z M 3.75 -23.0625 "/></g></g></g><g fill="#fbff1e" fill-opacity="1"><g transform="translate(148.150704, 178.232601)"><g><path d="M 3.75 -23.0625 L 13.140625 -23.0625 C 15.578125 -23.0625 17.726562 -22.570312 19.59375 -21.59375 C 21.457031 -20.613281 22.90625 -19.25 23.9375 -17.5 C 24.976562 -15.757812 25.5 -13.769531 25.5 -11.53125 C 25.5 -9.289062 24.976562 -7.296875 23.9375 -5.546875 C 22.90625 -3.804688 21.457031 -2.445312 19.59375 -1.46875 C 17.726562 -0.488281 15.578125 0 13.140625 0 L 3.75 0 Z M 13.015625 -2.109375 C 15.035156 -2.109375 16.800781 -2.507812 18.3125 -3.3125 C 19.832031 -4.113281 21.007812 -5.222656 21.84375 -6.640625 C 22.675781 -8.054688 23.09375 -9.6875 23.09375 -11.53125 C 23.09375 -13.375 22.675781 -15.003906 21.84375 -16.421875 C 21.007812 -17.835938 19.832031 -18.945312 18.3125 -19.75 C 16.800781 -20.550781 15.035156 -20.953125 13.015625 -20.953125 L 6.1875 -20.953125 L 6.1875 -2.109375 Z M 13.015625 -2.109375 "/></g></g></g><g fill="#ffffff" fill-opacity="1"><g transform="translate(188.27618, 178.232601)"><g/></g></g><g fill="#ffffff" fill-opacity="1"><g transform="translate(209.821958, 178.232601)"><g><path d="M 16.640625 -10.546875 L 10.5 -10.546875 L 10.5 -4.546875 L 8.4375 -4.546875 L 8.4375 -10.546875 L 2.3125 -10.546875 L 2.3125 -12.484375 L 8.4375 -12.484375 L 8.4375 -18.515625 L 10.5 -18.515625 L 10.5 -12.484375 L 16.640625 -12.484375 Z M 16.640625 -10.546875 "/></g></g></g><g fill="#ffffff" fill-opacity="1"><g transform="translate(241.677692, 178.232601)"><g/></g></g><g fill="#fbff1e" fill-opacity="1"><g transform="translate(263.233548, 178.232601)"><g><path d="M 3.75 -23.0625 L 6.1875 -23.0625 L 6.1875 -2.109375 L 19.109375 -2.109375 L 19.109375 0 L 3.75 0 Z M 3.75 -23.0625 "/></g></g></g><g fill="#fbff1e" fill-opacity="1"><g transform="translate(295.550422, 178.232601)"><g><path d="M 3.75 -23.0625 L 6.1875 -23.0625 L 6.1875 -2.109375 L 19.109375 -2.109375 L 19.109375 0 L 3.75 0 Z M 3.75 -23.0625 "/></g></g></g><g fill="#fbff1e" fill-opacity="1"><g transform="translate(327.867295, 178.232601)"><g><path d="M 3.75 -23.0625 L 13.140625 -23.0625 C 15.578125 -23.0625 17.726562 -22.570312 19.59375 -21.59375 C 21.457031 -20.613281 22.90625 -19.25 23.9375 -17.5 C 24.976562 -15.757812 25.5 -13.769531 25.5 -11.53125 C 25.5 -9.289062 24.976562 -7.296875 23.9375 -5.546875 C 22.90625 -3.804688 21.457031 -2.445312 19.59375 -1.46875 C 17.726562 -0.488281 15.578125 0 13.140625 0 L 3.75 0 Z M 13.015625 -2.109375 C 15.035156 -2.109375 16.800781 -2.507812 18.3125 -3.3125 C 19.832031 -4.113281 21.007812 -5.222656 21.84375 -6.640625 C 22.675781 -8.054688 23.09375 -9.6875 23.09375 -11.53125 C 23.09375 -13.375 22.675781 -15.003906 21.84375 -16.421875 C 21.007812 -17.835938 19.832031 -18.945312 18.3125 -19.75 C 16.800781 -20.550781 15.035156 -20.953125 13.015625 -20.953125 L 6.1875 -20.953125 L 6.1875 -2.109375 Z M 13.015625 -2.109375 "/></g></g></g><g clip-path="url(#34c5ae3eb7)"><path fill="#ffffff" d="M 110.886719 51.097656 C 112.703125 51.097656 114.175781 49.628906 114.175781 47.8125 C 114.175781 46 112.703125 44.527344 110.886719 44.527344 C 109.652344 44.527344 108.574219 45.210938 108.015625 46.222656 L 60.476562 46.222656 C 60.433594 46.179688 60.40625 46.125 60.390625 46.0625 L 58.945312 39.871094 C 58.5625 38.230469 57.625 36.753906 56.308594 35.707031 C 54.992188 34.660156 53.339844 34.085938 51.65625 34.085938 L 44.414062 34.085938 C 42.730469 34.085938 41.082031 34.660156 39.761719 35.707031 C 38.445312 36.753906 37.507812 38.230469 37.125 39.871094 L 35.679688 46.0625 C 35.652344 46.179688 35.570312 46.273438 35.453125 46.3125 C 34.273438 46.734375 33.105469 47.21875 31.976562 47.753906 C 31.863281 47.808594 31.738281 47.804688 31.636719 47.738281 L 26.234375 44.382812 C 24.804688 43.492188 23.097656 43.109375 21.425781 43.300781 C 19.753906 43.496094 18.179688 44.257812 16.988281 45.445312 L 11.867188 50.566406 C 10.679688 51.753906 9.917969 53.332031 9.726562 55.003906 C 9.53125 56.675781 9.914062 58.382812 10.804688 59.8125 L 14.160156 65.214844 C 14.226562 65.316406 14.230469 65.441406 14.175781 65.554688 C 13.640625 66.683594 13.15625 67.851562 12.734375 69.03125 C 12.695312 69.148438 12.601562 69.230469 12.484375 69.257812 L 6.292969 70.703125 C 4.65625 71.085938 3.175781 72.019531 2.128906 73.339844 C 1.085938 74.65625 0.507812 76.308594 0.507812 77.992188 L 0.507812 85.878906 C 0.507812 87.15625 0.945312 88.410156 1.738281 89.410156 C 2.535156 90.414062 3.65625 91.125 4.902344 91.414062 L 11.375 92.925781 C 12.203125 93.117188 12.875 93.71875 13.164062 94.527344 C 13.578125 95.691406 14.054688 96.84375 14.585938 97.957031 C 14.953125 98.734375 14.90625 99.632812 14.453125 100.359375 L 10.945312 106.003906 C 10.269531 107.089844 9.980469 108.386719 10.125 109.65625 C 10.269531 110.925781 10.851562 112.121094 11.753906 113.027344 L 17.101562 118.375 C 18.007812 119.28125 19.203125 119.859375 20.472656 120.003906 C 21.742188 120.152344 23.039062 119.859375 24.125 119.183594 L 29.769531 115.675781 C 30.496094 115.222656 31.394531 115.175781 32.171875 115.546875 C 33.285156 116.074219 34.441406 116.550781 35.605469 116.96875 C 36.414062 117.257812 37.011719 117.925781 37.207031 118.757812 L 38.714844 125.226562 C 39.003906 126.472656 39.71875 127.59375 40.71875 128.390625 C 41.71875 129.183594 42.972656 129.621094 44.253906 129.621094 L 51.816406 129.621094 C 53.097656 129.621094 54.351562 129.183594 55.351562 128.390625 C 56.351562 127.59375 57.066406 126.472656 57.355469 125.226562 L 58.863281 118.757812 C 59.058594 117.925781 59.65625 117.257812 60.46875 116.96875 C 61.628906 116.550781 62.785156 116.074219 63.898438 115.546875 C 64.675781 115.175781 65.574219 115.222656 66.300781 115.675781 L 71.945312 119.183594 C 73.03125 119.859375 74.328125 120.152344 75.597656 120.003906 C 76.867188 119.859375 78.0625 119.28125 78.96875 118.375 L 84.316406 113.027344 C 85.222656 112.121094 85.800781 110.925781 85.945312 109.65625 C 86.089844 108.386719 85.800781 107.089844 85.125 106.003906 L 83.140625 102.8125 L 106.085938 102.8125 C 106.644531 103.824219 107.722656 104.507812 108.960938 104.507812 C 110.773438 104.507812 112.246094 103.039062 112.246094 101.222656 C 112.246094 99.40625 110.773438 97.9375 108.960938 97.9375 C 107.722656 97.9375 106.644531 98.621094 106.085938 99.628906 L 80.214844 99.628906 C 79.335938 99.628906 78.621094 100.34375 78.621094 101.222656 C 78.621094 101.679688 78.816406 102.09375 79.125 102.386719 L 82.421875 107.683594 C 83.039062 108.679688 82.890625 109.949219 82.066406 110.773438 L 76.714844 116.125 C 75.890625 116.953125 74.617188 117.097656 73.625 116.480469 L 67.980469 112.972656 C 66.328125 111.945312 64.292969 111.832031 62.53125 112.667969 C 61.515625 113.152344 60.460938 113.589844 59.398438 113.96875 C 57.5625 114.621094 56.207031 116.140625 55.765625 118.035156 L 54.253906 124.503906 C 53.988281 125.644531 52.988281 126.4375 51.816406 126.4375 L 44.253906 126.4375 C 43.082031 126.4375 42.082031 125.644531 41.816406 124.503906 L 40.304688 118.035156 C 39.863281 116.140625 38.507812 114.621094 36.671875 113.96875 C 35.609375 113.589844 34.554688 113.152344 33.539062 112.667969 C 31.777344 111.832031 29.738281 111.945312 28.089844 112.972656 L 22.445312 116.480469 C 21.453125 117.097656 20.179688 116.953125 19.355469 116.125 L 14.003906 110.773438 C 13.179688 109.949219 13.03125 108.679688 13.648438 107.6875 L 17.15625 102.039062 C 18.183594 100.390625 18.296875 98.351562 17.460938 96.589844 C 16.976562 95.574219 16.539062 94.519531 16.160156 93.457031 C 15.507812 91.625 13.988281 90.265625 12.097656 89.824219 L 5.625 88.3125 C 4.488281 88.046875 3.691406 87.046875 3.691406 85.878906 L 3.691406 83.6875 L 4.199219 83.6875 L 3.703125 81.707031 C 3.695312 81.675781 3.691406 81.644531 3.691406 81.613281 L 3.691406 77.992188 C 3.691406 77.027344 4.023438 76.074219 4.625 75.320312 C 5.226562 74.5625 6.074219 74.023438 7.015625 73.800781 L 13.207031 72.359375 C 14.382812 72.085938 15.328125 71.238281 15.734375 70.097656 C 16.121094 69.023438 16.5625 67.953125 17.050781 66.921875 C 17.574219 65.824219 17.503906 64.558594 16.867188 63.53125 L 13.507812 58.128906 C 12.996094 57.308594 12.777344 56.328125 12.886719 55.367188 C 13 54.40625 13.4375 53.5 14.121094 52.816406 L 19.238281 47.695312 C 19.921875 47.015625 20.828125 46.578125 21.789062 46.464844 C 22.75 46.355469 23.730469 46.574219 24.554688 47.085938 L 29.957031 50.445312 C 30.980469 51.082031 32.246094 51.152344 33.34375 50.628906 C 34.375 50.140625 35.445312 49.699219 36.519531 49.3125 C 37.660156 48.90625 38.507812 47.960938 38.78125 46.785156 L 40.226562 40.59375 C 40.445312 39.652344 40.984375 38.800781 41.742188 38.203125 C 42.5 37.601562 43.449219 37.269531 44.414062 37.269531 L 51.65625 37.269531 C 52.621094 37.269531 53.570312 37.601562 54.328125 38.203125 C 55.085938 38.800781 55.625 39.652344 55.84375 40.59375 L 57.289062 46.785156 C 57.558594 47.949219 58.386719 48.882812 59.503906 49.296875 C 59.683594 49.367188 59.878906 49.40625 60.082031 49.40625 L 108.015625 49.40625 C 108.574219 50.414062 109.652344 51.097656 110.886719 51.097656 Z M 25.15625 82.808594 C 25.15625 95.425781 35.421875 105.6875 48.035156 105.6875 C 60.648438 105.6875 70.914062 95.425781 70.914062 82.808594 C 70.914062 81.929688 71.625 81.21875 72.503906 81.21875 L 101.058594 81.21875 C 101.617188 80.207031 102.695312 79.523438 103.933594 79.523438 C 105.746094 79.523438 107.21875 80.996094 107.21875 82.808594 C 107.21875 84.625 105.746094 86.09375 103.933594 86.09375 C 102.695312 86.09375 101.617188 85.410156 101.058594 84.402344 L 74.046875 84.402344 C 73.871094 87.355469 73.199219 90.226562 72.046875 92.953125 C 70.734375 96.058594 68.855469 98.84375 66.460938 101.238281 C 64.070312 103.628906 61.285156 105.507812 58.179688 106.824219 C 54.964844 108.179688 51.554688 108.871094 48.035156 108.871094 C 44.519531 108.871094 41.105469 108.179688 37.890625 106.824219 C 34.789062 105.507812 32 103.628906 29.609375 101.238281 C 27.214844 98.84375 25.335938 96.058594 24.023438 92.953125 C 22.664062 89.742188 21.972656 86.328125 21.972656 82.808594 C 21.972656 79.292969 22.664062 75.878906 24.023438 72.664062 C 25.335938 69.5625 27.214844 66.773438 29.609375 64.382812 C 32 61.988281 34.789062 60.109375 37.890625 58.796875 C 41.105469 57.4375 44.519531 56.75 48.035156 56.75 C 51.605469 56.75 55.070312 57.457031 58.324219 58.859375 C 61.214844 60.101562 63.820312 61.835938 66.089844 64.015625 L 91.28125 64.015625 C 91.839844 63.003906 92.917969 62.320312 94.152344 62.320312 C 95.96875 62.320312 97.441406 63.792969 97.441406 65.605469 C 97.441406 67.421875 95.96875 68.894531 94.152344 68.894531 C 92.917969 68.894531 91.839844 68.207031 91.28125 67.199219 L 65.410156 67.199219 C 64.878906 67.199219 64.410156 66.941406 64.121094 66.542969 C 59.8125 62.277344 54.117188 59.933594 48.035156 59.933594 C 35.421875 59.933594 25.15625 70.195312 25.15625 82.808594 " fill-opacity="1" fill-rule="nonzero"/></g><g clip-path="url(#106df79145)"><path stroke-linecap="butt" transform="matrix(0, 0.748005, -0.748005, 0, 72.075972, 0.00332708)" fill="none" stroke-linejoin="miter" d="M 0.000774286 2.002455 L 257.69657 2.002455 " stroke="#ffffff" stroke-width="4" stroke-opacity="1" stroke-miterlimit="4"/></g></svg>